%TF.GenerationSoftware,KiCad,Pcbnew,(5.99.0-12305-g62f7a09290)*%
%TF.CreationDate,2021-10-11T18:46:27-07:00*%
%TF.ProjectId,vive_ups,76697665-5f75-4707-932e-6b696361645f,rev?*%
%TF.SameCoordinates,Original*%
%TF.FileFunction,Soldermask,Bot*%
%TF.FilePolarity,Negative*%
%FSLAX46Y46*%
G04 Gerber Fmt 4.6, Leading zero omitted, Abs format (unit mm)*
G04 Created by KiCad (PCBNEW (5.99.0-12305-g62f7a09290)) date 2021-10-11 18:46:27*
%MOMM*%
%LPD*%
G01*
G04 APERTURE LIST*
G04 Aperture macros list*
%AMHorizOval*
0 Thick line with rounded ends*
0 $1 width*
0 $2 $3 position (X,Y) of the first rounded end (center of the circle)*
0 $4 $5 position (X,Y) of the second rounded end (center of the circle)*
0 Add line between two ends*
20,1,$1,$2,$3,$4,$5,0*
0 Add two circle primitives to create the rounded ends*
1,1,$1,$2,$3*
1,1,$1,$4,$5*%
G04 Aperture macros list end*
%ADD10C,0.300000*%
%ADD11R,1.700000X1.700000*%
%ADD12O,1.700000X1.700000*%
%ADD13O,1.050000X1.500000*%
%ADD14R,1.050000X1.500000*%
%ADD15HorizOval,1.600000X0.000000X0.000000X0.000000X0.000000X0*%
%ADD16C,1.600000*%
%ADD17C,3.200000*%
%ADD18R,1.600000X1.600000*%
%ADD19C,1.800000*%
%ADD20O,1.550000X0.890000*%
%ADD21O,0.950000X1.250000*%
%ADD22C,3.500000*%
%ADD23R,1.500000X1.600000*%
%ADD24C,3.000000*%
%ADD25O,1.600000X1.600000*%
G04 APERTURE END LIST*
D10*
X107500857Y-152062571D02*
X107500857Y-151062571D01*
X107500857Y-150562571D02*
X107572285Y-150634000D01*
X107500857Y-150705428D01*
X107429428Y-150634000D01*
X107500857Y-150562571D01*
X107500857Y-150705428D01*
X106786571Y-151062571D02*
X106786571Y-152062571D01*
X106786571Y-151205428D02*
X106715142Y-151134000D01*
X106572285Y-151062571D01*
X106358000Y-151062571D01*
X106215142Y-151134000D01*
X106143714Y-151276857D01*
X106143714Y-152062571D01*
X105500857Y-151991142D02*
X105358000Y-152062571D01*
X105072285Y-152062571D01*
X104929428Y-151991142D01*
X104858000Y-151848285D01*
X104858000Y-151776857D01*
X104929428Y-151634000D01*
X105072285Y-151562571D01*
X105286571Y-151562571D01*
X105429428Y-151491142D01*
X105500857Y-151348285D01*
X105500857Y-151276857D01*
X105429428Y-151134000D01*
X105286571Y-151062571D01*
X105072285Y-151062571D01*
X104929428Y-151134000D01*
X103643714Y-151991142D02*
X103786571Y-152062571D01*
X104072285Y-152062571D01*
X104215142Y-151991142D01*
X104286571Y-151848285D01*
X104286571Y-151276857D01*
X104215142Y-151134000D01*
X104072285Y-151062571D01*
X103786571Y-151062571D01*
X103643714Y-151134000D01*
X103572285Y-151276857D01*
X103572285Y-151419714D01*
X104286571Y-151562571D01*
X102929428Y-152062571D02*
X102929428Y-151062571D01*
X102929428Y-151348285D02*
X102858000Y-151205428D01*
X102786571Y-151134000D01*
X102643714Y-151062571D01*
X102500857Y-151062571D01*
X102215142Y-151062571D02*
X101643714Y-151062571D01*
X102000857Y-150562571D02*
X102000857Y-151848285D01*
X101929428Y-151991142D01*
X101786571Y-152062571D01*
X101643714Y-152062571D01*
X100000857Y-152062571D02*
X100000857Y-151062571D01*
X100000857Y-151205428D02*
X99929428Y-151134000D01*
X99786571Y-151062571D01*
X99572285Y-151062571D01*
X99429428Y-151134000D01*
X99358000Y-151276857D01*
X99358000Y-152062571D01*
X99358000Y-151276857D02*
X99286571Y-151134000D01*
X99143714Y-151062571D01*
X98929428Y-151062571D01*
X98786571Y-151134000D01*
X98715142Y-151276857D01*
X98715142Y-152062571D01*
X97429428Y-151991142D02*
X97572285Y-152062571D01*
X97858000Y-152062571D01*
X98000857Y-151991142D01*
X98072285Y-151848285D01*
X98072285Y-151276857D01*
X98000857Y-151134000D01*
X97858000Y-151062571D01*
X97572285Y-151062571D01*
X97429428Y-151134000D01*
X97358000Y-151276857D01*
X97358000Y-151419714D01*
X98072285Y-151562571D01*
X96715142Y-151919714D02*
X96643714Y-151991142D01*
X96715142Y-152062571D01*
X96786571Y-151991142D01*
X96715142Y-151919714D01*
X96715142Y-152062571D01*
X96715142Y-151491142D02*
X96786571Y-150634000D01*
X96715142Y-150562571D01*
X96643714Y-150634000D01*
X96715142Y-151491142D01*
X96715142Y-150562571D01*
D11*
%TO.C,BZ1*%
X71755000Y-117983000D03*
D12*
X71755000Y-120523000D03*
%TD*%
D13*
%TO.C,Q1*%
X72847200Y-114096800D03*
X71577200Y-114096800D03*
D14*
X74117200Y-114096800D03*
%TD*%
D15*
%TO.C,R13*%
X78648662Y-118006839D03*
D16*
X76911200Y-113233200D03*
%TD*%
D12*
%TO.C,J3*%
X101447600Y-103835200D03*
X101447600Y-101295200D03*
X101447600Y-98755200D03*
D11*
X101447600Y-96215200D03*
%TD*%
D17*
%TO.C,H1*%
X108712000Y-98806000D03*
%TD*%
D16*
%TO.C,C5*%
X121452000Y-109728000D03*
D18*
X123952000Y-109728000D03*
%TD*%
D16*
%TO.C,U9*%
X113294000Y-115062000D03*
X113294000Y-112522000D03*
X113294000Y-109982000D03*
X113294000Y-107442000D03*
X82794000Y-120142000D03*
X82794000Y-117602000D03*
X82794000Y-115062000D03*
X82794000Y-112522000D03*
X82794000Y-109982000D03*
%TD*%
D12*
%TO.C,C3*%
X75539600Y-120548400D03*
D11*
X75539600Y-118008400D03*
%TD*%
D19*
%TO.C,SW1*%
X65254400Y-113832000D03*
X65254400Y-116332000D03*
X65254400Y-118832000D03*
X68654400Y-113832000D03*
X68654400Y-116332000D03*
X68654400Y-118832000D03*
%TD*%
D20*
%TO.C,J2*%
X140771400Y-97058600D03*
X140771400Y-104058600D03*
D21*
X138071400Y-98058600D03*
X138071400Y-103058600D03*
%TD*%
D22*
%TO.C,BT1*%
X139624000Y-133096000D03*
X66624000Y-133096000D03*
%TD*%
D16*
%TO.C,C9*%
X121452000Y-117856000D03*
D18*
X123952000Y-117856000D03*
%TD*%
D16*
%TO.C,J4*%
X129540000Y-110348000D03*
X129540000Y-112848000D03*
X129540000Y-114848000D03*
D23*
X129540000Y-117348000D03*
D24*
X132250000Y-107278000D03*
X132250000Y-120418000D03*
%TD*%
D16*
%TO.C,J1*%
X76751000Y-106590000D03*
X76751000Y-104090000D03*
X76751000Y-102090000D03*
D23*
X76751000Y-99590000D03*
D24*
X74041000Y-109660000D03*
X74041000Y-96520000D03*
%TD*%
D25*
%TO.C,U8*%
X91757500Y-103632000D03*
X84137500Y-96012000D03*
X89217500Y-103632000D03*
X86677500Y-96012000D03*
X86677500Y-103632000D03*
X89217500Y-96012000D03*
X84137500Y-103632000D03*
D18*
X91757500Y-96012000D03*
%TD*%
M02*
