%TF.GenerationSoftware,KiCad,Pcbnew,(5.99.0-12305-g62f7a09290)*%
%TF.CreationDate,2021-10-11T18:46:27-07:00*%
%TF.ProjectId,vive_ups,76697665-5f75-4707-932e-6b696361645f,rev?*%
%TF.SameCoordinates,Original*%
%TF.FileFunction,Legend,Bot*%
%TF.FilePolarity,Positive*%
%FSLAX46Y46*%
G04 Gerber Fmt 4.6, Leading zero omitted, Abs format (unit mm)*
G04 Created by KiCad (PCBNEW (5.99.0-12305-g62f7a09290)) date 2021-10-11 18:46:27*
%MOMM*%
%LPD*%
G01*
G04 APERTURE LIST*
%ADD10C,0.150000*%
%ADD11C,0.010000*%
G04 APERTURE END LIST*
D10*
X88464571Y-128309714D02*
X88464571Y-129309714D01*
X88464571Y-128357333D02*
X88271047Y-128309714D01*
X87884000Y-128309714D01*
X87690476Y-128357333D01*
X87593714Y-128404952D01*
X87496952Y-128500190D01*
X87496952Y-128785904D01*
X87593714Y-128881142D01*
X87690476Y-128928761D01*
X87884000Y-128976380D01*
X88271047Y-128976380D01*
X88464571Y-128928761D01*
X86335809Y-128976380D02*
X86529333Y-128928761D01*
X86626095Y-128881142D01*
X86722857Y-128785904D01*
X86722857Y-128500190D01*
X86626095Y-128404952D01*
X86529333Y-128357333D01*
X86335809Y-128309714D01*
X86045523Y-128309714D01*
X85852000Y-128357333D01*
X85755238Y-128404952D01*
X85658476Y-128500190D01*
X85658476Y-128785904D01*
X85755238Y-128881142D01*
X85852000Y-128928761D01*
X86045523Y-128976380D01*
X86335809Y-128976380D01*
X84981142Y-128309714D02*
X84594095Y-128976380D01*
X84207047Y-128500190D01*
X83820000Y-128976380D01*
X83432952Y-128309714D01*
X81884761Y-128928761D02*
X82078285Y-128976380D01*
X82465333Y-128976380D01*
X82658857Y-128928761D01*
X82755619Y-128833523D01*
X82755619Y-128452571D01*
X82658857Y-128357333D01*
X82465333Y-128309714D01*
X82078285Y-128309714D01*
X81884761Y-128357333D01*
X81788000Y-128452571D01*
X81788000Y-128547809D01*
X82755619Y-128643047D01*
X80917142Y-128976380D02*
X80917142Y-128309714D01*
X80917142Y-128500190D02*
X80820380Y-128404952D01*
X80723619Y-128357333D01*
X80530095Y-128309714D01*
X80336571Y-128309714D01*
X77240190Y-128309714D02*
X77240190Y-129119238D01*
X77336952Y-129214476D01*
X77433714Y-129262095D01*
X77627238Y-129309714D01*
X77917523Y-129309714D01*
X78111047Y-129262095D01*
X77240190Y-128928761D02*
X77433714Y-128976380D01*
X77820761Y-128976380D01*
X78014285Y-128928761D01*
X78111047Y-128881142D01*
X78207809Y-128785904D01*
X78207809Y-128500190D01*
X78111047Y-128404952D01*
X78014285Y-128357333D01*
X77820761Y-128309714D01*
X77433714Y-128309714D01*
X77240190Y-128357333D01*
X75982285Y-128976380D02*
X76175809Y-128928761D01*
X76272571Y-128881142D01*
X76369333Y-128785904D01*
X76369333Y-128500190D01*
X76272571Y-128404952D01*
X76175809Y-128357333D01*
X75982285Y-128309714D01*
X75692000Y-128309714D01*
X75498476Y-128357333D01*
X75401714Y-128404952D01*
X75304952Y-128500190D01*
X75304952Y-128785904D01*
X75401714Y-128881142D01*
X75498476Y-128928761D01*
X75692000Y-128976380D01*
X75982285Y-128976380D01*
X72885904Y-128976380D02*
X72885904Y-127976380D01*
X72885904Y-128357333D02*
X72692380Y-128309714D01*
X72305333Y-128309714D01*
X72111809Y-128357333D01*
X72015047Y-128404952D01*
X71918285Y-128500190D01*
X71918285Y-128785904D01*
X72015047Y-128881142D01*
X72111809Y-128928761D01*
X72305333Y-128976380D01*
X72692380Y-128976380D01*
X72885904Y-128928761D01*
X71047428Y-128976380D02*
X71047428Y-128309714D01*
X71047428Y-128500190D02*
X70950666Y-128404952D01*
X70853904Y-128357333D01*
X70660380Y-128309714D01*
X70466857Y-128309714D01*
X69789523Y-128976380D02*
X69789523Y-128309714D01*
X69789523Y-128500190D02*
X69692761Y-128404952D01*
X69596000Y-128357333D01*
X69402476Y-128309714D01*
X69208952Y-128309714D01*
X68531619Y-128976380D02*
X68531619Y-128309714D01*
X68531619Y-128500190D02*
X68434857Y-128404952D01*
X68338095Y-128357333D01*
X68144571Y-128309714D01*
X67951047Y-128309714D01*
X67273714Y-128976380D02*
X67273714Y-128309714D01*
X67273714Y-128500190D02*
X67176952Y-128404952D01*
X67080190Y-128357333D01*
X66886666Y-128309714D01*
X66693142Y-128309714D01*
X89993809Y-141268380D02*
X89660476Y-142268380D01*
X89327142Y-141268380D01*
X88993809Y-142268380D02*
X88993809Y-141268380D01*
X88660476Y-141268380D02*
X88327142Y-142268380D01*
X87993809Y-141268380D01*
X87660476Y-141744571D02*
X87327142Y-141744571D01*
X87184285Y-142268380D02*
X87660476Y-142268380D01*
X87660476Y-141268380D01*
X87184285Y-141268380D01*
X86089047Y-141268380D02*
X85850952Y-142268380D01*
X85660476Y-141554095D01*
X85470000Y-142268380D01*
X85231904Y-141268380D01*
X84850952Y-142268380D02*
X84850952Y-141268380D01*
X83803333Y-142268380D02*
X84136666Y-141792190D01*
X84374761Y-142268380D02*
X84374761Y-141268380D01*
X83993809Y-141268380D01*
X83898571Y-141316000D01*
X83850952Y-141363619D01*
X83803333Y-141458857D01*
X83803333Y-141601714D01*
X83850952Y-141696952D01*
X83898571Y-141744571D01*
X83993809Y-141792190D01*
X84374761Y-141792190D01*
X83374761Y-141744571D02*
X83041428Y-141744571D01*
X82898571Y-142268380D02*
X83374761Y-142268380D01*
X83374761Y-141268380D01*
X82898571Y-141268380D01*
X81993809Y-142268380D02*
X82470000Y-142268380D01*
X82470000Y-141268380D01*
X81660476Y-141744571D02*
X81327142Y-141744571D01*
X81184285Y-142268380D02*
X81660476Y-142268380D01*
X81660476Y-141268380D01*
X81184285Y-141268380D01*
X80803333Y-142220761D02*
X80660476Y-142268380D01*
X80422380Y-142268380D01*
X80327142Y-142220761D01*
X80279523Y-142173142D01*
X80231904Y-142077904D01*
X80231904Y-141982666D01*
X80279523Y-141887428D01*
X80327142Y-141839809D01*
X80422380Y-141792190D01*
X80612857Y-141744571D01*
X80708095Y-141696952D01*
X80755714Y-141649333D01*
X80803333Y-141554095D01*
X80803333Y-141458857D01*
X80755714Y-141363619D01*
X80708095Y-141316000D01*
X80612857Y-141268380D01*
X80374761Y-141268380D01*
X80231904Y-141316000D01*
X79850952Y-142220761D02*
X79708095Y-142268380D01*
X79470000Y-142268380D01*
X79374761Y-142220761D01*
X79327142Y-142173142D01*
X79279523Y-142077904D01*
X79279523Y-141982666D01*
X79327142Y-141887428D01*
X79374761Y-141839809D01*
X79470000Y-141792190D01*
X79660476Y-141744571D01*
X79755714Y-141696952D01*
X79803333Y-141649333D01*
X79850952Y-141554095D01*
X79850952Y-141458857D01*
X79803333Y-141363619D01*
X79755714Y-141316000D01*
X79660476Y-141268380D01*
X79422380Y-141268380D01*
X79279523Y-141316000D01*
X78089047Y-141268380D02*
X78089047Y-142077904D01*
X78041428Y-142173142D01*
X77993809Y-142220761D01*
X77898571Y-142268380D01*
X77708095Y-142268380D01*
X77612857Y-142220761D01*
X77565238Y-142173142D01*
X77517619Y-142077904D01*
X77517619Y-141268380D01*
X77041428Y-142268380D02*
X77041428Y-141268380D01*
X76660476Y-141268380D01*
X76565238Y-141316000D01*
X76517619Y-141363619D01*
X76470000Y-141458857D01*
X76470000Y-141601714D01*
X76517619Y-141696952D01*
X76565238Y-141744571D01*
X76660476Y-141792190D01*
X77041428Y-141792190D01*
X76089047Y-142220761D02*
X75946190Y-142268380D01*
X75708095Y-142268380D01*
X75612857Y-142220761D01*
X75565238Y-142173142D01*
X75517619Y-142077904D01*
X75517619Y-141982666D01*
X75565238Y-141887428D01*
X75612857Y-141839809D01*
X75708095Y-141792190D01*
X75898571Y-141744571D01*
X75993809Y-141696952D01*
X76041428Y-141649333D01*
X76089047Y-141554095D01*
X76089047Y-141458857D01*
X76041428Y-141363619D01*
X75993809Y-141316000D01*
X75898571Y-141268380D01*
X75660476Y-141268380D01*
X75517619Y-141316000D01*
X73993809Y-141744571D02*
X73850952Y-141792190D01*
X73803333Y-141839809D01*
X73755714Y-141935047D01*
X73755714Y-142077904D01*
X73803333Y-142173142D01*
X73850952Y-142220761D01*
X73946190Y-142268380D01*
X74327142Y-142268380D01*
X74327142Y-141268380D01*
X73993809Y-141268380D01*
X73898571Y-141316000D01*
X73850952Y-141363619D01*
X73803333Y-141458857D01*
X73803333Y-141554095D01*
X73850952Y-141649333D01*
X73898571Y-141696952D01*
X73993809Y-141744571D01*
X74327142Y-141744571D01*
X73136666Y-141268380D02*
X72946190Y-141268380D01*
X72850952Y-141316000D01*
X72755714Y-141411238D01*
X72708095Y-141601714D01*
X72708095Y-141935047D01*
X72755714Y-142125523D01*
X72850952Y-142220761D01*
X72946190Y-142268380D01*
X73136666Y-142268380D01*
X73231904Y-142220761D01*
X73327142Y-142125523D01*
X73374761Y-141935047D01*
X73374761Y-141601714D01*
X73327142Y-141411238D01*
X73231904Y-141316000D01*
X73136666Y-141268380D01*
X72327142Y-141982666D02*
X71850952Y-141982666D01*
X72422380Y-142268380D02*
X72089047Y-141268380D01*
X71755714Y-142268380D01*
X70850952Y-142268380D02*
X71184285Y-141792190D01*
X71422380Y-142268380D02*
X71422380Y-141268380D01*
X71041428Y-141268380D01*
X70946190Y-141316000D01*
X70898571Y-141363619D01*
X70850952Y-141458857D01*
X70850952Y-141601714D01*
X70898571Y-141696952D01*
X70946190Y-141744571D01*
X71041428Y-141792190D01*
X71422380Y-141792190D01*
X70422380Y-142268380D02*
X70422380Y-141268380D01*
X70184285Y-141268380D01*
X70041428Y-141316000D01*
X69946190Y-141411238D01*
X69898571Y-141506476D01*
X69850952Y-141696952D01*
X69850952Y-141839809D01*
X69898571Y-142030285D01*
X69946190Y-142125523D01*
X70041428Y-142220761D01*
X70184285Y-142268380D01*
X70422380Y-142268380D01*
X68755714Y-141601714D02*
X68517619Y-142268380D01*
X68279523Y-141601714D01*
X67708095Y-141268380D02*
X67612857Y-141268380D01*
X67517619Y-141316000D01*
X67470000Y-141363619D01*
X67422380Y-141458857D01*
X67374761Y-141649333D01*
X67374761Y-141887428D01*
X67422380Y-142077904D01*
X67470000Y-142173142D01*
X67517619Y-142220761D01*
X67612857Y-142268380D01*
X67708095Y-142268380D01*
X67803333Y-142220761D01*
X67850952Y-142173142D01*
X67898571Y-142077904D01*
X67946190Y-141887428D01*
X67946190Y-141649333D01*
X67898571Y-141458857D01*
X67850952Y-141363619D01*
X67803333Y-141316000D01*
X67708095Y-141268380D01*
X66946190Y-142173142D02*
X66898571Y-142220761D01*
X66946190Y-142268380D01*
X66993809Y-142220761D01*
X66946190Y-142173142D01*
X66946190Y-142268380D01*
X66517619Y-141363619D02*
X66470000Y-141316000D01*
X66374761Y-141268380D01*
X66136666Y-141268380D01*
X66041428Y-141316000D01*
X65993809Y-141363619D01*
X65946190Y-141458857D01*
X65946190Y-141554095D01*
X65993809Y-141696952D01*
X66565238Y-142268380D01*
X65946190Y-142268380D01*
X65517619Y-142268380D02*
X65517619Y-141268380D01*
X65517619Y-141649333D02*
X65422380Y-141601714D01*
X65231904Y-141601714D01*
X65136666Y-141649333D01*
X65089047Y-141696952D01*
X65041428Y-141792190D01*
X65041428Y-142077904D01*
X65089047Y-142173142D01*
X65136666Y-142220761D01*
X65231904Y-142268380D01*
X65422380Y-142268380D01*
X65517619Y-142220761D01*
D11*
%TO.C,G\u002A\u002A\u002A*%
X101870972Y-140265815D02*
X101758750Y-140422109D01*
X101758750Y-140422109D02*
X101445981Y-141167250D01*
X101445981Y-141167250D02*
X101504459Y-141704947D01*
X101504459Y-141704947D02*
X101758750Y-141833220D01*
X101758750Y-141833220D02*
X102013029Y-141528955D01*
X102013029Y-141528955D02*
X102106126Y-140863081D01*
X102106126Y-140863081D02*
X102053449Y-140247192D01*
X102053449Y-140247192D02*
X101870972Y-140265815D01*
X101870972Y-140265815D02*
X101870972Y-140265815D01*
G36*
X102106126Y-140863081D02*
G01*
X102013029Y-141528955D01*
X101758750Y-141833220D01*
X101504459Y-141704947D01*
X101445981Y-141167250D01*
X101758750Y-140422109D01*
X101870972Y-140265815D01*
X102053449Y-140247192D01*
X102106126Y-140863081D01*
G37*
X102106126Y-140863081D02*
X102013029Y-141528955D01*
X101758750Y-141833220D01*
X101504459Y-141704947D01*
X101445981Y-141167250D01*
X101758750Y-140422109D01*
X101870972Y-140265815D01*
X102053449Y-140247192D01*
X102106126Y-140863081D01*
X90734445Y-120215623D02*
X93644861Y-120342310D01*
X93644861Y-120342310D02*
X93644861Y-122945023D01*
X93644861Y-122945023D02*
X93666988Y-124282144D01*
X93666988Y-124282144D02*
X93725268Y-125370375D01*
X93725268Y-125370375D02*
X93807552Y-125991484D01*
X93807552Y-125991484D02*
X93815918Y-126017562D01*
X93815918Y-126017562D02*
X93644316Y-126483311D01*
X93644316Y-126483311D02*
X92931732Y-126979409D01*
X92931732Y-126979409D02*
X92854406Y-127016553D01*
X92854406Y-127016553D02*
X91667487Y-127901339D01*
X91667487Y-127901339D02*
X90799635Y-129323490D01*
X90799635Y-129323490D02*
X90222581Y-131335199D01*
X90222581Y-131335199D02*
X90094772Y-132111639D01*
X90094772Y-132111639D02*
X89942084Y-133522164D01*
X89942084Y-133522164D02*
X89986258Y-134585713D01*
X89986258Y-134585713D02*
X90259652Y-135641419D01*
X90259652Y-135641419D02*
X90491536Y-136270040D01*
X90491536Y-136270040D02*
X91170950Y-137730866D01*
X91170950Y-137730866D02*
X91885608Y-138596234D01*
X91885608Y-138596234D02*
X92741606Y-138972672D01*
X92741606Y-138972672D02*
X93221365Y-139010998D01*
X93221365Y-139010998D02*
X93831899Y-139116433D01*
X93831899Y-139116433D02*
X93922841Y-139574139D01*
X93922841Y-139574139D02*
X93862904Y-139852577D01*
X93862904Y-139852577D02*
X93801542Y-140475984D01*
X93801542Y-140475984D02*
X94047028Y-140921180D01*
X94047028Y-140921180D02*
X94696268Y-141231831D01*
X94696268Y-141231831D02*
X95846171Y-141451608D01*
X95846171Y-141451608D02*
X97593643Y-141624180D01*
X97593643Y-141624180D02*
X97835790Y-141642859D01*
X97835790Y-141642859D02*
X101144775Y-141893352D01*
X101144775Y-141893352D02*
X100873405Y-140893147D01*
X100873405Y-140893147D02*
X100731974Y-140100650D01*
X100731974Y-140100650D02*
X99598466Y-140100650D01*
X99598466Y-140100650D02*
X99476331Y-140658214D01*
X99476331Y-140658214D02*
X98782810Y-140984130D01*
X98782810Y-140984130D02*
X97466747Y-141118477D01*
X97466747Y-141118477D02*
X96830933Y-141127665D01*
X96830933Y-141127665D02*
X95500901Y-141100017D01*
X95500901Y-141100017D02*
X94737437Y-140996309D01*
X94737437Y-140996309D02*
X94402985Y-140785389D01*
X94402985Y-140785389D02*
X94350417Y-140565947D01*
X94350417Y-140565947D02*
X94557549Y-139906008D01*
X94557549Y-139906008D02*
X95055592Y-139107744D01*
X95055592Y-139107744D02*
X95055972Y-139107261D01*
X95055972Y-139107261D02*
X95679048Y-137832669D01*
X95679048Y-137832669D02*
X95622988Y-136424452D01*
X95622988Y-136424452D02*
X95347764Y-135666639D01*
X95347764Y-135666639D02*
X95110571Y-134880965D01*
X95110571Y-134880965D02*
X95322193Y-134371056D01*
X95322193Y-134371056D02*
X95347764Y-134344762D01*
X95347764Y-134344762D02*
X95711797Y-133646640D01*
X95711797Y-133646640D02*
X95761528Y-133295998D01*
X95761528Y-133295998D02*
X95984015Y-132761344D01*
X95984015Y-132761344D02*
X96583256Y-132743620D01*
X96583256Y-132743620D02*
X97456925Y-133241790D01*
X97456925Y-133241790D02*
X97548223Y-133314083D01*
X97548223Y-133314083D02*
X98029248Y-133850406D01*
X98029248Y-133850406D02*
X98319619Y-134627187D01*
X98319619Y-134627187D02*
X98488660Y-135852384D01*
X98488660Y-135852384D02*
X98517921Y-136222999D01*
X98517921Y-136222999D02*
X98684623Y-137544099D01*
X98684623Y-137544099D02*
X98951343Y-138678966D01*
X98951343Y-138678966D02*
X99200377Y-139271357D01*
X99200377Y-139271357D02*
X99598466Y-140100650D01*
X99598466Y-140100650D02*
X100731974Y-140100650D01*
X100731974Y-140100650D02*
X100651384Y-139649077D01*
X100651384Y-139649077D02*
X100837939Y-138673165D01*
X100837939Y-138673165D02*
X101507988Y-137662184D01*
X101507988Y-137662184D02*
X101738198Y-137393008D01*
X101738198Y-137393008D02*
X102586063Y-136107876D01*
X102586063Y-136107876D02*
X102817084Y-134982828D01*
X102817084Y-134982828D02*
X102955683Y-134098817D01*
X102955683Y-134098817D02*
X103462380Y-133287648D01*
X103462380Y-133287648D02*
X104199129Y-132552836D01*
X104199129Y-132552836D02*
X105188767Y-131701874D01*
X105188767Y-131701874D02*
X106125567Y-130964891D01*
X106125567Y-130964891D02*
X106475769Y-130718080D01*
X106475769Y-130718080D02*
X107049405Y-130392645D01*
X107049405Y-130392645D02*
X107516086Y-130379468D01*
X107516086Y-130379468D02*
X108122197Y-130729107D01*
X108122197Y-130729107D02*
X108709695Y-131176479D01*
X108709695Y-131176479D02*
X110066821Y-132076343D01*
X110066821Y-132076343D02*
X111244194Y-132431069D01*
X111244194Y-132431069D02*
X112459339Y-132278596D01*
X112459339Y-132278596D02*
X113269358Y-131971736D01*
X113269358Y-131971736D02*
X114670682Y-131070544D01*
X114670682Y-131070544D02*
X115509146Y-129819723D01*
X115509146Y-129819723D02*
X115821323Y-128149144D01*
X115821323Y-128149144D02*
X115791542Y-127135238D01*
X115791542Y-127135238D02*
X115753793Y-126511924D01*
X115753793Y-126511924D02*
X114811528Y-126511924D01*
X114811528Y-126511924D02*
X114757245Y-126884915D01*
X114757245Y-126884915D02*
X114470045Y-126851339D01*
X114470045Y-126851339D02*
X113913373Y-126509206D01*
X113913373Y-126509206D02*
X113286335Y-126158770D01*
X113286335Y-126158770D02*
X112771059Y-126152793D01*
X112771059Y-126152793D02*
X112057787Y-126513909D01*
X112057787Y-126513909D02*
X111814920Y-126662537D01*
X111814920Y-126662537D02*
X110745734Y-127557018D01*
X110745734Y-127557018D02*
X110309428Y-128607039D01*
X110309428Y-128607039D02*
X110403547Y-129846703D01*
X110403547Y-129846703D02*
X110472126Y-130644898D01*
X110472126Y-130644898D02*
X110189381Y-130842682D01*
X110189381Y-130842682D02*
X109546513Y-130440831D01*
X109546513Y-130440831D02*
X109038801Y-129967058D01*
X109038801Y-129967058D02*
X108297548Y-128765295D01*
X108297548Y-128765295D02*
X108110934Y-127344610D01*
X108110934Y-127344610D02*
X108497209Y-125944439D01*
X108497209Y-125944439D02*
X108705663Y-125595743D01*
X108705663Y-125595743D02*
X109353657Y-124769905D01*
X109353657Y-124769905D02*
X110011648Y-124354465D01*
X110011648Y-124354465D02*
X110961635Y-124211715D01*
X110961635Y-124211715D02*
X111564369Y-124199733D01*
X111564369Y-124199733D02*
X112845937Y-124425034D01*
X112845937Y-124425034D02*
X113935568Y-125020418D01*
X113935568Y-125020418D02*
X114643906Y-125851053D01*
X114643906Y-125851053D02*
X114811528Y-126511924D01*
X114811528Y-126511924D02*
X115753793Y-126511924D01*
X115753793Y-126511924D02*
X115728398Y-126092615D01*
X115728398Y-126092615D02*
X115731714Y-125408971D01*
X115731714Y-125408971D02*
X115773807Y-125252664D01*
X115773807Y-125252664D02*
X116105719Y-125449096D01*
X116105719Y-125449096D02*
X116821634Y-125957374D01*
X116821634Y-125957374D02*
X117529382Y-126487484D01*
X117529382Y-126487484D02*
X118802880Y-127347297D01*
X118802880Y-127347297D02*
X120074139Y-127917658D01*
X120074139Y-127917658D02*
X121514704Y-128235665D01*
X121514704Y-128235665D02*
X123296120Y-128338411D01*
X123296120Y-128338411D02*
X125589932Y-128262994D01*
X125589932Y-128262994D02*
X125707746Y-128256018D01*
X125707746Y-128256018D02*
X127915722Y-128173803D01*
X127915722Y-128173803D02*
X129615883Y-128236287D01*
X129615883Y-128236287D02*
X130992811Y-128452525D01*
X130992811Y-128452525D02*
X131303889Y-128530514D01*
X131303889Y-128530514D02*
X132388511Y-128793973D01*
X132388511Y-128793973D02*
X132953496Y-128834154D01*
X132953496Y-128834154D02*
X133147733Y-128653356D01*
X133147733Y-128653356D02*
X133155972Y-128559097D01*
X133155972Y-128559097D02*
X132856739Y-128125629D01*
X132856739Y-128125629D02*
X132362222Y-127913513D01*
X132362222Y-127913513D02*
X130802215Y-127603351D01*
X130802215Y-127603351D02*
X129353888Y-127373955D01*
X129353888Y-127373955D02*
X128189593Y-127247294D01*
X128189593Y-127247294D02*
X127481681Y-127245333D01*
X127481681Y-127245333D02*
X127374273Y-127277770D01*
X127374273Y-127277770D02*
X126896881Y-127360704D01*
X126896881Y-127360704D02*
X125898407Y-127412185D01*
X125898407Y-127412185D02*
X124562923Y-127424534D01*
X124562923Y-127424534D02*
X124020937Y-127417661D01*
X124020937Y-127417661D02*
X122305207Y-127323519D01*
X122305207Y-127323519D02*
X120956802Y-127052630D01*
X120956802Y-127052630D02*
X119746090Y-126512246D01*
X119746090Y-126512246D02*
X118443441Y-125609624D01*
X118443441Y-125609624D02*
X117381410Y-124736033D01*
X117381410Y-124736033D02*
X116729374Y-124185127D01*
X116729374Y-124185127D02*
X116439807Y-123942496D01*
X116439807Y-123942496D02*
X115834526Y-123684151D01*
X115834526Y-123684151D02*
X114770781Y-123439209D01*
X114770781Y-123439209D02*
X113654727Y-123281478D01*
X113654727Y-123281478D02*
X111387774Y-123248225D01*
X111387774Y-123248225D02*
X109632688Y-123682028D01*
X109632688Y-123682028D02*
X108354411Y-124604205D01*
X108354411Y-124604205D02*
X107517888Y-126036074D01*
X107517888Y-126036074D02*
X107202772Y-127204854D01*
X107202772Y-127204854D02*
X106904344Y-128135871D01*
X106904344Y-128135871D02*
X106296438Y-129083515D01*
X106296438Y-129083515D02*
X105261853Y-130218743D01*
X105261853Y-130218743D02*
X104879420Y-130593819D01*
X104879420Y-130593819D02*
X103915027Y-131590621D01*
X103915027Y-131590621D02*
X103191806Y-132464506D01*
X103191806Y-132464506D02*
X102834600Y-133060650D01*
X102834600Y-133060650D02*
X102817084Y-133151458D01*
X102817084Y-133151458D02*
X102682620Y-133715116D01*
X102682620Y-133715116D02*
X102353137Y-133731197D01*
X102353137Y-133731197D02*
X101939495Y-133287931D01*
X101939495Y-133287931D02*
X101552555Y-132473543D01*
X101552555Y-132473543D02*
X101425064Y-132043637D01*
X101425064Y-132043637D02*
X100625875Y-130196052D01*
X100625875Y-130196052D02*
X99724089Y-129045026D01*
X99724089Y-129045026D02*
X98625032Y-128089643D01*
X98625032Y-128089643D02*
X97752153Y-127756704D01*
X97752153Y-127756704D02*
X97037082Y-128027521D01*
X97037082Y-128027521D02*
X96819861Y-128251276D01*
X96819861Y-128251276D02*
X96234220Y-128734174D01*
X96234220Y-128734174D02*
X95803571Y-128533726D01*
X95803571Y-128533726D02*
X95567185Y-127986692D01*
X95567185Y-127986692D02*
X95128249Y-127066261D01*
X95128249Y-127066261D02*
X94749662Y-126540256D01*
X94749662Y-126540256D02*
X94370773Y-125742197D01*
X94370773Y-125742197D02*
X94109901Y-124318888D01*
X94109901Y-124318888D02*
X93997639Y-123012478D01*
X93997639Y-123012478D02*
X93821250Y-120137387D01*
X93821250Y-120137387D02*
X87824028Y-120088937D01*
X87824028Y-120088937D02*
X90734445Y-120215623D01*
X90734445Y-120215623D02*
X90734445Y-120215623D01*
G36*
X101144775Y-141893352D02*
G01*
X97835790Y-141642859D01*
X97593643Y-141624180D01*
X95846171Y-141451608D01*
X94696268Y-141231831D01*
X94047028Y-140921180D01*
X93851149Y-140565947D01*
X94350417Y-140565947D01*
X94402985Y-140785389D01*
X94737437Y-140996309D01*
X95500901Y-141100017D01*
X96830933Y-141127665D01*
X97466747Y-141118477D01*
X98782810Y-140984130D01*
X99476331Y-140658214D01*
X99598466Y-140100650D01*
X99200377Y-139271357D01*
X98951343Y-138678966D01*
X98684623Y-137544099D01*
X98517921Y-136222999D01*
X98488660Y-135852384D01*
X98319619Y-134627187D01*
X98029248Y-133850406D01*
X97548223Y-133314083D01*
X97456925Y-133241790D01*
X96583256Y-132743620D01*
X95984015Y-132761344D01*
X95761528Y-133295998D01*
X95711797Y-133646640D01*
X95347764Y-134344762D01*
X95322193Y-134371056D01*
X95110571Y-134880965D01*
X95347764Y-135666639D01*
X95622988Y-136424452D01*
X95679048Y-137832669D01*
X95055972Y-139107261D01*
X95055592Y-139107744D01*
X94557549Y-139906008D01*
X94350417Y-140565947D01*
X93851149Y-140565947D01*
X93801542Y-140475984D01*
X93862904Y-139852577D01*
X93922841Y-139574139D01*
X93831899Y-139116433D01*
X93221365Y-139010998D01*
X92741606Y-138972672D01*
X91885608Y-138596234D01*
X91170950Y-137730866D01*
X90491536Y-136270040D01*
X90259652Y-135641419D01*
X89986258Y-134585713D01*
X89942084Y-133522164D01*
X90094772Y-132111639D01*
X90222581Y-131335199D01*
X90799635Y-129323490D01*
X91667487Y-127901339D01*
X92854406Y-127016553D01*
X92931732Y-126979409D01*
X93644316Y-126483311D01*
X93815918Y-126017562D01*
X93807552Y-125991484D01*
X93725268Y-125370375D01*
X93666988Y-124282144D01*
X93644861Y-122945023D01*
X93644861Y-120342310D01*
X90734445Y-120215623D01*
X87824028Y-120088937D01*
X93821250Y-120137387D01*
X93997639Y-123012478D01*
X94109901Y-124318888D01*
X94370773Y-125742197D01*
X94749662Y-126540256D01*
X95128249Y-127066261D01*
X95567185Y-127986692D01*
X95803571Y-128533726D01*
X96234220Y-128734174D01*
X96819861Y-128251276D01*
X97037082Y-128027521D01*
X97752153Y-127756704D01*
X98625032Y-128089643D01*
X99724089Y-129045026D01*
X100625875Y-130196052D01*
X101425064Y-132043637D01*
X101552555Y-132473543D01*
X101939495Y-133287931D01*
X102353137Y-133731197D01*
X102682620Y-133715116D01*
X102817084Y-133151458D01*
X102834600Y-133060650D01*
X103191806Y-132464506D01*
X103915027Y-131590621D01*
X104879420Y-130593819D01*
X105261853Y-130218743D01*
X106296438Y-129083515D01*
X106904344Y-128135871D01*
X107157975Y-127344610D01*
X108110934Y-127344610D01*
X108297548Y-128765295D01*
X109038801Y-129967058D01*
X109546513Y-130440831D01*
X110189381Y-130842682D01*
X110472126Y-130644898D01*
X110403547Y-129846703D01*
X110309428Y-128607039D01*
X110745734Y-127557018D01*
X111814920Y-126662537D01*
X112057787Y-126513909D01*
X112771059Y-126152793D01*
X113286335Y-126158770D01*
X113913373Y-126509206D01*
X114470045Y-126851339D01*
X114757245Y-126884915D01*
X114811528Y-126511924D01*
X114643906Y-125851053D01*
X113935568Y-125020418D01*
X112845937Y-124425034D01*
X111564369Y-124199733D01*
X110961635Y-124211715D01*
X110011648Y-124354465D01*
X109353657Y-124769905D01*
X108705663Y-125595743D01*
X108497209Y-125944439D01*
X108110934Y-127344610D01*
X107157975Y-127344610D01*
X107202772Y-127204854D01*
X107517888Y-126036074D01*
X108354411Y-124604205D01*
X109632688Y-123682028D01*
X111387774Y-123248225D01*
X113654727Y-123281478D01*
X114770781Y-123439209D01*
X115834526Y-123684151D01*
X116439807Y-123942496D01*
X116729374Y-124185127D01*
X117381410Y-124736033D01*
X118443441Y-125609624D01*
X119746090Y-126512246D01*
X120956802Y-127052630D01*
X122305207Y-127323519D01*
X124020937Y-127417661D01*
X124562923Y-127424534D01*
X125898407Y-127412185D01*
X126896881Y-127360704D01*
X127374273Y-127277770D01*
X127481681Y-127245333D01*
X128189593Y-127247294D01*
X129353888Y-127373955D01*
X130802215Y-127603351D01*
X132362222Y-127913513D01*
X132856739Y-128125629D01*
X133155972Y-128559097D01*
X133147733Y-128653356D01*
X132953496Y-128834154D01*
X132388511Y-128793973D01*
X131303889Y-128530514D01*
X130992811Y-128452525D01*
X129615883Y-128236287D01*
X127915722Y-128173803D01*
X125707746Y-128256018D01*
X125589932Y-128262994D01*
X123296120Y-128338411D01*
X121514704Y-128235665D01*
X120074139Y-127917658D01*
X118802880Y-127347297D01*
X117529382Y-126487484D01*
X116821634Y-125957374D01*
X116105719Y-125449096D01*
X115773807Y-125252664D01*
X115731714Y-125408971D01*
X115728398Y-126092615D01*
X115753793Y-126511924D01*
X115791542Y-127135238D01*
X115821323Y-128149144D01*
X115509146Y-129819723D01*
X114670682Y-131070544D01*
X113269358Y-131971736D01*
X112459339Y-132278596D01*
X111244194Y-132431069D01*
X110066821Y-132076343D01*
X108709695Y-131176479D01*
X108122197Y-130729107D01*
X107516086Y-130379468D01*
X107049405Y-130392645D01*
X106475769Y-130718080D01*
X106125567Y-130964891D01*
X105188767Y-131701874D01*
X104199129Y-132552836D01*
X103462380Y-133287648D01*
X102955683Y-134098817D01*
X102817084Y-134982828D01*
X102586063Y-136107876D01*
X101738198Y-137393008D01*
X101507988Y-137662184D01*
X100837939Y-138673165D01*
X100651384Y-139649077D01*
X100731974Y-140100650D01*
X100873405Y-140893147D01*
X101144775Y-141893352D01*
G37*
X101144775Y-141893352D02*
X97835790Y-141642859D01*
X97593643Y-141624180D01*
X95846171Y-141451608D01*
X94696268Y-141231831D01*
X94047028Y-140921180D01*
X93851149Y-140565947D01*
X94350417Y-140565947D01*
X94402985Y-140785389D01*
X94737437Y-140996309D01*
X95500901Y-141100017D01*
X96830933Y-141127665D01*
X97466747Y-141118477D01*
X98782810Y-140984130D01*
X99476331Y-140658214D01*
X99598466Y-140100650D01*
X99200377Y-139271357D01*
X98951343Y-138678966D01*
X98684623Y-137544099D01*
X98517921Y-136222999D01*
X98488660Y-135852384D01*
X98319619Y-134627187D01*
X98029248Y-133850406D01*
X97548223Y-133314083D01*
X97456925Y-133241790D01*
X96583256Y-132743620D01*
X95984015Y-132761344D01*
X95761528Y-133295998D01*
X95711797Y-133646640D01*
X95347764Y-134344762D01*
X95322193Y-134371056D01*
X95110571Y-134880965D01*
X95347764Y-135666639D01*
X95622988Y-136424452D01*
X95679048Y-137832669D01*
X95055972Y-139107261D01*
X95055592Y-139107744D01*
X94557549Y-139906008D01*
X94350417Y-140565947D01*
X93851149Y-140565947D01*
X93801542Y-140475984D01*
X93862904Y-139852577D01*
X93922841Y-139574139D01*
X93831899Y-139116433D01*
X93221365Y-139010998D01*
X92741606Y-138972672D01*
X91885608Y-138596234D01*
X91170950Y-137730866D01*
X90491536Y-136270040D01*
X90259652Y-135641419D01*
X89986258Y-134585713D01*
X89942084Y-133522164D01*
X90094772Y-132111639D01*
X90222581Y-131335199D01*
X90799635Y-129323490D01*
X91667487Y-127901339D01*
X92854406Y-127016553D01*
X92931732Y-126979409D01*
X93644316Y-126483311D01*
X93815918Y-126017562D01*
X93807552Y-125991484D01*
X93725268Y-125370375D01*
X93666988Y-124282144D01*
X93644861Y-122945023D01*
X93644861Y-120342310D01*
X90734445Y-120215623D01*
X87824028Y-120088937D01*
X93821250Y-120137387D01*
X93997639Y-123012478D01*
X94109901Y-124318888D01*
X94370773Y-125742197D01*
X94749662Y-126540256D01*
X95128249Y-127066261D01*
X95567185Y-127986692D01*
X95803571Y-128533726D01*
X96234220Y-128734174D01*
X96819861Y-128251276D01*
X97037082Y-128027521D01*
X97752153Y-127756704D01*
X98625032Y-128089643D01*
X99724089Y-129045026D01*
X100625875Y-130196052D01*
X101425064Y-132043637D01*
X101552555Y-132473543D01*
X101939495Y-133287931D01*
X102353137Y-133731197D01*
X102682620Y-133715116D01*
X102817084Y-133151458D01*
X102834600Y-133060650D01*
X103191806Y-132464506D01*
X103915027Y-131590621D01*
X104879420Y-130593819D01*
X105261853Y-130218743D01*
X106296438Y-129083515D01*
X106904344Y-128135871D01*
X107157975Y-127344610D01*
X108110934Y-127344610D01*
X108297548Y-128765295D01*
X109038801Y-129967058D01*
X109546513Y-130440831D01*
X110189381Y-130842682D01*
X110472126Y-130644898D01*
X110403547Y-129846703D01*
X110309428Y-128607039D01*
X110745734Y-127557018D01*
X111814920Y-126662537D01*
X112057787Y-126513909D01*
X112771059Y-126152793D01*
X113286335Y-126158770D01*
X113913373Y-126509206D01*
X114470045Y-126851339D01*
X114757245Y-126884915D01*
X114811528Y-126511924D01*
X114643906Y-125851053D01*
X113935568Y-125020418D01*
X112845937Y-124425034D01*
X111564369Y-124199733D01*
X110961635Y-124211715D01*
X110011648Y-124354465D01*
X109353657Y-124769905D01*
X108705663Y-125595743D01*
X108497209Y-125944439D01*
X108110934Y-127344610D01*
X107157975Y-127344610D01*
X107202772Y-127204854D01*
X107517888Y-126036074D01*
X108354411Y-124604205D01*
X109632688Y-123682028D01*
X111387774Y-123248225D01*
X113654727Y-123281478D01*
X114770781Y-123439209D01*
X115834526Y-123684151D01*
X116439807Y-123942496D01*
X116729374Y-124185127D01*
X117381410Y-124736033D01*
X118443441Y-125609624D01*
X119746090Y-126512246D01*
X120956802Y-127052630D01*
X122305207Y-127323519D01*
X124020937Y-127417661D01*
X124562923Y-127424534D01*
X125898407Y-127412185D01*
X126896881Y-127360704D01*
X127374273Y-127277770D01*
X127481681Y-127245333D01*
X128189593Y-127247294D01*
X129353888Y-127373955D01*
X130802215Y-127603351D01*
X132362222Y-127913513D01*
X132856739Y-128125629D01*
X133155972Y-128559097D01*
X133147733Y-128653356D01*
X132953496Y-128834154D01*
X132388511Y-128793973D01*
X131303889Y-128530514D01*
X130992811Y-128452525D01*
X129615883Y-128236287D01*
X127915722Y-128173803D01*
X125707746Y-128256018D01*
X125589932Y-128262994D01*
X123296120Y-128338411D01*
X121514704Y-128235665D01*
X120074139Y-127917658D01*
X118802880Y-127347297D01*
X117529382Y-126487484D01*
X116821634Y-125957374D01*
X116105719Y-125449096D01*
X115773807Y-125252664D01*
X115731714Y-125408971D01*
X115728398Y-126092615D01*
X115753793Y-126511924D01*
X115791542Y-127135238D01*
X115821323Y-128149144D01*
X115509146Y-129819723D01*
X114670682Y-131070544D01*
X113269358Y-131971736D01*
X112459339Y-132278596D01*
X111244194Y-132431069D01*
X110066821Y-132076343D01*
X108709695Y-131176479D01*
X108122197Y-130729107D01*
X107516086Y-130379468D01*
X107049405Y-130392645D01*
X106475769Y-130718080D01*
X106125567Y-130964891D01*
X105188767Y-131701874D01*
X104199129Y-132552836D01*
X103462380Y-133287648D01*
X102955683Y-134098817D01*
X102817084Y-134982828D01*
X102586063Y-136107876D01*
X101738198Y-137393008D01*
X101507988Y-137662184D01*
X100837939Y-138673165D01*
X100651384Y-139649077D01*
X100731974Y-140100650D01*
X100873405Y-140893147D01*
X101144775Y-141893352D01*
X126976829Y-129886748D02*
X126123421Y-130301025D01*
X126123421Y-130301025D02*
X125104602Y-131051981D01*
X125104602Y-131051981D02*
X124530368Y-131584793D01*
X124530368Y-131584793D02*
X123713904Y-132502954D01*
X123713904Y-132502954D02*
X123271325Y-133320210D01*
X123271325Y-133320210D02*
X123061030Y-134358478D01*
X123061030Y-134358478D02*
X122998242Y-135067947D01*
X122998242Y-135067947D02*
X122946129Y-136285270D01*
X122946129Y-136285270D02*
X123064097Y-137088984D01*
X123064097Y-137088984D02*
X123433857Y-137765481D01*
X123433857Y-137765481D02*
X123943941Y-138382593D01*
X123943941Y-138382593D02*
X125409974Y-139547750D01*
X125409974Y-139547750D02*
X127158198Y-140103713D01*
X127158198Y-140103713D02*
X128917563Y-140029998D01*
X128917563Y-140029998D02*
X130376025Y-139381141D01*
X130376025Y-139381141D02*
X131481694Y-138133468D01*
X131481694Y-138133468D02*
X132218104Y-136308399D01*
X132218104Y-136308399D02*
X132389877Y-135512842D01*
X132389877Y-135512842D02*
X132509338Y-134544885D01*
X132509338Y-134544885D02*
X131744861Y-134544885D01*
X131744861Y-134544885D02*
X131683293Y-135636472D01*
X131683293Y-135636472D02*
X131407522Y-136426789D01*
X131407522Y-136426789D02*
X130780948Y-137224669D01*
X130780948Y-137224669D02*
X130375254Y-137641390D01*
X130375254Y-137641390D02*
X129138371Y-138636990D01*
X129138371Y-138636990D02*
X127966491Y-138996933D01*
X127966491Y-138996933D02*
X126695730Y-138752961D01*
X126695730Y-138752961D02*
X126082898Y-138472772D01*
X126082898Y-138472772D02*
X125268608Y-137928416D01*
X125268608Y-137928416D02*
X125103179Y-137510764D01*
X125103179Y-137510764D02*
X125588016Y-137277097D01*
X125588016Y-137277097D02*
X126052842Y-137247109D01*
X126052842Y-137247109D02*
X127175058Y-136992713D01*
X127175058Y-136992713D02*
X128163342Y-136346796D01*
X128163342Y-136346796D02*
X128799978Y-135485261D01*
X128799978Y-135485261D02*
X128922639Y-134928449D01*
X128922639Y-134928449D02*
X128798598Y-134277821D01*
X128798598Y-134277821D02*
X128569861Y-134072109D01*
X128569861Y-134072109D02*
X128325085Y-133764820D01*
X128325085Y-133764820D02*
X128217326Y-133021280D01*
X128217326Y-133021280D02*
X128217084Y-132980749D01*
X128217084Y-132980749D02*
X128062758Y-132105855D01*
X128062758Y-132105855D02*
X127538050Y-131712088D01*
X127538050Y-131712088D02*
X127511528Y-131704882D01*
X127511528Y-131704882D02*
X126890489Y-131386228D01*
X126890489Y-131386228D02*
X126953956Y-131004718D01*
X126953956Y-131004718D02*
X127517067Y-130718962D01*
X127517067Y-130718962D02*
X128542870Y-130684169D01*
X128542870Y-130684169D02*
X129744428Y-131027409D01*
X129744428Y-131027409D02*
X130795972Y-131630446D01*
X130795972Y-131630446D02*
X131214601Y-132060935D01*
X131214601Y-132060935D02*
X131540729Y-132884126D01*
X131540729Y-132884126D02*
X131726546Y-134060029D01*
X131726546Y-134060029D02*
X131744861Y-134544885D01*
X131744861Y-134544885D02*
X132509338Y-134544885D01*
X132509338Y-134544885D02*
X132562420Y-134114781D01*
X132562420Y-134114781D02*
X132562337Y-132998141D01*
X132562337Y-132998141D02*
X132473035Y-132556812D01*
X132473035Y-132556812D02*
X131647619Y-131319559D01*
X131647619Y-131319559D02*
X130360413Y-130381328D01*
X130360413Y-130381328D02*
X128828048Y-129847360D01*
X128828048Y-129847360D02*
X127267155Y-129822894D01*
X127267155Y-129822894D02*
X126976829Y-129886748D01*
X126976829Y-129886748D02*
X126976829Y-129886748D01*
G36*
X132218104Y-136308399D02*
G01*
X131481694Y-138133468D01*
X130376025Y-139381141D01*
X128917563Y-140029998D01*
X127158198Y-140103713D01*
X125409974Y-139547750D01*
X123943941Y-138382593D01*
X123433857Y-137765481D01*
X123294634Y-137510764D01*
X125103179Y-137510764D01*
X125268608Y-137928416D01*
X126082898Y-138472772D01*
X126695730Y-138752961D01*
X127966491Y-138996933D01*
X129138371Y-138636990D01*
X130375254Y-137641390D01*
X130780948Y-137224669D01*
X131407522Y-136426789D01*
X131683293Y-135636472D01*
X131744861Y-134544885D01*
X131726546Y-134060029D01*
X131540729Y-132884126D01*
X131214601Y-132060935D01*
X130795972Y-131630446D01*
X129744428Y-131027409D01*
X128542870Y-130684169D01*
X127517067Y-130718962D01*
X126953956Y-131004718D01*
X126890489Y-131386228D01*
X127511528Y-131704882D01*
X127538050Y-131712088D01*
X128062758Y-132105855D01*
X128217084Y-132980749D01*
X128217326Y-133021280D01*
X128325085Y-133764820D01*
X128569861Y-134072109D01*
X128798598Y-134277821D01*
X128922639Y-134928449D01*
X128799978Y-135485261D01*
X128163342Y-136346796D01*
X127175058Y-136992713D01*
X126052842Y-137247109D01*
X125588016Y-137277097D01*
X125103179Y-137510764D01*
X123294634Y-137510764D01*
X123064097Y-137088984D01*
X122946129Y-136285270D01*
X122998242Y-135067947D01*
X123061030Y-134358478D01*
X123271325Y-133320210D01*
X123713904Y-132502954D01*
X124530368Y-131584793D01*
X125104602Y-131051981D01*
X126123421Y-130301025D01*
X126976829Y-129886748D01*
X127267155Y-129822894D01*
X128828048Y-129847360D01*
X130360413Y-130381328D01*
X131647619Y-131319559D01*
X132473035Y-132556812D01*
X132562337Y-132998141D01*
X132562420Y-134114781D01*
X132509338Y-134544885D01*
X132389877Y-135512842D01*
X132218104Y-136308399D01*
G37*
X132218104Y-136308399D02*
X131481694Y-138133468D01*
X130376025Y-139381141D01*
X128917563Y-140029998D01*
X127158198Y-140103713D01*
X125409974Y-139547750D01*
X123943941Y-138382593D01*
X123433857Y-137765481D01*
X123294634Y-137510764D01*
X125103179Y-137510764D01*
X125268608Y-137928416D01*
X126082898Y-138472772D01*
X126695730Y-138752961D01*
X127966491Y-138996933D01*
X129138371Y-138636990D01*
X130375254Y-137641390D01*
X130780948Y-137224669D01*
X131407522Y-136426789D01*
X131683293Y-135636472D01*
X131744861Y-134544885D01*
X131726546Y-134060029D01*
X131540729Y-132884126D01*
X131214601Y-132060935D01*
X130795972Y-131630446D01*
X129744428Y-131027409D01*
X128542870Y-130684169D01*
X127517067Y-130718962D01*
X126953956Y-131004718D01*
X126890489Y-131386228D01*
X127511528Y-131704882D01*
X127538050Y-131712088D01*
X128062758Y-132105855D01*
X128217084Y-132980749D01*
X128217326Y-133021280D01*
X128325085Y-133764820D01*
X128569861Y-134072109D01*
X128798598Y-134277821D01*
X128922639Y-134928449D01*
X128799978Y-135485261D01*
X128163342Y-136346796D01*
X127175058Y-136992713D01*
X126052842Y-137247109D01*
X125588016Y-137277097D01*
X125103179Y-137510764D01*
X123294634Y-137510764D01*
X123064097Y-137088984D01*
X122946129Y-136285270D01*
X122998242Y-135067947D01*
X123061030Y-134358478D01*
X123271325Y-133320210D01*
X123713904Y-132502954D01*
X124530368Y-131584793D01*
X125104602Y-131051981D01*
X126123421Y-130301025D01*
X126976829Y-129886748D01*
X127267155Y-129822894D01*
X128828048Y-129847360D01*
X130360413Y-130381328D01*
X131647619Y-131319559D01*
X132473035Y-132556812D01*
X132562337Y-132998141D01*
X132562420Y-134114781D01*
X132509338Y-134544885D01*
X132389877Y-135512842D01*
X132218104Y-136308399D01*
X99642084Y-128251276D02*
X99818473Y-128427664D01*
X99818473Y-128427664D02*
X99994861Y-128251276D01*
X99994861Y-128251276D02*
X99818473Y-128074887D01*
X99818473Y-128074887D02*
X99642084Y-128251276D01*
X99642084Y-128251276D02*
X99642084Y-128251276D01*
G36*
X99994861Y-128251276D02*
G01*
X99818473Y-128427664D01*
X99642084Y-128251276D01*
X99818473Y-128074887D01*
X99994861Y-128251276D01*
G37*
X99994861Y-128251276D02*
X99818473Y-128427664D01*
X99642084Y-128251276D01*
X99818473Y-128074887D01*
X99994861Y-128251276D01*
X96434007Y-103251012D02*
X95250924Y-103342113D01*
X95250924Y-103342113D02*
X94347419Y-103485199D01*
X94347419Y-103485199D02*
X93940478Y-103649270D01*
X93940478Y-103649270D02*
X93834410Y-104084359D01*
X93834410Y-104084359D02*
X93732631Y-105089120D01*
X93732631Y-105089120D02*
X93644884Y-106527690D01*
X93644884Y-106527690D02*
X93580910Y-108264206D01*
X93580910Y-108264206D02*
X93567150Y-108855654D01*
X93567150Y-108855654D02*
X93468472Y-113787387D01*
X93468472Y-113787387D02*
X87824028Y-114202851D01*
X87824028Y-114202851D02*
X93821250Y-114140165D01*
X93821250Y-114140165D02*
X94130617Y-108922141D01*
X94130617Y-108922141D02*
X94439984Y-103704118D01*
X94439984Y-103704118D02*
X96952840Y-103806863D01*
X96952840Y-103806863D02*
X99465695Y-103909609D01*
X99465695Y-103909609D02*
X99659473Y-108760053D01*
X99659473Y-108760053D02*
X99753960Y-110554530D01*
X99753960Y-110554530D02*
X99878237Y-112100757D01*
X99878237Y-112100757D02*
X100017897Y-113259167D01*
X100017897Y-113259167D02*
X100158534Y-113890193D01*
X100158534Y-113890193D02*
X100195472Y-113952720D01*
X100195472Y-113952720D02*
X100658136Y-114085846D01*
X100658136Y-114085846D02*
X101685080Y-114210207D01*
X101685080Y-114210207D02*
X103135040Y-114313575D01*
X103135040Y-114313575D02*
X104866749Y-114383723D01*
X104866749Y-114383723D02*
X105293361Y-114393942D01*
X105293361Y-114393942D02*
X110049028Y-114492942D01*
X110049028Y-114492942D02*
X110049028Y-119784609D01*
X110049028Y-119784609D02*
X100056616Y-119979993D01*
X100056616Y-119979993D02*
X99806312Y-122984865D01*
X99806312Y-122984865D02*
X99707710Y-124480376D01*
X99707710Y-124480376D02*
X99687214Y-125539521D01*
X99687214Y-125539521D02*
X99734273Y-126105508D01*
X99734273Y-126105508D02*
X99838333Y-126121547D01*
X99838333Y-126121547D02*
X99988843Y-125530845D01*
X99988843Y-125530845D02*
X100121992Y-124683798D01*
X100121992Y-124683798D02*
X100265317Y-123328883D01*
X100265317Y-123328883D02*
X100343037Y-121992373D01*
X100343037Y-121992373D02*
X100347639Y-121687751D01*
X100347639Y-121687751D02*
X100347639Y-120337980D01*
X100347639Y-120337980D02*
X105462917Y-120478348D01*
X105462917Y-120478348D02*
X110578195Y-120618717D01*
X110578195Y-120618717D02*
X110634090Y-118084996D01*
X110634090Y-118084996D02*
X110657082Y-116238993D01*
X110657082Y-116238993D02*
X110626626Y-115006192D01*
X110626626Y-115006192D02*
X110538038Y-114295926D01*
X110538038Y-114295926D02*
X110425450Y-114046216D01*
X110425450Y-114046216D02*
X110042045Y-113987292D01*
X110042045Y-113987292D02*
X109084972Y-113920574D01*
X109084972Y-113920574D02*
X107685961Y-113853161D01*
X107685961Y-113853161D02*
X105976742Y-113792154D01*
X105976742Y-113792154D02*
X105405973Y-113775693D01*
X105405973Y-113775693D02*
X100524028Y-113642701D01*
X100524028Y-113642701D02*
X100302488Y-108776155D01*
X100302488Y-108776155D02*
X100218664Y-106972074D01*
X100218664Y-106972074D02*
X100142855Y-105408937D01*
X100142855Y-105408937D02*
X100082161Y-104228306D01*
X100082161Y-104228306D02*
X100043683Y-103571739D01*
X100043683Y-103571739D02*
X100037904Y-103501536D01*
X100037904Y-103501536D02*
X99698618Y-103337158D01*
X99698618Y-103337158D02*
X98854065Y-103243780D01*
X98854065Y-103243780D02*
X97700458Y-103216649D01*
X97700458Y-103216649D02*
X96434007Y-103251012D01*
X96434007Y-103251012D02*
X96434007Y-103251012D01*
G36*
X98854065Y-103243780D02*
G01*
X99698618Y-103337158D01*
X100037904Y-103501536D01*
X100043683Y-103571739D01*
X100082161Y-104228306D01*
X100142855Y-105408937D01*
X100218664Y-106972074D01*
X100302488Y-108776155D01*
X100524028Y-113642701D01*
X105405973Y-113775693D01*
X105976742Y-113792154D01*
X107685961Y-113853161D01*
X109084972Y-113920574D01*
X110042045Y-113987292D01*
X110425450Y-114046216D01*
X110538038Y-114295926D01*
X110626626Y-115006192D01*
X110657082Y-116238993D01*
X110634090Y-118084996D01*
X110578195Y-120618717D01*
X105462917Y-120478348D01*
X100347639Y-120337980D01*
X100347639Y-121687751D01*
X100343037Y-121992373D01*
X100265317Y-123328883D01*
X100121992Y-124683798D01*
X99988843Y-125530845D01*
X99838333Y-126121547D01*
X99734273Y-126105508D01*
X99687214Y-125539521D01*
X99707710Y-124480376D01*
X99806312Y-122984865D01*
X100056616Y-119979993D01*
X110049028Y-119784609D01*
X110049028Y-114492942D01*
X105293361Y-114393942D01*
X104866749Y-114383723D01*
X103135040Y-114313575D01*
X101685080Y-114210207D01*
X100658136Y-114085846D01*
X100195472Y-113952720D01*
X100158534Y-113890193D01*
X100017897Y-113259167D01*
X99878237Y-112100757D01*
X99753960Y-110554530D01*
X99659473Y-108760053D01*
X99465695Y-103909609D01*
X96952840Y-103806863D01*
X94439984Y-103704118D01*
X94130617Y-108922141D01*
X93821250Y-114140165D01*
X87824028Y-114202851D01*
X93468472Y-113787387D01*
X93567150Y-108855654D01*
X93580910Y-108264206D01*
X93644884Y-106527690D01*
X93732631Y-105089120D01*
X93834410Y-104084359D01*
X93940478Y-103649270D01*
X94347419Y-103485199D01*
X95250924Y-103342113D01*
X96434007Y-103251012D01*
X97700458Y-103216649D01*
X98854065Y-103243780D01*
G37*
X98854065Y-103243780D02*
X99698618Y-103337158D01*
X100037904Y-103501536D01*
X100043683Y-103571739D01*
X100082161Y-104228306D01*
X100142855Y-105408937D01*
X100218664Y-106972074D01*
X100302488Y-108776155D01*
X100524028Y-113642701D01*
X105405973Y-113775693D01*
X105976742Y-113792154D01*
X107685961Y-113853161D01*
X109084972Y-113920574D01*
X110042045Y-113987292D01*
X110425450Y-114046216D01*
X110538038Y-114295926D01*
X110626626Y-115006192D01*
X110657082Y-116238993D01*
X110634090Y-118084996D01*
X110578195Y-120618717D01*
X105462917Y-120478348D01*
X100347639Y-120337980D01*
X100347639Y-121687751D01*
X100343037Y-121992373D01*
X100265317Y-123328883D01*
X100121992Y-124683798D01*
X99988843Y-125530845D01*
X99838333Y-126121547D01*
X99734273Y-126105508D01*
X99687214Y-125539521D01*
X99707710Y-124480376D01*
X99806312Y-122984865D01*
X100056616Y-119979993D01*
X110049028Y-119784609D01*
X110049028Y-114492942D01*
X105293361Y-114393942D01*
X104866749Y-114383723D01*
X103135040Y-114313575D01*
X101685080Y-114210207D01*
X100658136Y-114085846D01*
X100195472Y-113952720D01*
X100158534Y-113890193D01*
X100017897Y-113259167D01*
X99878237Y-112100757D01*
X99753960Y-110554530D01*
X99659473Y-108760053D01*
X99465695Y-103909609D01*
X96952840Y-103806863D01*
X94439984Y-103704118D01*
X94130617Y-108922141D01*
X93821250Y-114140165D01*
X87824028Y-114202851D01*
X93468472Y-113787387D01*
X93567150Y-108855654D01*
X93580910Y-108264206D01*
X93644884Y-106527690D01*
X93732631Y-105089120D01*
X93834410Y-104084359D01*
X93940478Y-103649270D01*
X94347419Y-103485199D01*
X95250924Y-103342113D01*
X96434007Y-103251012D01*
X97700458Y-103216649D01*
X98854065Y-103243780D01*
%TD*%
M02*
