%TF.GenerationSoftware,KiCad,Pcbnew,(5.99.0-12305-g62f7a09290)*%
%TF.CreationDate,2021-10-11T18:46:27-07:00*%
%TF.ProjectId,vive_ups,76697665-5f75-4707-932e-6b696361645f,rev?*%
%TF.SameCoordinates,Original*%
%TF.FileFunction,Paste,Top*%
%TF.FilePolarity,Positive*%
%FSLAX46Y46*%
G04 Gerber Fmt 4.6, Leading zero omitted, Abs format (unit mm)*
G04 Created by KiCad (PCBNEW (5.99.0-12305-g62f7a09290)) date 2021-10-11 18:46:27*
%MOMM*%
%LPD*%
G01*
G04 APERTURE LIST*
G04 Aperture macros list*
%AMRoundRect*
0 Rectangle with rounded corners*
0 $1 Rounding radius*
0 $2 $3 $4 $5 $6 $7 $8 $9 X,Y pos of 4 corners*
0 Add a 4 corners polygon primitive as box body*
4,1,4,$2,$3,$4,$5,$6,$7,$8,$9,$2,$3,0*
0 Add four circle primitives for the rounded corners*
1,1,$1+$1,$2,$3*
1,1,$1+$1,$4,$5*
1,1,$1+$1,$6,$7*
1,1,$1+$1,$8,$9*
0 Add four rect primitives between the rounded corners*
20,1,$1+$1,$2,$3,$4,$5,0*
20,1,$1+$1,$4,$5,$6,$7,0*
20,1,$1+$1,$6,$7,$8,$9,0*
20,1,$1+$1,$8,$9,$2,$3,0*%
G04 Aperture macros list end*
%ADD10RoundRect,0.237500X0.237500X-0.300000X0.237500X0.300000X-0.237500X0.300000X-0.237500X-0.300000X0*%
%ADD11RoundRect,0.237500X-0.237500X0.250000X-0.237500X-0.250000X0.237500X-0.250000X0.237500X0.250000X0*%
%ADD12R,1.000000X1.000000*%
%ADD13RoundRect,0.237500X0.237500X-0.287500X0.237500X0.287500X-0.237500X0.287500X-0.237500X-0.287500X0*%
%ADD14RoundRect,0.249996X0.680004X-0.705004X0.680004X0.705004X-0.680004X0.705004X-0.680004X-0.705004X0*%
%ADD15RoundRect,0.175000X0.175000X-1.250000X0.175000X1.250000X-0.175000X1.250000X-0.175000X-1.250000X0*%
%ADD16RoundRect,0.237500X-0.250000X-0.237500X0.250000X-0.237500X0.250000X0.237500X-0.250000X0.237500X0*%
%ADD17O,0.950000X1.250000*%
%ADD18R,1.550000X1.200000*%
%ADD19O,1.550000X0.890000*%
%ADD20R,1.550000X1.500000*%
%ADD21R,1.350000X0.400000*%
%ADD22R,1.560000X0.650000*%
%ADD23RoundRect,0.237500X0.237500X-0.250000X0.237500X0.250000X-0.237500X0.250000X-0.237500X-0.250000X0*%
%ADD24R,0.650000X1.220000*%
%ADD25RoundRect,0.237500X0.250000X0.237500X-0.250000X0.237500X-0.250000X-0.237500X0.250000X-0.237500X0*%
%ADD26R,1.800000X0.800000*%
%ADD27RoundRect,0.237500X0.300000X0.237500X-0.300000X0.237500X-0.300000X-0.237500X0.300000X-0.237500X0*%
%ADD28RoundRect,0.237500X-0.237500X0.300000X-0.237500X-0.300000X0.237500X-0.300000X0.237500X0.300000X0*%
G04 APERTURE END LIST*
D10*
%TO.C,C1*%
X94386400Y-103480700D03*
X94386400Y-105205700D03*
%TD*%
D11*
%TO.C,R14*%
X81534000Y-103274500D03*
X81534000Y-101449500D03*
%TD*%
D12*
%TO.C,D4*%
X134142800Y-103987600D03*
X131642800Y-103987600D03*
%TD*%
D13*
%TO.C,D1*%
X81534000Y-95645000D03*
X81534000Y-97395000D03*
%TD*%
D14*
%TO.C,U5*%
X108933000Y-113541000D03*
X106713000Y-113541000D03*
X108933000Y-115821000D03*
X106713000Y-115821000D03*
D15*
X105918000Y-110531000D03*
X107188000Y-110531000D03*
X108458000Y-110531000D03*
X109728000Y-110531000D03*
X109728000Y-118831000D03*
X108458000Y-118831000D03*
X107188000Y-118831000D03*
X105918000Y-118831000D03*
%TD*%
D16*
%TO.C,R10*%
X92720800Y-105867200D03*
X90895800Y-105867200D03*
%TD*%
D17*
%TO.C,J2*%
X138071400Y-98058600D03*
X138071400Y-103058600D03*
D18*
X140771400Y-97658600D03*
X140771400Y-103458600D03*
D19*
X140771400Y-97058600D03*
D20*
X140771400Y-99558600D03*
X140771400Y-101558600D03*
D19*
X140771400Y-104058600D03*
D21*
X138071400Y-99258600D03*
X138071400Y-99908600D03*
X138071400Y-100558600D03*
X138071400Y-101208600D03*
X138071400Y-101858600D03*
%TD*%
D22*
%TO.C,U2*%
X100600500Y-116840000D03*
X100600500Y-115890000D03*
X100600500Y-117790000D03*
X97900500Y-117790000D03*
X97900500Y-116840000D03*
X97900500Y-115890000D03*
%TD*%
D16*
%TO.C,R5*%
X109370500Y-121539000D03*
X107545500Y-121539000D03*
%TD*%
D23*
%TO.C,R4*%
X131064000Y-99163500D03*
X131064000Y-100988500D03*
%TD*%
D11*
%TO.C,R3*%
X134239000Y-100988500D03*
X134239000Y-99163500D03*
%TD*%
D13*
%TO.C,D3*%
X131064000Y-95504000D03*
X131064000Y-97254000D03*
%TD*%
%TO.C,D2*%
X134112000Y-95504000D03*
X134112000Y-97254000D03*
%TD*%
D10*
%TO.C,C4*%
X110744000Y-106325500D03*
X110744000Y-108050500D03*
%TD*%
D22*
%TO.C,U3*%
X95393500Y-116840000D03*
X95393500Y-115890000D03*
X95393500Y-117790000D03*
X92693500Y-117790000D03*
X92693500Y-116840000D03*
X92693500Y-115890000D03*
%TD*%
D24*
%TO.C,U7*%
X125918000Y-99862000D03*
X124968000Y-99862000D03*
X124018000Y-99862000D03*
X124018000Y-97242000D03*
X124968000Y-97242000D03*
X125918000Y-97242000D03*
%TD*%
%TO.C,U6*%
X116266000Y-99862000D03*
X115316000Y-99862000D03*
X114366000Y-99862000D03*
X114366000Y-97242000D03*
X115316000Y-97242000D03*
X116266000Y-97242000D03*
%TD*%
D22*
%TO.C,U4*%
X87359500Y-116840000D03*
X87359500Y-117790000D03*
X87359500Y-115890000D03*
X90059500Y-115890000D03*
X90059500Y-116840000D03*
X90059500Y-117790000D03*
%TD*%
D23*
%TO.C,R12*%
X127762000Y-97639500D03*
X127762000Y-99464500D03*
%TD*%
%TO.C,R11*%
X118364000Y-97639500D03*
X118364000Y-99464500D03*
%TD*%
D11*
%TO.C,R9*%
X89077800Y-107795700D03*
X89077800Y-105970700D03*
%TD*%
%TO.C,R8*%
X87172800Y-107795700D03*
X87172800Y-105970700D03*
%TD*%
D23*
%TO.C,R7*%
X85140800Y-105970700D03*
X85140800Y-107795700D03*
%TD*%
D25*
%TO.C,R6*%
X91035500Y-109067600D03*
X92860500Y-109067600D03*
%TD*%
D16*
%TO.C,R2*%
X101052000Y-119888000D03*
X99227000Y-119888000D03*
%TD*%
D11*
%TO.C,R1*%
X103187500Y-116840000D03*
X103187500Y-115015000D03*
%TD*%
D26*
%TO.C,Q3*%
X126110000Y-103124000D03*
X122810000Y-104074000D03*
X122810000Y-102174000D03*
%TD*%
%TO.C,Q2*%
X117982000Y-103124000D03*
X114682000Y-104074000D03*
X114682000Y-102174000D03*
%TD*%
D27*
%TO.C,C8*%
X124105500Y-95504000D03*
X125830500Y-95504000D03*
%TD*%
%TO.C,C7*%
X114453500Y-95504000D03*
X116178500Y-95504000D03*
%TD*%
D10*
%TO.C,C6*%
X122428000Y-98197500D03*
X122428000Y-99922500D03*
%TD*%
D28*
%TO.C,C2*%
X103187500Y-120496500D03*
X103187500Y-118771500D03*
%TD*%
M02*
