%TF.GenerationSoftware,KiCad,Pcbnew,(5.99.0-12305-g62f7a09290)*%
%TF.CreationDate,2021-10-11T18:46:27-07:00*%
%TF.ProjectId,vive_ups,76697665-5f75-4707-932e-6b696361645f,rev?*%
%TF.SameCoordinates,Original*%
%TF.FileFunction,Soldermask,Top*%
%TF.FilePolarity,Negative*%
%FSLAX46Y46*%
G04 Gerber Fmt 4.6, Leading zero omitted, Abs format (unit mm)*
G04 Created by KiCad (PCBNEW (5.99.0-12305-g62f7a09290)) date 2021-10-11 18:46:27*
%MOMM*%
%LPD*%
G01*
G04 APERTURE LIST*
G04 Aperture macros list*
%AMRoundRect*
0 Rectangle with rounded corners*
0 $1 Rounding radius*
0 $2 $3 $4 $5 $6 $7 $8 $9 X,Y pos of 4 corners*
0 Add a 4 corners polygon primitive as box body*
4,1,4,$2,$3,$4,$5,$6,$7,$8,$9,$2,$3,0*
0 Add four circle primitives for the rounded corners*
1,1,$1+$1,$2,$3*
1,1,$1+$1,$4,$5*
1,1,$1+$1,$6,$7*
1,1,$1+$1,$8,$9*
0 Add four rect primitives between the rounded corners*
20,1,$1+$1,$2,$3,$4,$5,0*
20,1,$1+$1,$4,$5,$6,$7,0*
20,1,$1+$1,$6,$7,$8,$9,0*
20,1,$1+$1,$8,$9,$2,$3,0*%
%AMHorizOval*
0 Thick line with rounded ends*
0 $1 width*
0 $2 $3 position (X,Y) of the first rounded end (center of the circle)*
0 $4 $5 position (X,Y) of the second rounded end (center of the circle)*
0 Add line between two ends*
20,1,$1,$2,$3,$4,$5,0*
0 Add two circle primitives to create the rounded ends*
1,1,$1,$2,$3*
1,1,$1,$4,$5*%
G04 Aperture macros list end*
%ADD10C,0.300000*%
%ADD11R,1.700000X1.700000*%
%ADD12O,1.700000X1.700000*%
%ADD13O,1.050000X1.500000*%
%ADD14R,1.050000X1.500000*%
%ADD15HorizOval,1.600000X0.000000X0.000000X0.000000X0.000000X0*%
%ADD16C,1.600000*%
%ADD17RoundRect,0.237500X0.237500X-0.300000X0.237500X0.300000X-0.237500X0.300000X-0.237500X-0.300000X0*%
%ADD18RoundRect,0.237500X-0.237500X0.250000X-0.237500X-0.250000X0.237500X-0.250000X0.237500X0.250000X0*%
%ADD19R,1.000000X1.000000*%
%ADD20RoundRect,0.237500X0.237500X-0.287500X0.237500X0.287500X-0.237500X0.287500X-0.237500X-0.287500X0*%
%ADD21C,3.200000*%
%ADD22R,4.450001X4.570001*%
%ADD23RoundRect,0.175000X0.175000X-1.250000X0.175000X1.250000X-0.175000X1.250000X-0.175000X-1.250000X0*%
%ADD24R,1.600000X1.600000*%
%ADD25C,1.800000*%
%ADD26RoundRect,0.237500X-0.250000X-0.237500X0.250000X-0.237500X0.250000X0.237500X-0.250000X0.237500X0*%
%ADD27O,1.550000X0.890000*%
%ADD28R,1.550000X1.200000*%
%ADD29R,1.550000X1.500000*%
%ADD30O,0.950000X1.250000*%
%ADD31R,1.350000X0.400000*%
%ADD32C,3.500000*%
%ADD33R,1.560000X0.650000*%
%ADD34RoundRect,0.237500X0.237500X-0.250000X0.237500X0.250000X-0.237500X0.250000X-0.237500X-0.250000X0*%
%ADD35R,1.500000X1.600000*%
%ADD36C,3.000000*%
%ADD37O,1.600000X1.600000*%
%ADD38R,0.650000X1.220000*%
%ADD39RoundRect,0.237500X0.250000X0.237500X-0.250000X0.237500X-0.250000X-0.237500X0.250000X-0.237500X0*%
%ADD40R,1.800000X0.800000*%
%ADD41RoundRect,0.237500X0.300000X0.237500X-0.300000X0.237500X-0.300000X-0.237500X0.300000X-0.237500X0*%
%ADD42RoundRect,0.237500X-0.237500X0.300000X-0.237500X-0.300000X0.237500X-0.300000X0.237500X0.300000X0*%
G04 APERTURE END LIST*
D10*
X96715142Y-152062571D02*
X96715142Y-151062571D01*
X96715142Y-150562571D02*
X96643714Y-150634000D01*
X96715142Y-150705428D01*
X96786571Y-150634000D01*
X96715142Y-150562571D01*
X96715142Y-150705428D01*
X97429428Y-151062571D02*
X97429428Y-152062571D01*
X97429428Y-151205428D02*
X97500857Y-151134000D01*
X97643714Y-151062571D01*
X97858000Y-151062571D01*
X98000857Y-151134000D01*
X98072285Y-151276857D01*
X98072285Y-152062571D01*
X98715142Y-151991142D02*
X98858000Y-152062571D01*
X99143714Y-152062571D01*
X99286571Y-151991142D01*
X99358000Y-151848285D01*
X99358000Y-151776857D01*
X99286571Y-151634000D01*
X99143714Y-151562571D01*
X98929428Y-151562571D01*
X98786571Y-151491142D01*
X98715142Y-151348285D01*
X98715142Y-151276857D01*
X98786571Y-151134000D01*
X98929428Y-151062571D01*
X99143714Y-151062571D01*
X99286571Y-151134000D01*
X100572285Y-151991142D02*
X100429428Y-152062571D01*
X100143714Y-152062571D01*
X100000857Y-151991142D01*
X99929428Y-151848285D01*
X99929428Y-151276857D01*
X100000857Y-151134000D01*
X100143714Y-151062571D01*
X100429428Y-151062571D01*
X100572285Y-151134000D01*
X100643714Y-151276857D01*
X100643714Y-151419714D01*
X99929428Y-151562571D01*
X101286571Y-152062571D02*
X101286571Y-151062571D01*
X101286571Y-151348285D02*
X101358000Y-151205428D01*
X101429428Y-151134000D01*
X101572285Y-151062571D01*
X101715142Y-151062571D01*
X102000857Y-151062571D02*
X102572285Y-151062571D01*
X102215142Y-150562571D02*
X102215142Y-151848285D01*
X102286571Y-151991142D01*
X102429428Y-152062571D01*
X102572285Y-152062571D01*
X104215142Y-152062571D02*
X104215142Y-151062571D01*
X104215142Y-151205428D02*
X104286571Y-151134000D01*
X104429428Y-151062571D01*
X104643714Y-151062571D01*
X104786571Y-151134000D01*
X104858000Y-151276857D01*
X104858000Y-152062571D01*
X104858000Y-151276857D02*
X104929428Y-151134000D01*
X105072285Y-151062571D01*
X105286571Y-151062571D01*
X105429428Y-151134000D01*
X105500857Y-151276857D01*
X105500857Y-152062571D01*
X106786571Y-151991142D02*
X106643714Y-152062571D01*
X106358000Y-152062571D01*
X106215142Y-151991142D01*
X106143714Y-151848285D01*
X106143714Y-151276857D01*
X106215142Y-151134000D01*
X106358000Y-151062571D01*
X106643714Y-151062571D01*
X106786571Y-151134000D01*
X106858000Y-151276857D01*
X106858000Y-151419714D01*
X106143714Y-151562571D01*
X107500857Y-151919714D02*
X107572285Y-151991142D01*
X107500857Y-152062571D01*
X107429428Y-151991142D01*
X107500857Y-151919714D01*
X107500857Y-152062571D01*
X107500857Y-151491142D02*
X107429428Y-150634000D01*
X107500857Y-150562571D01*
X107572285Y-150634000D01*
X107500857Y-151491142D01*
X107500857Y-150562571D01*
D11*
%TO.C,BZ1*%
X71755000Y-117983000D03*
D12*
X71755000Y-120523000D03*
%TD*%
D13*
%TO.C,Q1*%
X72847200Y-114096800D03*
X71577200Y-114096800D03*
D14*
X74117200Y-114096800D03*
%TD*%
D15*
%TO.C,R13*%
X78648662Y-118006839D03*
D16*
X76911200Y-113233200D03*
%TD*%
D17*
%TO.C,C1*%
X94386400Y-103480700D03*
X94386400Y-105205700D03*
%TD*%
D12*
%TO.C,J3*%
X101447600Y-103835200D03*
X101447600Y-101295200D03*
X101447600Y-98755200D03*
D11*
X101447600Y-96215200D03*
%TD*%
D18*
%TO.C,R14*%
X81534000Y-103274500D03*
X81534000Y-101449500D03*
%TD*%
D19*
%TO.C,D4*%
X134142800Y-103987600D03*
X131642800Y-103987600D03*
%TD*%
D20*
%TO.C,D1*%
X81534000Y-95645000D03*
X81534000Y-97395000D03*
%TD*%
D21*
%TO.C,H1*%
X108712000Y-98806000D03*
%TD*%
D22*
%TO.C,U5*%
X107823000Y-114681000D03*
D23*
X105918000Y-110531000D03*
X107188000Y-110531000D03*
X108458000Y-110531000D03*
X109728000Y-110531000D03*
X109728000Y-118831000D03*
X108458000Y-118831000D03*
X107188000Y-118831000D03*
X105918000Y-118831000D03*
%TD*%
D16*
%TO.C,C5*%
X121452000Y-109728000D03*
D24*
X123952000Y-109728000D03*
%TD*%
D16*
%TO.C,U9*%
X113294000Y-115062000D03*
X113294000Y-112522000D03*
X113294000Y-109982000D03*
X113294000Y-107442000D03*
X82794000Y-120142000D03*
X82794000Y-117602000D03*
X82794000Y-115062000D03*
X82794000Y-112522000D03*
X82794000Y-109982000D03*
%TD*%
D12*
%TO.C,C3*%
X75539600Y-120548400D03*
D11*
X75539600Y-118008400D03*
%TD*%
D25*
%TO.C,SW1*%
X65254400Y-113832000D03*
X65254400Y-116332000D03*
X65254400Y-118832000D03*
X68654400Y-113832000D03*
X68654400Y-116332000D03*
X68654400Y-118832000D03*
%TD*%
D26*
%TO.C,R10*%
X92720800Y-105867200D03*
X90895800Y-105867200D03*
%TD*%
D27*
%TO.C,J2*%
X140771400Y-97058600D03*
X140771400Y-104058600D03*
D28*
X140771400Y-97658600D03*
X140771400Y-103458600D03*
D29*
X140771400Y-99558600D03*
X140771400Y-101558600D03*
D30*
X138071400Y-98058600D03*
X138071400Y-103058600D03*
D31*
X138071400Y-99258600D03*
X138071400Y-99908600D03*
X138071400Y-100558600D03*
X138071400Y-101208600D03*
X138071400Y-101858600D03*
%TD*%
D32*
%TO.C,BT1*%
X139624000Y-133096000D03*
X66624000Y-133096000D03*
%TD*%
D16*
%TO.C,C9*%
X121452000Y-117856000D03*
D24*
X123952000Y-117856000D03*
%TD*%
D33*
%TO.C,U2*%
X100600500Y-116840000D03*
X100600500Y-115890000D03*
X100600500Y-117790000D03*
X97900500Y-117790000D03*
X97900500Y-116840000D03*
X97900500Y-115890000D03*
%TD*%
D26*
%TO.C,R5*%
X109370500Y-121539000D03*
X107545500Y-121539000D03*
%TD*%
D34*
%TO.C,R4*%
X131064000Y-99163500D03*
X131064000Y-100988500D03*
%TD*%
D18*
%TO.C,R3*%
X134239000Y-100988500D03*
X134239000Y-99163500D03*
%TD*%
D20*
%TO.C,D3*%
X131064000Y-95504000D03*
X131064000Y-97254000D03*
%TD*%
%TO.C,D2*%
X134112000Y-95504000D03*
X134112000Y-97254000D03*
%TD*%
D17*
%TO.C,C4*%
X110744000Y-106325500D03*
X110744000Y-108050500D03*
%TD*%
D33*
%TO.C,U3*%
X95393500Y-116840000D03*
X95393500Y-115890000D03*
X95393500Y-117790000D03*
X92693500Y-117790000D03*
X92693500Y-116840000D03*
X92693500Y-115890000D03*
%TD*%
D16*
%TO.C,J4*%
X129540000Y-110348000D03*
X129540000Y-112848000D03*
X129540000Y-114848000D03*
D35*
X129540000Y-117348000D03*
D36*
X132250000Y-107278000D03*
X132250000Y-120418000D03*
%TD*%
D16*
%TO.C,J1*%
X76751000Y-106590000D03*
X76751000Y-104090000D03*
X76751000Y-102090000D03*
D35*
X76751000Y-99590000D03*
D36*
X74041000Y-109660000D03*
X74041000Y-96520000D03*
%TD*%
D37*
%TO.C,U8*%
X91757500Y-103632000D03*
X84137500Y-96012000D03*
X89217500Y-103632000D03*
X86677500Y-96012000D03*
X86677500Y-103632000D03*
X89217500Y-96012000D03*
X84137500Y-103632000D03*
D24*
X91757500Y-96012000D03*
%TD*%
D38*
%TO.C,U7*%
X125918000Y-99862000D03*
X124968000Y-99862000D03*
X124018000Y-99862000D03*
X124018000Y-97242000D03*
X124968000Y-97242000D03*
X125918000Y-97242000D03*
%TD*%
%TO.C,U6*%
X116266000Y-99862000D03*
X115316000Y-99862000D03*
X114366000Y-99862000D03*
X114366000Y-97242000D03*
X115316000Y-97242000D03*
X116266000Y-97242000D03*
%TD*%
D33*
%TO.C,U4*%
X87359500Y-116840000D03*
X87359500Y-117790000D03*
X87359500Y-115890000D03*
X90059500Y-115890000D03*
X90059500Y-116840000D03*
X90059500Y-117790000D03*
%TD*%
D34*
%TO.C,R12*%
X127762000Y-97639500D03*
X127762000Y-99464500D03*
%TD*%
%TO.C,R11*%
X118364000Y-97639500D03*
X118364000Y-99464500D03*
%TD*%
D18*
%TO.C,R9*%
X89077800Y-107795700D03*
X89077800Y-105970700D03*
%TD*%
%TO.C,R8*%
X87172800Y-107795700D03*
X87172800Y-105970700D03*
%TD*%
D34*
%TO.C,R7*%
X85140800Y-105970700D03*
X85140800Y-107795700D03*
%TD*%
D39*
%TO.C,R6*%
X91035500Y-109067600D03*
X92860500Y-109067600D03*
%TD*%
D26*
%TO.C,R2*%
X101052000Y-119888000D03*
X99227000Y-119888000D03*
%TD*%
D18*
%TO.C,R1*%
X103187500Y-116840000D03*
X103187500Y-115015000D03*
%TD*%
D40*
%TO.C,Q3*%
X126110000Y-103124000D03*
X122810000Y-104074000D03*
X122810000Y-102174000D03*
%TD*%
%TO.C,Q2*%
X117982000Y-103124000D03*
X114682000Y-104074000D03*
X114682000Y-102174000D03*
%TD*%
D41*
%TO.C,C8*%
X124105500Y-95504000D03*
X125830500Y-95504000D03*
%TD*%
%TO.C,C7*%
X114453500Y-95504000D03*
X116178500Y-95504000D03*
%TD*%
D17*
%TO.C,C6*%
X122428000Y-98197500D03*
X122428000Y-99922500D03*
%TD*%
D42*
%TO.C,C2*%
X103187500Y-120496500D03*
X103187500Y-118771500D03*
%TD*%
M02*
