%TF.GenerationSoftware,KiCad,Pcbnew,(5.99.0-12305-g62f7a09290)*%
%TF.CreationDate,2021-10-11T18:46:27-07:00*%
%TF.ProjectId,vive_ups,76697665-5f75-4707-932e-6b696361645f,rev?*%
%TF.SameCoordinates,Original*%
%TF.FileFunction,Legend,Top*%
%TF.FilePolarity,Positive*%
%FSLAX46Y46*%
G04 Gerber Fmt 4.6, Leading zero omitted, Abs format (unit mm)*
G04 Created by KiCad (PCBNEW (5.99.0-12305-g62f7a09290)) date 2021-10-11 18:46:27*
%MOMM*%
%LPD*%
G01*
G04 APERTURE LIST*
%ADD10C,0.150000*%
%ADD11C,0.120000*%
G04 APERTURE END LIST*
D10*
X77978095Y-121547000D02*
X77882857Y-121499380D01*
X77740000Y-121499380D01*
X77597142Y-121547000D01*
X77501904Y-121642238D01*
X77454285Y-121737476D01*
X77406666Y-121927952D01*
X77406666Y-122070809D01*
X77454285Y-122261285D01*
X77501904Y-122356523D01*
X77597142Y-122451761D01*
X77740000Y-122499380D01*
X77835238Y-122499380D01*
X77978095Y-122451761D01*
X78025714Y-122404142D01*
X78025714Y-122070809D01*
X77835238Y-122070809D01*
X78454285Y-122499380D02*
X78454285Y-121499380D01*
X79025714Y-122499380D01*
X79025714Y-121499380D01*
X79501904Y-122499380D02*
X79501904Y-121499380D01*
X79740000Y-121499380D01*
X79882857Y-121547000D01*
X79978095Y-121642238D01*
X80025714Y-121737476D01*
X80073333Y-121927952D01*
X80073333Y-122070809D01*
X80025714Y-122261285D01*
X79978095Y-122356523D01*
X79882857Y-122451761D01*
X79740000Y-122499380D01*
X79501904Y-122499380D01*
X97715485Y-96718380D02*
X97715485Y-95718380D01*
X98286914Y-96718380D01*
X98286914Y-95718380D01*
X99334533Y-96623142D02*
X99286914Y-96670761D01*
X99144057Y-96718380D01*
X99048819Y-96718380D01*
X98905961Y-96670761D01*
X98810723Y-96575523D01*
X98763104Y-96480285D01*
X98715485Y-96289809D01*
X98715485Y-96146952D01*
X98763104Y-95956476D01*
X98810723Y-95861238D01*
X98905961Y-95766000D01*
X99048819Y-95718380D01*
X99144057Y-95718380D01*
X99286914Y-95766000D01*
X99334533Y-95813619D01*
X93839066Y-98207580D02*
X93839066Y-99017104D01*
X93886685Y-99112342D01*
X93934304Y-99159961D01*
X94029542Y-99207580D01*
X94220019Y-99207580D01*
X94315257Y-99159961D01*
X94362876Y-99112342D01*
X94410495Y-99017104D01*
X94410495Y-98207580D01*
X94839066Y-99159961D02*
X94981923Y-99207580D01*
X95220019Y-99207580D01*
X95315257Y-99159961D01*
X95362876Y-99112342D01*
X95410495Y-99017104D01*
X95410495Y-98921866D01*
X95362876Y-98826628D01*
X95315257Y-98779009D01*
X95220019Y-98731390D01*
X95029542Y-98683771D01*
X94934304Y-98636152D01*
X94886685Y-98588533D01*
X94839066Y-98493295D01*
X94839066Y-98398057D01*
X94886685Y-98302819D01*
X94934304Y-98255200D01*
X95029542Y-98207580D01*
X95267638Y-98207580D01*
X95410495Y-98255200D01*
X96172400Y-98683771D02*
X96315257Y-98731390D01*
X96362876Y-98779009D01*
X96410495Y-98874247D01*
X96410495Y-99017104D01*
X96362876Y-99112342D01*
X96315257Y-99159961D01*
X96220019Y-99207580D01*
X95839066Y-99207580D01*
X95839066Y-98207580D01*
X96172400Y-98207580D01*
X96267638Y-98255200D01*
X96315257Y-98302819D01*
X96362876Y-98398057D01*
X96362876Y-98493295D01*
X96315257Y-98588533D01*
X96267638Y-98636152D01*
X96172400Y-98683771D01*
X95839066Y-98683771D01*
X96600971Y-99302819D02*
X97362876Y-99302819D01*
X97458114Y-98207580D02*
X97791447Y-99207580D01*
X98124780Y-98207580D01*
X98458114Y-99207580D02*
X98458114Y-98207580D01*
X98934304Y-99207580D02*
X98934304Y-98207580D01*
X99505733Y-99207580D01*
X99505733Y-98207580D01*
X97536095Y-100947600D02*
X97440857Y-100899980D01*
X97298000Y-100899980D01*
X97155142Y-100947600D01*
X97059904Y-101042838D01*
X97012285Y-101138076D01*
X96964666Y-101328552D01*
X96964666Y-101471409D01*
X97012285Y-101661885D01*
X97059904Y-101757123D01*
X97155142Y-101852361D01*
X97298000Y-101899980D01*
X97393238Y-101899980D01*
X97536095Y-101852361D01*
X97583714Y-101804742D01*
X97583714Y-101471409D01*
X97393238Y-101471409D01*
X98012285Y-101899980D02*
X98012285Y-100899980D01*
X98583714Y-101899980D01*
X98583714Y-100899980D01*
X99059904Y-101899980D02*
X99059904Y-100899980D01*
X99298000Y-100899980D01*
X99440857Y-100947600D01*
X99536095Y-101042838D01*
X99583714Y-101138076D01*
X99631333Y-101328552D01*
X99631333Y-101471409D01*
X99583714Y-101661885D01*
X99536095Y-101757123D01*
X99440857Y-101852361D01*
X99298000Y-101899980D01*
X99059904Y-101899980D01*
X96720209Y-103389180D02*
X97339257Y-103389180D01*
X97005923Y-103770133D01*
X97148780Y-103770133D01*
X97244019Y-103817752D01*
X97291638Y-103865371D01*
X97339257Y-103960609D01*
X97339257Y-104198704D01*
X97291638Y-104293942D01*
X97244019Y-104341561D01*
X97148780Y-104389180D01*
X96863066Y-104389180D01*
X96767828Y-104341561D01*
X96720209Y-104293942D01*
X97767828Y-104293942D02*
X97815447Y-104341561D01*
X97767828Y-104389180D01*
X97720209Y-104341561D01*
X97767828Y-104293942D01*
X97767828Y-104389180D01*
X98148780Y-103389180D02*
X98767828Y-103389180D01*
X98434495Y-103770133D01*
X98577352Y-103770133D01*
X98672590Y-103817752D01*
X98720209Y-103865371D01*
X98767828Y-103960609D01*
X98767828Y-104198704D01*
X98720209Y-104293942D01*
X98672590Y-104341561D01*
X98577352Y-104389180D01*
X98291638Y-104389180D01*
X98196400Y-104341561D01*
X98148780Y-104293942D01*
X99053542Y-103389180D02*
X99386876Y-104389180D01*
X99720209Y-103389180D01*
X72517047Y-116022428D02*
X73278952Y-116022428D01*
X72898000Y-116403380D02*
X72898000Y-115641476D01*
X76327047Y-116200228D02*
X77088952Y-116200228D01*
X76708000Y-116581180D02*
X76708000Y-115819276D01*
X66532190Y-122118380D02*
X66436952Y-122070761D01*
X66389333Y-122023142D01*
X66341714Y-121927904D01*
X66341714Y-121642190D01*
X66389333Y-121546952D01*
X66436952Y-121499333D01*
X66532190Y-121451714D01*
X66675047Y-121451714D01*
X66770285Y-121499333D01*
X66817904Y-121546952D01*
X66865523Y-121642190D01*
X66865523Y-121927904D01*
X66817904Y-122023142D01*
X66770285Y-122070761D01*
X66675047Y-122118380D01*
X66532190Y-122118380D01*
X67294095Y-121451714D02*
X67294095Y-122118380D01*
X67294095Y-121546952D02*
X67341714Y-121499333D01*
X67436952Y-121451714D01*
X67579809Y-121451714D01*
X67675047Y-121499333D01*
X67722666Y-121594571D01*
X67722666Y-122118380D01*
X72850952Y-132675380D02*
X72850952Y-133389666D01*
X72803333Y-133532523D01*
X72708095Y-133627761D01*
X72565238Y-133675380D01*
X72470000Y-133675380D01*
X73803333Y-133675380D02*
X73327142Y-133675380D01*
X73327142Y-132675380D01*
X74708095Y-133580142D02*
X74660476Y-133627761D01*
X74517619Y-133675380D01*
X74422380Y-133675380D01*
X74279523Y-133627761D01*
X74184285Y-133532523D01*
X74136666Y-133437285D01*
X74089047Y-133246809D01*
X74089047Y-133103952D01*
X74136666Y-132913476D01*
X74184285Y-132818238D01*
X74279523Y-132723000D01*
X74422380Y-132675380D01*
X74517619Y-132675380D01*
X74660476Y-132723000D01*
X74708095Y-132770619D01*
X75422380Y-132675380D02*
X75422380Y-133389666D01*
X75374761Y-133532523D01*
X75279523Y-133627761D01*
X75136666Y-133675380D01*
X75041428Y-133675380D01*
X76374761Y-133675380D02*
X75898571Y-133675380D01*
X75898571Y-132675380D01*
X77279523Y-133580142D02*
X77231904Y-133627761D01*
X77089047Y-133675380D01*
X76993809Y-133675380D01*
X76850952Y-133627761D01*
X76755714Y-133532523D01*
X76708095Y-133437285D01*
X76660476Y-133246809D01*
X76660476Y-133103952D01*
X76708095Y-132913476D01*
X76755714Y-132818238D01*
X76850952Y-132723000D01*
X76993809Y-132675380D01*
X77089047Y-132675380D01*
X77231904Y-132723000D01*
X77279523Y-132770619D01*
X77993809Y-132675380D02*
X77993809Y-133389666D01*
X77946190Y-133532523D01*
X77850952Y-133627761D01*
X77708095Y-133675380D01*
X77612857Y-133675380D01*
X78946190Y-133675380D02*
X78470000Y-133675380D01*
X78470000Y-132675380D01*
X79850952Y-133580142D02*
X79803333Y-133627761D01*
X79660476Y-133675380D01*
X79565238Y-133675380D01*
X79422380Y-133627761D01*
X79327142Y-133532523D01*
X79279523Y-133437285D01*
X79231904Y-133246809D01*
X79231904Y-133103952D01*
X79279523Y-132913476D01*
X79327142Y-132818238D01*
X79422380Y-132723000D01*
X79565238Y-132675380D01*
X79660476Y-132675380D01*
X79803333Y-132723000D01*
X79850952Y-132770619D01*
X80565238Y-132675380D02*
X80565238Y-133389666D01*
X80517619Y-133532523D01*
X80422380Y-133627761D01*
X80279523Y-133675380D01*
X80184285Y-133675380D01*
X81517619Y-133675380D02*
X81041428Y-133675380D01*
X81041428Y-132675380D01*
X82422380Y-133580142D02*
X82374761Y-133627761D01*
X82231904Y-133675380D01*
X82136666Y-133675380D01*
X81993809Y-133627761D01*
X81898571Y-133532523D01*
X81850952Y-133437285D01*
X81803333Y-133246809D01*
X81803333Y-133103952D01*
X81850952Y-132913476D01*
X81898571Y-132818238D01*
X81993809Y-132723000D01*
X82136666Y-132675380D01*
X82231904Y-132675380D01*
X82374761Y-132723000D01*
X82422380Y-132770619D01*
%TO.C,Q1*%
X70465961Y-111748819D02*
X70370723Y-111701200D01*
X70275485Y-111605961D01*
X70132628Y-111463104D01*
X70037390Y-111415485D01*
X69942152Y-111415485D01*
X69989771Y-111653580D02*
X69894533Y-111605961D01*
X69799295Y-111510723D01*
X69751676Y-111320247D01*
X69751676Y-110986914D01*
X69799295Y-110796438D01*
X69894533Y-110701200D01*
X69989771Y-110653580D01*
X70180247Y-110653580D01*
X70275485Y-110701200D01*
X70370723Y-110796438D01*
X70418342Y-110986914D01*
X70418342Y-111320247D01*
X70370723Y-111510723D01*
X70275485Y-111605961D01*
X70180247Y-111653580D01*
X69989771Y-111653580D01*
X71370723Y-111653580D02*
X70799295Y-111653580D01*
X71085009Y-111653580D02*
X71085009Y-110653580D01*
X70989771Y-110796438D01*
X70894533Y-110891676D01*
X70799295Y-110939295D01*
%TO.C,R13*%
X80980864Y-115139088D02*
X80647398Y-115615186D01*
X81176304Y-115676055D02*
X80236611Y-116018076D01*
X80106318Y-115660097D01*
X80118492Y-115554316D01*
X80146952Y-115493282D01*
X80220160Y-115415962D01*
X80354402Y-115367102D01*
X80460183Y-115379276D01*
X80521217Y-115407736D01*
X80598538Y-115480944D01*
X80728831Y-115838922D01*
X80655130Y-114244143D02*
X80850570Y-114781110D01*
X80752850Y-114512626D02*
X79813158Y-114854647D01*
X79979973Y-114895281D01*
X80102041Y-114952202D01*
X80179361Y-115025410D01*
X79601431Y-114272932D02*
X79389704Y-113691218D01*
X79861689Y-113874155D01*
X79812829Y-113739913D01*
X79825003Y-113634132D01*
X79853463Y-113573098D01*
X79926671Y-113495778D01*
X80150408Y-113414344D01*
X80256189Y-113426518D01*
X80317223Y-113454979D01*
X80394543Y-113528187D01*
X80492263Y-113796670D01*
X80480090Y-113902451D01*
X80451629Y-113963485D01*
%TO.C,C1*%
X94219733Y-102109542D02*
X94172114Y-102157161D01*
X94029257Y-102204780D01*
X93934019Y-102204780D01*
X93791161Y-102157161D01*
X93695923Y-102061923D01*
X93648304Y-101966685D01*
X93600685Y-101776209D01*
X93600685Y-101633352D01*
X93648304Y-101442876D01*
X93695923Y-101347638D01*
X93791161Y-101252400D01*
X93934019Y-101204780D01*
X94029257Y-101204780D01*
X94172114Y-101252400D01*
X94219733Y-101300019D01*
X95172114Y-102204780D02*
X94600685Y-102204780D01*
X94886400Y-102204780D02*
X94886400Y-101204780D01*
X94791161Y-101347638D01*
X94695923Y-101442876D01*
X94600685Y-101490495D01*
%TO.C,J3*%
X103857466Y-97699580D02*
X103857466Y-98413866D01*
X103809847Y-98556723D01*
X103714609Y-98651961D01*
X103571752Y-98699580D01*
X103476514Y-98699580D01*
X104238419Y-97699580D02*
X104857466Y-97699580D01*
X104524133Y-98080533D01*
X104666990Y-98080533D01*
X104762228Y-98128152D01*
X104809847Y-98175771D01*
X104857466Y-98271009D01*
X104857466Y-98509104D01*
X104809847Y-98604342D01*
X104762228Y-98651961D01*
X104666990Y-98699580D01*
X104381276Y-98699580D01*
X104286038Y-98651961D01*
X104238419Y-98604342D01*
%TO.C,R14*%
X80513180Y-103563657D02*
X80036990Y-103896990D01*
X80513180Y-104135085D02*
X79513180Y-104135085D01*
X79513180Y-103754133D01*
X79560800Y-103658895D01*
X79608419Y-103611276D01*
X79703657Y-103563657D01*
X79846514Y-103563657D01*
X79941752Y-103611276D01*
X79989371Y-103658895D01*
X80036990Y-103754133D01*
X80036990Y-104135085D01*
X80513180Y-102611276D02*
X80513180Y-103182704D01*
X80513180Y-102896990D02*
X79513180Y-102896990D01*
X79656038Y-102992228D01*
X79751276Y-103087466D01*
X79798895Y-103182704D01*
X79846514Y-101754133D02*
X80513180Y-101754133D01*
X79465561Y-101992228D02*
X80179847Y-102230323D01*
X80179847Y-101611276D01*
%TO.C,D4*%
X129055904Y-104541580D02*
X129055904Y-103541580D01*
X129294000Y-103541580D01*
X129436857Y-103589200D01*
X129532095Y-103684438D01*
X129579714Y-103779676D01*
X129627333Y-103970152D01*
X129627333Y-104113009D01*
X129579714Y-104303485D01*
X129532095Y-104398723D01*
X129436857Y-104493961D01*
X129294000Y-104541580D01*
X129055904Y-104541580D01*
X130484476Y-103874914D02*
X130484476Y-104541580D01*
X130246380Y-103493961D02*
X130008285Y-104208247D01*
X130627333Y-104208247D01*
%TO.C,D1*%
X80513180Y-96546895D02*
X79513180Y-96546895D01*
X79513180Y-96308800D01*
X79560800Y-96165942D01*
X79656038Y-96070704D01*
X79751276Y-96023085D01*
X79941752Y-95975466D01*
X80084609Y-95975466D01*
X80275085Y-96023085D01*
X80370323Y-96070704D01*
X80465561Y-96165942D01*
X80513180Y-96308800D01*
X80513180Y-96546895D01*
X80513180Y-95023085D02*
X80513180Y-95594514D01*
X80513180Y-95308800D02*
X79513180Y-95308800D01*
X79656038Y-95404038D01*
X79751276Y-95499276D01*
X79798895Y-95594514D01*
%TO.C,U5*%
X104035380Y-111505904D02*
X104844904Y-111505904D01*
X104940142Y-111458285D01*
X104987761Y-111410666D01*
X105035380Y-111315428D01*
X105035380Y-111124952D01*
X104987761Y-111029714D01*
X104940142Y-110982095D01*
X104844904Y-110934476D01*
X104035380Y-110934476D01*
X104035380Y-109982095D02*
X104035380Y-110458285D01*
X104511571Y-110505904D01*
X104463952Y-110458285D01*
X104416333Y-110363047D01*
X104416333Y-110124952D01*
X104463952Y-110029714D01*
X104511571Y-109982095D01*
X104606809Y-109934476D01*
X104844904Y-109934476D01*
X104940142Y-109982095D01*
X104987761Y-110029714D01*
X105035380Y-110124952D01*
X105035380Y-110363047D01*
X104987761Y-110458285D01*
X104940142Y-110505904D01*
%TO.C,C5*%
X119594333Y-113768142D02*
X119546714Y-113815761D01*
X119403857Y-113863380D01*
X119308619Y-113863380D01*
X119165761Y-113815761D01*
X119070523Y-113720523D01*
X119022904Y-113625285D01*
X118975285Y-113434809D01*
X118975285Y-113291952D01*
X119022904Y-113101476D01*
X119070523Y-113006238D01*
X119165761Y-112911000D01*
X119308619Y-112863380D01*
X119403857Y-112863380D01*
X119546714Y-112911000D01*
X119594333Y-112958619D01*
X120499095Y-112863380D02*
X120022904Y-112863380D01*
X119975285Y-113339571D01*
X120022904Y-113291952D01*
X120118142Y-113244333D01*
X120356238Y-113244333D01*
X120451476Y-113291952D01*
X120499095Y-113339571D01*
X120546714Y-113434809D01*
X120546714Y-113672904D01*
X120499095Y-113768142D01*
X120451476Y-113815761D01*
X120356238Y-113863380D01*
X120118142Y-113863380D01*
X120022904Y-113815761D01*
X119975285Y-113768142D01*
%TO.C,R10*%
X93286342Y-107843580D02*
X92953009Y-107367390D01*
X92714914Y-107843580D02*
X92714914Y-106843580D01*
X93095866Y-106843580D01*
X93191104Y-106891200D01*
X93238723Y-106938819D01*
X93286342Y-107034057D01*
X93286342Y-107176914D01*
X93238723Y-107272152D01*
X93191104Y-107319771D01*
X93095866Y-107367390D01*
X92714914Y-107367390D01*
X94238723Y-107843580D02*
X93667295Y-107843580D01*
X93953009Y-107843580D02*
X93953009Y-106843580D01*
X93857771Y-106986438D01*
X93762533Y-107081676D01*
X93667295Y-107129295D01*
X94857771Y-106843580D02*
X94953009Y-106843580D01*
X95048247Y-106891200D01*
X95095866Y-106938819D01*
X95143485Y-107034057D01*
X95191104Y-107224533D01*
X95191104Y-107462628D01*
X95143485Y-107653104D01*
X95095866Y-107748342D01*
X95048247Y-107795961D01*
X94953009Y-107843580D01*
X94857771Y-107843580D01*
X94762533Y-107795961D01*
X94714914Y-107748342D01*
X94667295Y-107653104D01*
X94619676Y-107462628D01*
X94619676Y-107224533D01*
X94667295Y-107034057D01*
X94714914Y-106938819D01*
X94762533Y-106891200D01*
X94857771Y-106843580D01*
%TO.C,J2*%
X138122066Y-105090980D02*
X138122066Y-105805266D01*
X138074447Y-105948123D01*
X137979209Y-106043361D01*
X137836352Y-106090980D01*
X137741114Y-106090980D01*
X138550638Y-105186219D02*
X138598257Y-105138600D01*
X138693495Y-105090980D01*
X138931590Y-105090980D01*
X139026828Y-105138600D01*
X139074447Y-105186219D01*
X139122066Y-105281457D01*
X139122066Y-105376695D01*
X139074447Y-105519552D01*
X138503019Y-106090980D01*
X139122066Y-106090980D01*
%TO.C,BT1*%
X102338285Y-127944571D02*
X102481142Y-127992190D01*
X102528761Y-128039809D01*
X102576380Y-128135047D01*
X102576380Y-128277904D01*
X102528761Y-128373142D01*
X102481142Y-128420761D01*
X102385904Y-128468380D01*
X102004952Y-128468380D01*
X102004952Y-127468380D01*
X102338285Y-127468380D01*
X102433523Y-127516000D01*
X102481142Y-127563619D01*
X102528761Y-127658857D01*
X102528761Y-127754095D01*
X102481142Y-127849333D01*
X102433523Y-127896952D01*
X102338285Y-127944571D01*
X102004952Y-127944571D01*
X102862095Y-127468380D02*
X103433523Y-127468380D01*
X103147809Y-128468380D02*
X103147809Y-127468380D01*
X104290666Y-128468380D02*
X103719238Y-128468380D01*
X104004952Y-128468380D02*
X104004952Y-127468380D01*
X103909714Y-127611238D01*
X103814476Y-127706476D01*
X103719238Y-127754095D01*
%TO.C,C9*%
X119594333Y-122023142D02*
X119546714Y-122070761D01*
X119403857Y-122118380D01*
X119308619Y-122118380D01*
X119165761Y-122070761D01*
X119070523Y-121975523D01*
X119022904Y-121880285D01*
X118975285Y-121689809D01*
X118975285Y-121546952D01*
X119022904Y-121356476D01*
X119070523Y-121261238D01*
X119165761Y-121166000D01*
X119308619Y-121118380D01*
X119403857Y-121118380D01*
X119546714Y-121166000D01*
X119594333Y-121213619D01*
X120070523Y-122118380D02*
X120261000Y-122118380D01*
X120356238Y-122070761D01*
X120403857Y-122023142D01*
X120499095Y-121880285D01*
X120546714Y-121689809D01*
X120546714Y-121308857D01*
X120499095Y-121213619D01*
X120451476Y-121166000D01*
X120356238Y-121118380D01*
X120165761Y-121118380D01*
X120070523Y-121166000D01*
X120022904Y-121213619D01*
X119975285Y-121308857D01*
X119975285Y-121546952D01*
X120022904Y-121642190D01*
X120070523Y-121689809D01*
X120165761Y-121737428D01*
X120356238Y-121737428D01*
X120451476Y-121689809D01*
X120499095Y-121642190D01*
X120546714Y-121546952D01*
%TO.C,U2*%
X97028095Y-113701580D02*
X97028095Y-114511104D01*
X97075714Y-114606342D01*
X97123333Y-114653961D01*
X97218571Y-114701580D01*
X97409047Y-114701580D01*
X97504285Y-114653961D01*
X97551904Y-114606342D01*
X97599523Y-114511104D01*
X97599523Y-113701580D01*
X98028095Y-113796819D02*
X98075714Y-113749200D01*
X98170952Y-113701580D01*
X98409047Y-113701580D01*
X98504285Y-113749200D01*
X98551904Y-113796819D01*
X98599523Y-113892057D01*
X98599523Y-113987295D01*
X98551904Y-114130152D01*
X97980476Y-114701580D01*
X98599523Y-114701580D01*
%TO.C,R5*%
X111034533Y-122016780D02*
X110701200Y-121540590D01*
X110463104Y-122016780D02*
X110463104Y-121016780D01*
X110844057Y-121016780D01*
X110939295Y-121064400D01*
X110986914Y-121112019D01*
X111034533Y-121207257D01*
X111034533Y-121350114D01*
X110986914Y-121445352D01*
X110939295Y-121492971D01*
X110844057Y-121540590D01*
X110463104Y-121540590D01*
X111939295Y-121016780D02*
X111463104Y-121016780D01*
X111415485Y-121492971D01*
X111463104Y-121445352D01*
X111558342Y-121397733D01*
X111796438Y-121397733D01*
X111891676Y-121445352D01*
X111939295Y-121492971D01*
X111986914Y-121588209D01*
X111986914Y-121826304D01*
X111939295Y-121921542D01*
X111891676Y-121969161D01*
X111796438Y-122016780D01*
X111558342Y-122016780D01*
X111463104Y-121969161D01*
X111415485Y-121921542D01*
%TO.C,R4*%
X130144780Y-99988666D02*
X129668590Y-100322000D01*
X130144780Y-100560095D02*
X129144780Y-100560095D01*
X129144780Y-100179142D01*
X129192400Y-100083904D01*
X129240019Y-100036285D01*
X129335257Y-99988666D01*
X129478114Y-99988666D01*
X129573352Y-100036285D01*
X129620971Y-100083904D01*
X129668590Y-100179142D01*
X129668590Y-100560095D01*
X129478114Y-99131523D02*
X130144780Y-99131523D01*
X129097161Y-99369619D02*
X129811447Y-99607714D01*
X129811447Y-98988666D01*
%TO.C,R3*%
X133167380Y-100242666D02*
X132691190Y-100576000D01*
X133167380Y-100814095D02*
X132167380Y-100814095D01*
X132167380Y-100433142D01*
X132215000Y-100337904D01*
X132262619Y-100290285D01*
X132357857Y-100242666D01*
X132500714Y-100242666D01*
X132595952Y-100290285D01*
X132643571Y-100337904D01*
X132691190Y-100433142D01*
X132691190Y-100814095D01*
X132167380Y-99909333D02*
X132167380Y-99290285D01*
X132548333Y-99623619D01*
X132548333Y-99480761D01*
X132595952Y-99385523D01*
X132643571Y-99337904D01*
X132738809Y-99290285D01*
X132976904Y-99290285D01*
X133072142Y-99337904D01*
X133119761Y-99385523D01*
X133167380Y-99480761D01*
X133167380Y-99766476D01*
X133119761Y-99861714D01*
X133072142Y-99909333D01*
%TO.C,D3*%
X129992380Y-97117095D02*
X128992380Y-97117095D01*
X128992380Y-96879000D01*
X129040000Y-96736142D01*
X129135238Y-96640904D01*
X129230476Y-96593285D01*
X129420952Y-96545666D01*
X129563809Y-96545666D01*
X129754285Y-96593285D01*
X129849523Y-96640904D01*
X129944761Y-96736142D01*
X129992380Y-96879000D01*
X129992380Y-97117095D01*
X128992380Y-96212333D02*
X128992380Y-95593285D01*
X129373333Y-95926619D01*
X129373333Y-95783761D01*
X129420952Y-95688523D01*
X129468571Y-95640904D01*
X129563809Y-95593285D01*
X129801904Y-95593285D01*
X129897142Y-95640904D01*
X129944761Y-95688523D01*
X129992380Y-95783761D01*
X129992380Y-96069476D01*
X129944761Y-96164714D01*
X129897142Y-96212333D01*
%TO.C,D2*%
X133040380Y-97117095D02*
X132040380Y-97117095D01*
X132040380Y-96879000D01*
X132088000Y-96736142D01*
X132183238Y-96640904D01*
X132278476Y-96593285D01*
X132468952Y-96545666D01*
X132611809Y-96545666D01*
X132802285Y-96593285D01*
X132897523Y-96640904D01*
X132992761Y-96736142D01*
X133040380Y-96879000D01*
X133040380Y-97117095D01*
X132135619Y-96164714D02*
X132088000Y-96117095D01*
X132040380Y-96021857D01*
X132040380Y-95783761D01*
X132088000Y-95688523D01*
X132135619Y-95640904D01*
X132230857Y-95593285D01*
X132326095Y-95593285D01*
X132468952Y-95640904D01*
X133040380Y-96212333D01*
X133040380Y-95593285D01*
%TO.C,C4*%
X109577142Y-107354666D02*
X109624761Y-107402285D01*
X109672380Y-107545142D01*
X109672380Y-107640380D01*
X109624761Y-107783238D01*
X109529523Y-107878476D01*
X109434285Y-107926095D01*
X109243809Y-107973714D01*
X109100952Y-107973714D01*
X108910476Y-107926095D01*
X108815238Y-107878476D01*
X108720000Y-107783238D01*
X108672380Y-107640380D01*
X108672380Y-107545142D01*
X108720000Y-107402285D01*
X108767619Y-107354666D01*
X109005714Y-106497523D02*
X109672380Y-106497523D01*
X108624761Y-106735619D02*
X109339047Y-106973714D01*
X109339047Y-106354666D01*
%TO.C,U3*%
X93345095Y-118832380D02*
X93345095Y-119641904D01*
X93392714Y-119737142D01*
X93440333Y-119784761D01*
X93535571Y-119832380D01*
X93726047Y-119832380D01*
X93821285Y-119784761D01*
X93868904Y-119737142D01*
X93916523Y-119641904D01*
X93916523Y-118832380D01*
X94297476Y-118832380D02*
X94916523Y-118832380D01*
X94583190Y-119213333D01*
X94726047Y-119213333D01*
X94821285Y-119260952D01*
X94868904Y-119308571D01*
X94916523Y-119403809D01*
X94916523Y-119641904D01*
X94868904Y-119737142D01*
X94821285Y-119784761D01*
X94726047Y-119832380D01*
X94440333Y-119832380D01*
X94345095Y-119784761D01*
X94297476Y-119737142D01*
%TO.C,J4*%
X125802380Y-114181333D02*
X126516666Y-114181333D01*
X126659523Y-114228952D01*
X126754761Y-114324190D01*
X126802380Y-114467047D01*
X126802380Y-114562285D01*
X126135714Y-113276571D02*
X126802380Y-113276571D01*
X125754761Y-113514666D02*
X126469047Y-113752761D01*
X126469047Y-113133714D01*
%TO.C,J1*%
X77390666Y-94448380D02*
X77390666Y-95162666D01*
X77343047Y-95305523D01*
X77247809Y-95400761D01*
X77104952Y-95448380D01*
X77009714Y-95448380D01*
X78390666Y-95448380D02*
X77819238Y-95448380D01*
X78104952Y-95448380D02*
X78104952Y-94448380D01*
X78009714Y-94591238D01*
X77914476Y-94686476D01*
X77819238Y-94734095D01*
%TO.C,U8*%
X93827695Y-95057980D02*
X93827695Y-95867504D01*
X93875314Y-95962742D01*
X93922933Y-96010361D01*
X94018171Y-96057980D01*
X94208647Y-96057980D01*
X94303885Y-96010361D01*
X94351504Y-95962742D01*
X94399123Y-95867504D01*
X94399123Y-95057980D01*
X95018171Y-95486552D02*
X94922933Y-95438933D01*
X94875314Y-95391314D01*
X94827695Y-95296076D01*
X94827695Y-95248457D01*
X94875314Y-95153219D01*
X94922933Y-95105600D01*
X95018171Y-95057980D01*
X95208647Y-95057980D01*
X95303885Y-95105600D01*
X95351504Y-95153219D01*
X95399123Y-95248457D01*
X95399123Y-95296076D01*
X95351504Y-95391314D01*
X95303885Y-95438933D01*
X95208647Y-95486552D01*
X95018171Y-95486552D01*
X94922933Y-95534171D01*
X94875314Y-95581790D01*
X94827695Y-95677028D01*
X94827695Y-95867504D01*
X94875314Y-95962742D01*
X94922933Y-96010361D01*
X95018171Y-96057980D01*
X95208647Y-96057980D01*
X95303885Y-96010361D01*
X95351504Y-95962742D01*
X95399123Y-95867504D01*
X95399123Y-95677028D01*
X95351504Y-95581790D01*
X95303885Y-95534171D01*
X95208647Y-95486552D01*
%TO.C,U7*%
X121158095Y-95972380D02*
X121158095Y-96781904D01*
X121205714Y-96877142D01*
X121253333Y-96924761D01*
X121348571Y-96972380D01*
X121539047Y-96972380D01*
X121634285Y-96924761D01*
X121681904Y-96877142D01*
X121729523Y-96781904D01*
X121729523Y-95972380D01*
X122110476Y-95972380D02*
X122777142Y-95972380D01*
X122348571Y-96972380D01*
%TO.C,U6*%
X112431580Y-100279104D02*
X113241104Y-100279104D01*
X113336342Y-100231485D01*
X113383961Y-100183866D01*
X113431580Y-100088628D01*
X113431580Y-99898152D01*
X113383961Y-99802914D01*
X113336342Y-99755295D01*
X113241104Y-99707676D01*
X112431580Y-99707676D01*
X112431580Y-98802914D02*
X112431580Y-98993390D01*
X112479200Y-99088628D01*
X112526819Y-99136247D01*
X112669676Y-99231485D01*
X112860152Y-99279104D01*
X113241104Y-99279104D01*
X113336342Y-99231485D01*
X113383961Y-99183866D01*
X113431580Y-99088628D01*
X113431580Y-98898152D01*
X113383961Y-98802914D01*
X113336342Y-98755295D01*
X113241104Y-98707676D01*
X113003009Y-98707676D01*
X112907771Y-98755295D01*
X112860152Y-98802914D01*
X112812533Y-98898152D01*
X112812533Y-99088628D01*
X112860152Y-99183866D01*
X112907771Y-99231485D01*
X113003009Y-99279104D01*
%TO.C,U4*%
X87693595Y-118832380D02*
X87693595Y-119641904D01*
X87741214Y-119737142D01*
X87788833Y-119784761D01*
X87884071Y-119832380D01*
X88074547Y-119832380D01*
X88169785Y-119784761D01*
X88217404Y-119737142D01*
X88265023Y-119641904D01*
X88265023Y-118832380D01*
X89169785Y-119165714D02*
X89169785Y-119832380D01*
X88931690Y-118784761D02*
X88693595Y-119499047D01*
X89312642Y-119499047D01*
%TO.C,R12*%
X128468380Y-102242857D02*
X127992190Y-102576190D01*
X128468380Y-102814285D02*
X127468380Y-102814285D01*
X127468380Y-102433333D01*
X127516000Y-102338095D01*
X127563619Y-102290476D01*
X127658857Y-102242857D01*
X127801714Y-102242857D01*
X127896952Y-102290476D01*
X127944571Y-102338095D01*
X127992190Y-102433333D01*
X127992190Y-102814285D01*
X128468380Y-101290476D02*
X128468380Y-101861904D01*
X128468380Y-101576190D02*
X127468380Y-101576190D01*
X127611238Y-101671428D01*
X127706476Y-101766666D01*
X127754095Y-101861904D01*
X127563619Y-100909523D02*
X127516000Y-100861904D01*
X127468380Y-100766666D01*
X127468380Y-100528571D01*
X127516000Y-100433333D01*
X127563619Y-100385714D01*
X127658857Y-100338095D01*
X127754095Y-100338095D01*
X127896952Y-100385714D01*
X128468380Y-100957142D01*
X128468380Y-100338095D01*
%TO.C,R11*%
X120289580Y-99245657D02*
X119813390Y-99578990D01*
X120289580Y-99817085D02*
X119289580Y-99817085D01*
X119289580Y-99436133D01*
X119337200Y-99340895D01*
X119384819Y-99293276D01*
X119480057Y-99245657D01*
X119622914Y-99245657D01*
X119718152Y-99293276D01*
X119765771Y-99340895D01*
X119813390Y-99436133D01*
X119813390Y-99817085D01*
X120289580Y-98293276D02*
X120289580Y-98864704D01*
X120289580Y-98578990D02*
X119289580Y-98578990D01*
X119432438Y-98674228D01*
X119527676Y-98769466D01*
X119575295Y-98864704D01*
X120289580Y-97340895D02*
X120289580Y-97912323D01*
X120289580Y-97626609D02*
X119289580Y-97626609D01*
X119432438Y-97721847D01*
X119527676Y-97817085D01*
X119575295Y-97912323D01*
%TO.C,R9*%
X89657180Y-109970866D02*
X89180990Y-110304200D01*
X89657180Y-110542295D02*
X88657180Y-110542295D01*
X88657180Y-110161342D01*
X88704800Y-110066104D01*
X88752419Y-110018485D01*
X88847657Y-109970866D01*
X88990514Y-109970866D01*
X89085752Y-110018485D01*
X89133371Y-110066104D01*
X89180990Y-110161342D01*
X89180990Y-110542295D01*
X89657180Y-109494676D02*
X89657180Y-109304200D01*
X89609561Y-109208961D01*
X89561942Y-109161342D01*
X89419085Y-109066104D01*
X89228609Y-109018485D01*
X88847657Y-109018485D01*
X88752419Y-109066104D01*
X88704800Y-109113723D01*
X88657180Y-109208961D01*
X88657180Y-109399438D01*
X88704800Y-109494676D01*
X88752419Y-109542295D01*
X88847657Y-109589914D01*
X89085752Y-109589914D01*
X89180990Y-109542295D01*
X89228609Y-109494676D01*
X89276228Y-109399438D01*
X89276228Y-109208961D01*
X89228609Y-109113723D01*
X89180990Y-109066104D01*
X89085752Y-109018485D01*
%TO.C,R8*%
X87625180Y-110097866D02*
X87148990Y-110431200D01*
X87625180Y-110669295D02*
X86625180Y-110669295D01*
X86625180Y-110288342D01*
X86672800Y-110193104D01*
X86720419Y-110145485D01*
X86815657Y-110097866D01*
X86958514Y-110097866D01*
X87053752Y-110145485D01*
X87101371Y-110193104D01*
X87148990Y-110288342D01*
X87148990Y-110669295D01*
X87053752Y-109526438D02*
X87006133Y-109621676D01*
X86958514Y-109669295D01*
X86863276Y-109716914D01*
X86815657Y-109716914D01*
X86720419Y-109669295D01*
X86672800Y-109621676D01*
X86625180Y-109526438D01*
X86625180Y-109335961D01*
X86672800Y-109240723D01*
X86720419Y-109193104D01*
X86815657Y-109145485D01*
X86863276Y-109145485D01*
X86958514Y-109193104D01*
X87006133Y-109240723D01*
X87053752Y-109335961D01*
X87053752Y-109526438D01*
X87101371Y-109621676D01*
X87148990Y-109669295D01*
X87244228Y-109716914D01*
X87434704Y-109716914D01*
X87529942Y-109669295D01*
X87577561Y-109621676D01*
X87625180Y-109526438D01*
X87625180Y-109335961D01*
X87577561Y-109240723D01*
X87529942Y-109193104D01*
X87434704Y-109145485D01*
X87244228Y-109145485D01*
X87148990Y-109193104D01*
X87101371Y-109240723D01*
X87053752Y-109335961D01*
%TO.C,R7*%
X85593180Y-110097866D02*
X85116990Y-110431200D01*
X85593180Y-110669295D02*
X84593180Y-110669295D01*
X84593180Y-110288342D01*
X84640800Y-110193104D01*
X84688419Y-110145485D01*
X84783657Y-110097866D01*
X84926514Y-110097866D01*
X85021752Y-110145485D01*
X85069371Y-110193104D01*
X85116990Y-110288342D01*
X85116990Y-110669295D01*
X84593180Y-109764533D02*
X84593180Y-109097866D01*
X85593180Y-109526438D01*
%TO.C,R6*%
X94575333Y-109570780D02*
X94242000Y-109094590D01*
X94003904Y-109570780D02*
X94003904Y-108570780D01*
X94384857Y-108570780D01*
X94480095Y-108618400D01*
X94527714Y-108666019D01*
X94575333Y-108761257D01*
X94575333Y-108904114D01*
X94527714Y-108999352D01*
X94480095Y-109046971D01*
X94384857Y-109094590D01*
X94003904Y-109094590D01*
X95432476Y-108570780D02*
X95242000Y-108570780D01*
X95146761Y-108618400D01*
X95099142Y-108666019D01*
X95003904Y-108808876D01*
X94956285Y-108999352D01*
X94956285Y-109380304D01*
X95003904Y-109475542D01*
X95051523Y-109523161D01*
X95146761Y-109570780D01*
X95337238Y-109570780D01*
X95432476Y-109523161D01*
X95480095Y-109475542D01*
X95527714Y-109380304D01*
X95527714Y-109142209D01*
X95480095Y-109046971D01*
X95432476Y-108999352D01*
X95337238Y-108951733D01*
X95146761Y-108951733D01*
X95051523Y-108999352D01*
X95003904Y-109046971D01*
X94956285Y-109142209D01*
%TO.C,R2*%
X99972833Y-121864380D02*
X99639500Y-121388190D01*
X99401404Y-121864380D02*
X99401404Y-120864380D01*
X99782357Y-120864380D01*
X99877595Y-120912000D01*
X99925214Y-120959619D01*
X99972833Y-121054857D01*
X99972833Y-121197714D01*
X99925214Y-121292952D01*
X99877595Y-121340571D01*
X99782357Y-121388190D01*
X99401404Y-121388190D01*
X100353785Y-120959619D02*
X100401404Y-120912000D01*
X100496642Y-120864380D01*
X100734738Y-120864380D01*
X100829976Y-120912000D01*
X100877595Y-120959619D01*
X100925214Y-121054857D01*
X100925214Y-121150095D01*
X100877595Y-121292952D01*
X100306166Y-121864380D01*
X100925214Y-121864380D01*
%TO.C,R1*%
X102957333Y-113736380D02*
X102624000Y-113260190D01*
X102385904Y-113736380D02*
X102385904Y-112736380D01*
X102766857Y-112736380D01*
X102862095Y-112784000D01*
X102909714Y-112831619D01*
X102957333Y-112926857D01*
X102957333Y-113069714D01*
X102909714Y-113164952D01*
X102862095Y-113212571D01*
X102766857Y-113260190D01*
X102385904Y-113260190D01*
X103909714Y-113736380D02*
X103338285Y-113736380D01*
X103624000Y-113736380D02*
X103624000Y-112736380D01*
X103528761Y-112879238D01*
X103433523Y-112974476D01*
X103338285Y-113022095D01*
%TO.C,Q3*%
X124872761Y-106211619D02*
X124777523Y-106164000D01*
X124682285Y-106068761D01*
X124539428Y-105925904D01*
X124444190Y-105878285D01*
X124348952Y-105878285D01*
X124396571Y-106116380D02*
X124301333Y-106068761D01*
X124206095Y-105973523D01*
X124158476Y-105783047D01*
X124158476Y-105449714D01*
X124206095Y-105259238D01*
X124301333Y-105164000D01*
X124396571Y-105116380D01*
X124587047Y-105116380D01*
X124682285Y-105164000D01*
X124777523Y-105259238D01*
X124825142Y-105449714D01*
X124825142Y-105783047D01*
X124777523Y-105973523D01*
X124682285Y-106068761D01*
X124587047Y-106116380D01*
X124396571Y-106116380D01*
X125158476Y-105116380D02*
X125777523Y-105116380D01*
X125444190Y-105497333D01*
X125587047Y-105497333D01*
X125682285Y-105544952D01*
X125729904Y-105592571D01*
X125777523Y-105687809D01*
X125777523Y-105925904D01*
X125729904Y-106021142D01*
X125682285Y-106068761D01*
X125587047Y-106116380D01*
X125301333Y-106116380D01*
X125206095Y-106068761D01*
X125158476Y-106021142D01*
%TO.C,Q2*%
X116744761Y-106211619D02*
X116649523Y-106164000D01*
X116554285Y-106068761D01*
X116411428Y-105925904D01*
X116316190Y-105878285D01*
X116220952Y-105878285D01*
X116268571Y-106116380D02*
X116173333Y-106068761D01*
X116078095Y-105973523D01*
X116030476Y-105783047D01*
X116030476Y-105449714D01*
X116078095Y-105259238D01*
X116173333Y-105164000D01*
X116268571Y-105116380D01*
X116459047Y-105116380D01*
X116554285Y-105164000D01*
X116649523Y-105259238D01*
X116697142Y-105449714D01*
X116697142Y-105783047D01*
X116649523Y-105973523D01*
X116554285Y-106068761D01*
X116459047Y-106116380D01*
X116268571Y-106116380D01*
X117078095Y-105211619D02*
X117125714Y-105164000D01*
X117220952Y-105116380D01*
X117459047Y-105116380D01*
X117554285Y-105164000D01*
X117601904Y-105211619D01*
X117649523Y-105306857D01*
X117649523Y-105402095D01*
X117601904Y-105544952D01*
X117030476Y-106116380D01*
X117649523Y-106116380D01*
%TO.C,C8*%
X127712742Y-95670666D02*
X127760361Y-95718285D01*
X127807980Y-95861142D01*
X127807980Y-95956380D01*
X127760361Y-96099238D01*
X127665123Y-96194476D01*
X127569885Y-96242095D01*
X127379409Y-96289714D01*
X127236552Y-96289714D01*
X127046076Y-96242095D01*
X126950838Y-96194476D01*
X126855600Y-96099238D01*
X126807980Y-95956380D01*
X126807980Y-95861142D01*
X126855600Y-95718285D01*
X126903219Y-95670666D01*
X127236552Y-95099238D02*
X127188933Y-95194476D01*
X127141314Y-95242095D01*
X127046076Y-95289714D01*
X126998457Y-95289714D01*
X126903219Y-95242095D01*
X126855600Y-95194476D01*
X126807980Y-95099238D01*
X126807980Y-94908761D01*
X126855600Y-94813523D01*
X126903219Y-94765904D01*
X126998457Y-94718285D01*
X127046076Y-94718285D01*
X127141314Y-94765904D01*
X127188933Y-94813523D01*
X127236552Y-94908761D01*
X127236552Y-95099238D01*
X127284171Y-95194476D01*
X127331790Y-95242095D01*
X127427028Y-95289714D01*
X127617504Y-95289714D01*
X127712742Y-95242095D01*
X127760361Y-95194476D01*
X127807980Y-95099238D01*
X127807980Y-94908761D01*
X127760361Y-94813523D01*
X127712742Y-94765904D01*
X127617504Y-94718285D01*
X127427028Y-94718285D01*
X127331790Y-94765904D01*
X127284171Y-94813523D01*
X127236552Y-94908761D01*
%TO.C,C7*%
X118314742Y-95670666D02*
X118362361Y-95718285D01*
X118409980Y-95861142D01*
X118409980Y-95956380D01*
X118362361Y-96099238D01*
X118267123Y-96194476D01*
X118171885Y-96242095D01*
X117981409Y-96289714D01*
X117838552Y-96289714D01*
X117648076Y-96242095D01*
X117552838Y-96194476D01*
X117457600Y-96099238D01*
X117409980Y-95956380D01*
X117409980Y-95861142D01*
X117457600Y-95718285D01*
X117505219Y-95670666D01*
X117409980Y-95337333D02*
X117409980Y-94670666D01*
X118409980Y-95099238D01*
%TO.C,C6*%
X121464342Y-99175866D02*
X121511961Y-99223485D01*
X121559580Y-99366342D01*
X121559580Y-99461580D01*
X121511961Y-99604438D01*
X121416723Y-99699676D01*
X121321485Y-99747295D01*
X121131009Y-99794914D01*
X120988152Y-99794914D01*
X120797676Y-99747295D01*
X120702438Y-99699676D01*
X120607200Y-99604438D01*
X120559580Y-99461580D01*
X120559580Y-99366342D01*
X120607200Y-99223485D01*
X120654819Y-99175866D01*
X120559580Y-98318723D02*
X120559580Y-98509200D01*
X120607200Y-98604438D01*
X120654819Y-98652057D01*
X120797676Y-98747295D01*
X120988152Y-98794914D01*
X121369104Y-98794914D01*
X121464342Y-98747295D01*
X121511961Y-98699676D01*
X121559580Y-98604438D01*
X121559580Y-98413961D01*
X121511961Y-98318723D01*
X121464342Y-98271104D01*
X121369104Y-98223485D01*
X121131009Y-98223485D01*
X121035771Y-98271104D01*
X120988152Y-98318723D01*
X120940533Y-98413961D01*
X120940533Y-98604438D01*
X120988152Y-98699676D01*
X121035771Y-98747295D01*
X121131009Y-98794914D01*
%TO.C,C2*%
X103109733Y-122531142D02*
X103062114Y-122578761D01*
X102919257Y-122626380D01*
X102824019Y-122626380D01*
X102681161Y-122578761D01*
X102585923Y-122483523D01*
X102538304Y-122388285D01*
X102490685Y-122197809D01*
X102490685Y-122054952D01*
X102538304Y-121864476D01*
X102585923Y-121769238D01*
X102681161Y-121674000D01*
X102824019Y-121626380D01*
X102919257Y-121626380D01*
X103062114Y-121674000D01*
X103109733Y-121721619D01*
X103490685Y-121721619D02*
X103538304Y-121674000D01*
X103633542Y-121626380D01*
X103871638Y-121626380D01*
X103966876Y-121674000D01*
X104014495Y-121721619D01*
X104062114Y-121816857D01*
X104062114Y-121912095D01*
X104014495Y-122054952D01*
X103443066Y-122626380D01*
X104062114Y-122626380D01*
D11*
%TO.C,BZ1*%
X70425000Y-121853000D02*
X73085000Y-121853000D01*
X70425000Y-119253000D02*
X70425000Y-121853000D01*
X73085000Y-119253000D02*
X73085000Y-121853000D01*
X70425000Y-119253000D02*
X73085000Y-119253000D01*
X70425000Y-117983000D02*
X70425000Y-116653000D01*
X70425000Y-116653000D02*
X71755000Y-116653000D01*
%TO.C,Q1*%
X74685678Y-112258322D02*
G75*
G02*
X72847200Y-116696800I-1838478J-1838478D01*
G01*
X71008722Y-112258322D02*
G75*
G03*
X72847200Y-116696800I1838478J-1838478D01*
G01*
X74647200Y-112246800D02*
X71047200Y-112246800D01*
%TO.C,R13*%
X78631200Y-113233200D02*
G75*
G03*
X78631200Y-113233200I-1720000J0D01*
G01*
X77499475Y-114849471D02*
X78272440Y-116973177D01*
%TO.C,C1*%
X93876400Y-104489467D02*
X93876400Y-104196933D01*
X94896400Y-104489467D02*
X94896400Y-104196933D01*
%TO.C,J3*%
X100117600Y-105165200D02*
X102777600Y-105165200D01*
X100117600Y-97485200D02*
X100117600Y-105165200D01*
X102777600Y-97485200D02*
X102777600Y-105165200D01*
X100117600Y-97485200D02*
X102777600Y-97485200D01*
X100117600Y-96215200D02*
X100117600Y-94885200D01*
X100117600Y-94885200D02*
X101447600Y-94885200D01*
%TO.C,R14*%
X82056500Y-102107276D02*
X82056500Y-102616724D01*
X81011500Y-102107276D02*
X81011500Y-102616724D01*
%TO.C,D4*%
X130992800Y-103137600D02*
X130992800Y-104837600D01*
X130992800Y-104837600D02*
X134142800Y-104837600D01*
X130992800Y-103137600D02*
X134142800Y-103137600D01*
%TO.C,D1*%
X80799000Y-95720000D02*
X80799000Y-98180000D01*
X80799000Y-98180000D02*
X82269000Y-98180000D01*
X82269000Y-98180000D02*
X82269000Y-95720000D01*
%TO.C,U5*%
X110338000Y-114681000D02*
X110338000Y-112396000D01*
X110338000Y-114681000D02*
X110338000Y-116966000D01*
X105308000Y-114681000D02*
X105308000Y-112396000D01*
X105308000Y-114681000D02*
X105308000Y-120256000D01*
%TO.C,C5*%
X125972000Y-109728000D02*
G75*
G03*
X125972000Y-109728000I-3270000J0D01*
G01*
X122702000Y-112958000D02*
X122702000Y-106498000D01*
X122662000Y-112958000D02*
X122662000Y-106498000D01*
X122622000Y-112958000D02*
X122622000Y-106498000D01*
X122582000Y-112956000D02*
X122582000Y-106500000D01*
X122542000Y-112955000D02*
X122542000Y-106501000D01*
X122502000Y-112952000D02*
X122502000Y-106504000D01*
X122462000Y-112950000D02*
X122462000Y-110768000D01*
X122462000Y-108688000D02*
X122462000Y-106506000D01*
X122422000Y-112946000D02*
X122422000Y-110768000D01*
X122422000Y-108688000D02*
X122422000Y-106510000D01*
X122382000Y-112943000D02*
X122382000Y-110768000D01*
X122382000Y-108688000D02*
X122382000Y-106513000D01*
X122342000Y-112939000D02*
X122342000Y-110768000D01*
X122342000Y-108688000D02*
X122342000Y-106517000D01*
X122302000Y-112934000D02*
X122302000Y-110768000D01*
X122302000Y-108688000D02*
X122302000Y-106522000D01*
X122262000Y-112929000D02*
X122262000Y-110768000D01*
X122262000Y-108688000D02*
X122262000Y-106527000D01*
X122222000Y-112923000D02*
X122222000Y-110768000D01*
X122222000Y-108688000D02*
X122222000Y-106533000D01*
X122182000Y-112917000D02*
X122182000Y-110768000D01*
X122182000Y-108688000D02*
X122182000Y-106539000D01*
X122142000Y-112910000D02*
X122142000Y-110768000D01*
X122142000Y-108688000D02*
X122142000Y-106546000D01*
X122102000Y-112903000D02*
X122102000Y-110768000D01*
X122102000Y-108688000D02*
X122102000Y-106553000D01*
X122062000Y-112895000D02*
X122062000Y-110768000D01*
X122062000Y-108688000D02*
X122062000Y-106561000D01*
X122022000Y-112887000D02*
X122022000Y-110768000D01*
X122022000Y-108688000D02*
X122022000Y-106569000D01*
X121981000Y-112878000D02*
X121981000Y-110768000D01*
X121981000Y-108688000D02*
X121981000Y-106578000D01*
X121941000Y-112869000D02*
X121941000Y-110768000D01*
X121941000Y-108688000D02*
X121941000Y-106587000D01*
X121901000Y-112859000D02*
X121901000Y-110768000D01*
X121901000Y-108688000D02*
X121901000Y-106597000D01*
X121861000Y-112849000D02*
X121861000Y-110768000D01*
X121861000Y-108688000D02*
X121861000Y-106607000D01*
X121821000Y-112838000D02*
X121821000Y-110768000D01*
X121821000Y-108688000D02*
X121821000Y-106618000D01*
X121781000Y-112826000D02*
X121781000Y-110768000D01*
X121781000Y-108688000D02*
X121781000Y-106630000D01*
X121741000Y-112814000D02*
X121741000Y-110768000D01*
X121741000Y-108688000D02*
X121741000Y-106642000D01*
X121701000Y-112802000D02*
X121701000Y-110768000D01*
X121701000Y-108688000D02*
X121701000Y-106654000D01*
X121661000Y-112789000D02*
X121661000Y-110768000D01*
X121661000Y-108688000D02*
X121661000Y-106667000D01*
X121621000Y-112775000D02*
X121621000Y-110768000D01*
X121621000Y-108688000D02*
X121621000Y-106681000D01*
X121581000Y-112761000D02*
X121581000Y-110768000D01*
X121581000Y-108688000D02*
X121581000Y-106695000D01*
X121541000Y-112746000D02*
X121541000Y-110768000D01*
X121541000Y-108688000D02*
X121541000Y-106710000D01*
X121501000Y-112730000D02*
X121501000Y-110768000D01*
X121501000Y-108688000D02*
X121501000Y-106726000D01*
X121461000Y-112714000D02*
X121461000Y-110768000D01*
X121461000Y-108688000D02*
X121461000Y-106742000D01*
X121421000Y-112698000D02*
X121421000Y-110768000D01*
X121421000Y-108688000D02*
X121421000Y-106758000D01*
X121381000Y-112680000D02*
X121381000Y-110768000D01*
X121381000Y-108688000D02*
X121381000Y-106776000D01*
X121341000Y-112662000D02*
X121341000Y-110768000D01*
X121341000Y-108688000D02*
X121341000Y-106794000D01*
X121301000Y-112644000D02*
X121301000Y-110768000D01*
X121301000Y-108688000D02*
X121301000Y-106812000D01*
X121261000Y-112624000D02*
X121261000Y-110768000D01*
X121261000Y-108688000D02*
X121261000Y-106832000D01*
X121221000Y-112604000D02*
X121221000Y-110768000D01*
X121221000Y-108688000D02*
X121221000Y-106852000D01*
X121181000Y-112584000D02*
X121181000Y-110768000D01*
X121181000Y-108688000D02*
X121181000Y-106872000D01*
X121141000Y-112562000D02*
X121141000Y-110768000D01*
X121141000Y-108688000D02*
X121141000Y-106894000D01*
X121101000Y-112540000D02*
X121101000Y-110768000D01*
X121101000Y-108688000D02*
X121101000Y-106916000D01*
X121061000Y-112518000D02*
X121061000Y-110768000D01*
X121061000Y-108688000D02*
X121061000Y-106938000D01*
X121021000Y-112494000D02*
X121021000Y-110768000D01*
X121021000Y-108688000D02*
X121021000Y-106962000D01*
X120981000Y-112470000D02*
X120981000Y-110768000D01*
X120981000Y-108688000D02*
X120981000Y-106986000D01*
X120941000Y-112444000D02*
X120941000Y-110768000D01*
X120941000Y-108688000D02*
X120941000Y-107012000D01*
X120901000Y-112418000D02*
X120901000Y-110768000D01*
X120901000Y-108688000D02*
X120901000Y-107038000D01*
X120861000Y-112392000D02*
X120861000Y-110768000D01*
X120861000Y-108688000D02*
X120861000Y-107064000D01*
X120821000Y-112364000D02*
X120821000Y-110768000D01*
X120821000Y-108688000D02*
X120821000Y-107092000D01*
X120781000Y-112335000D02*
X120781000Y-110768000D01*
X120781000Y-108688000D02*
X120781000Y-107121000D01*
X120741000Y-112306000D02*
X120741000Y-110768000D01*
X120741000Y-108688000D02*
X120741000Y-107150000D01*
X120701000Y-112276000D02*
X120701000Y-110768000D01*
X120701000Y-108688000D02*
X120701000Y-107180000D01*
X120661000Y-112244000D02*
X120661000Y-110768000D01*
X120661000Y-108688000D02*
X120661000Y-107212000D01*
X120621000Y-112212000D02*
X120621000Y-110768000D01*
X120621000Y-108688000D02*
X120621000Y-107244000D01*
X120581000Y-112178000D02*
X120581000Y-110768000D01*
X120581000Y-108688000D02*
X120581000Y-107278000D01*
X120541000Y-112144000D02*
X120541000Y-110768000D01*
X120541000Y-108688000D02*
X120541000Y-107312000D01*
X120501000Y-112108000D02*
X120501000Y-110768000D01*
X120501000Y-108688000D02*
X120501000Y-107348000D01*
X120461000Y-112071000D02*
X120461000Y-110768000D01*
X120461000Y-108688000D02*
X120461000Y-107385000D01*
X120421000Y-112033000D02*
X120421000Y-110768000D01*
X120421000Y-108688000D02*
X120421000Y-107423000D01*
X120381000Y-111993000D02*
X120381000Y-107463000D01*
X120341000Y-111952000D02*
X120341000Y-107504000D01*
X120301000Y-111910000D02*
X120301000Y-107546000D01*
X120261000Y-111865000D02*
X120261000Y-107591000D01*
X120221000Y-111820000D02*
X120221000Y-107636000D01*
X120181000Y-111772000D02*
X120181000Y-107684000D01*
X120141000Y-111723000D02*
X120141000Y-107733000D01*
X120101000Y-111672000D02*
X120101000Y-107784000D01*
X120061000Y-111618000D02*
X120061000Y-107838000D01*
X120021000Y-111562000D02*
X120021000Y-107894000D01*
X119981000Y-111504000D02*
X119981000Y-107952000D01*
X119941000Y-111442000D02*
X119941000Y-108014000D01*
X119901000Y-111378000D02*
X119901000Y-108078000D01*
X119861000Y-111309000D02*
X119861000Y-108147000D01*
X119821000Y-111237000D02*
X119821000Y-108219000D01*
X119781000Y-111160000D02*
X119781000Y-108296000D01*
X119741000Y-111078000D02*
X119741000Y-108378000D01*
X119701000Y-110990000D02*
X119701000Y-108466000D01*
X119661000Y-110893000D02*
X119661000Y-108563000D01*
X119621000Y-110787000D02*
X119621000Y-108669000D01*
X119581000Y-110668000D02*
X119581000Y-108788000D01*
X119541000Y-110530000D02*
X119541000Y-108926000D01*
X119501000Y-110361000D02*
X119501000Y-109095000D01*
X119461000Y-110130000D02*
X119461000Y-109326000D01*
X126202241Y-111567000D02*
X125572241Y-111567000D01*
X125887241Y-111882000D02*
X125887241Y-111252000D01*
%TO.C,C3*%
X74209600Y-121878400D02*
X76869600Y-121878400D01*
X74209600Y-119278400D02*
X74209600Y-121878400D01*
X76869600Y-119278400D02*
X76869600Y-121878400D01*
X74209600Y-119278400D02*
X76869600Y-119278400D01*
X74209600Y-118008400D02*
X74209600Y-116678400D01*
X74209600Y-116678400D02*
X75539600Y-116678400D01*
%TO.C,R10*%
X91553576Y-105344700D02*
X92063024Y-105344700D01*
X91553576Y-106389700D02*
X92063024Y-106389700D01*
%TO.C,J2*%
X137581400Y-102318600D02*
X137131400Y-102318600D01*
X137131400Y-101868600D02*
X137131400Y-102318600D01*
X137811400Y-104318600D02*
X137811400Y-103898600D01*
X139791400Y-104318600D02*
X137811400Y-104318600D01*
X142161400Y-104318600D02*
X141761400Y-104318600D01*
X141761400Y-96798600D02*
X142161400Y-96798600D01*
X137811400Y-96798600D02*
X137811400Y-97218600D01*
X139791400Y-96798600D02*
X137811400Y-96798600D01*
%TO.C,BT1*%
X141624000Y-122846000D02*
X141624000Y-143346000D01*
X64624000Y-122846000D02*
X64624000Y-143346000D01*
X141624000Y-122846000D02*
X64624000Y-122846000D01*
X64624000Y-143346000D02*
X141624000Y-143346000D01*
%TO.C,C9*%
X125887241Y-120010000D02*
X125887241Y-119380000D01*
X126202241Y-119695000D02*
X125572241Y-119695000D01*
X119461000Y-118258000D02*
X119461000Y-117454000D01*
X119501000Y-118489000D02*
X119501000Y-117223000D01*
X119541000Y-118658000D02*
X119541000Y-117054000D01*
X119581000Y-118796000D02*
X119581000Y-116916000D01*
X119621000Y-118915000D02*
X119621000Y-116797000D01*
X119661000Y-119021000D02*
X119661000Y-116691000D01*
X119701000Y-119118000D02*
X119701000Y-116594000D01*
X119741000Y-119206000D02*
X119741000Y-116506000D01*
X119781000Y-119288000D02*
X119781000Y-116424000D01*
X119821000Y-119365000D02*
X119821000Y-116347000D01*
X119861000Y-119437000D02*
X119861000Y-116275000D01*
X119901000Y-119506000D02*
X119901000Y-116206000D01*
X119941000Y-119570000D02*
X119941000Y-116142000D01*
X119981000Y-119632000D02*
X119981000Y-116080000D01*
X120021000Y-119690000D02*
X120021000Y-116022000D01*
X120061000Y-119746000D02*
X120061000Y-115966000D01*
X120101000Y-119800000D02*
X120101000Y-115912000D01*
X120141000Y-119851000D02*
X120141000Y-115861000D01*
X120181000Y-119900000D02*
X120181000Y-115812000D01*
X120221000Y-119948000D02*
X120221000Y-115764000D01*
X120261000Y-119993000D02*
X120261000Y-115719000D01*
X120301000Y-120038000D02*
X120301000Y-115674000D01*
X120341000Y-120080000D02*
X120341000Y-115632000D01*
X120381000Y-120121000D02*
X120381000Y-115591000D01*
X120421000Y-116816000D02*
X120421000Y-115551000D01*
X120421000Y-120161000D02*
X120421000Y-118896000D01*
X120461000Y-116816000D02*
X120461000Y-115513000D01*
X120461000Y-120199000D02*
X120461000Y-118896000D01*
X120501000Y-116816000D02*
X120501000Y-115476000D01*
X120501000Y-120236000D02*
X120501000Y-118896000D01*
X120541000Y-116816000D02*
X120541000Y-115440000D01*
X120541000Y-120272000D02*
X120541000Y-118896000D01*
X120581000Y-116816000D02*
X120581000Y-115406000D01*
X120581000Y-120306000D02*
X120581000Y-118896000D01*
X120621000Y-116816000D02*
X120621000Y-115372000D01*
X120621000Y-120340000D02*
X120621000Y-118896000D01*
X120661000Y-116816000D02*
X120661000Y-115340000D01*
X120661000Y-120372000D02*
X120661000Y-118896000D01*
X120701000Y-116816000D02*
X120701000Y-115308000D01*
X120701000Y-120404000D02*
X120701000Y-118896000D01*
X120741000Y-116816000D02*
X120741000Y-115278000D01*
X120741000Y-120434000D02*
X120741000Y-118896000D01*
X120781000Y-116816000D02*
X120781000Y-115249000D01*
X120781000Y-120463000D02*
X120781000Y-118896000D01*
X120821000Y-116816000D02*
X120821000Y-115220000D01*
X120821000Y-120492000D02*
X120821000Y-118896000D01*
X120861000Y-116816000D02*
X120861000Y-115192000D01*
X120861000Y-120520000D02*
X120861000Y-118896000D01*
X120901000Y-116816000D02*
X120901000Y-115166000D01*
X120901000Y-120546000D02*
X120901000Y-118896000D01*
X120941000Y-116816000D02*
X120941000Y-115140000D01*
X120941000Y-120572000D02*
X120941000Y-118896000D01*
X120981000Y-116816000D02*
X120981000Y-115114000D01*
X120981000Y-120598000D02*
X120981000Y-118896000D01*
X121021000Y-116816000D02*
X121021000Y-115090000D01*
X121021000Y-120622000D02*
X121021000Y-118896000D01*
X121061000Y-116816000D02*
X121061000Y-115066000D01*
X121061000Y-120646000D02*
X121061000Y-118896000D01*
X121101000Y-116816000D02*
X121101000Y-115044000D01*
X121101000Y-120668000D02*
X121101000Y-118896000D01*
X121141000Y-116816000D02*
X121141000Y-115022000D01*
X121141000Y-120690000D02*
X121141000Y-118896000D01*
X121181000Y-116816000D02*
X121181000Y-115000000D01*
X121181000Y-120712000D02*
X121181000Y-118896000D01*
X121221000Y-116816000D02*
X121221000Y-114980000D01*
X121221000Y-120732000D02*
X121221000Y-118896000D01*
X121261000Y-116816000D02*
X121261000Y-114960000D01*
X121261000Y-120752000D02*
X121261000Y-118896000D01*
X121301000Y-116816000D02*
X121301000Y-114940000D01*
X121301000Y-120772000D02*
X121301000Y-118896000D01*
X121341000Y-116816000D02*
X121341000Y-114922000D01*
X121341000Y-120790000D02*
X121341000Y-118896000D01*
X121381000Y-116816000D02*
X121381000Y-114904000D01*
X121381000Y-120808000D02*
X121381000Y-118896000D01*
X121421000Y-116816000D02*
X121421000Y-114886000D01*
X121421000Y-120826000D02*
X121421000Y-118896000D01*
X121461000Y-116816000D02*
X121461000Y-114870000D01*
X121461000Y-120842000D02*
X121461000Y-118896000D01*
X121501000Y-116816000D02*
X121501000Y-114854000D01*
X121501000Y-120858000D02*
X121501000Y-118896000D01*
X121541000Y-116816000D02*
X121541000Y-114838000D01*
X121541000Y-120874000D02*
X121541000Y-118896000D01*
X121581000Y-116816000D02*
X121581000Y-114823000D01*
X121581000Y-120889000D02*
X121581000Y-118896000D01*
X121621000Y-116816000D02*
X121621000Y-114809000D01*
X121621000Y-120903000D02*
X121621000Y-118896000D01*
X121661000Y-116816000D02*
X121661000Y-114795000D01*
X121661000Y-120917000D02*
X121661000Y-118896000D01*
X121701000Y-116816000D02*
X121701000Y-114782000D01*
X121701000Y-120930000D02*
X121701000Y-118896000D01*
X121741000Y-116816000D02*
X121741000Y-114770000D01*
X121741000Y-120942000D02*
X121741000Y-118896000D01*
X121781000Y-116816000D02*
X121781000Y-114758000D01*
X121781000Y-120954000D02*
X121781000Y-118896000D01*
X121821000Y-116816000D02*
X121821000Y-114746000D01*
X121821000Y-120966000D02*
X121821000Y-118896000D01*
X121861000Y-116816000D02*
X121861000Y-114735000D01*
X121861000Y-120977000D02*
X121861000Y-118896000D01*
X121901000Y-116816000D02*
X121901000Y-114725000D01*
X121901000Y-120987000D02*
X121901000Y-118896000D01*
X121941000Y-116816000D02*
X121941000Y-114715000D01*
X121941000Y-120997000D02*
X121941000Y-118896000D01*
X121981000Y-116816000D02*
X121981000Y-114706000D01*
X121981000Y-121006000D02*
X121981000Y-118896000D01*
X122022000Y-116816000D02*
X122022000Y-114697000D01*
X122022000Y-121015000D02*
X122022000Y-118896000D01*
X122062000Y-116816000D02*
X122062000Y-114689000D01*
X122062000Y-121023000D02*
X122062000Y-118896000D01*
X122102000Y-116816000D02*
X122102000Y-114681000D01*
X122102000Y-121031000D02*
X122102000Y-118896000D01*
X122142000Y-116816000D02*
X122142000Y-114674000D01*
X122142000Y-121038000D02*
X122142000Y-118896000D01*
X122182000Y-116816000D02*
X122182000Y-114667000D01*
X122182000Y-121045000D02*
X122182000Y-118896000D01*
X122222000Y-116816000D02*
X122222000Y-114661000D01*
X122222000Y-121051000D02*
X122222000Y-118896000D01*
X122262000Y-116816000D02*
X122262000Y-114655000D01*
X122262000Y-121057000D02*
X122262000Y-118896000D01*
X122302000Y-116816000D02*
X122302000Y-114650000D01*
X122302000Y-121062000D02*
X122302000Y-118896000D01*
X122342000Y-116816000D02*
X122342000Y-114645000D01*
X122342000Y-121067000D02*
X122342000Y-118896000D01*
X122382000Y-116816000D02*
X122382000Y-114641000D01*
X122382000Y-121071000D02*
X122382000Y-118896000D01*
X122422000Y-116816000D02*
X122422000Y-114638000D01*
X122422000Y-121074000D02*
X122422000Y-118896000D01*
X122462000Y-116816000D02*
X122462000Y-114634000D01*
X122462000Y-121078000D02*
X122462000Y-118896000D01*
X122502000Y-121080000D02*
X122502000Y-114632000D01*
X122542000Y-121083000D02*
X122542000Y-114629000D01*
X122582000Y-121084000D02*
X122582000Y-114628000D01*
X122622000Y-121086000D02*
X122622000Y-114626000D01*
X122662000Y-121086000D02*
X122662000Y-114626000D01*
X122702000Y-121086000D02*
X122702000Y-114626000D01*
X125972000Y-117856000D02*
G75*
G03*
X125972000Y-117856000I-3270000J0D01*
G01*
%TO.C,U2*%
X100150500Y-115230000D02*
X97200500Y-115230000D01*
X98350500Y-118450000D02*
X100150500Y-118450000D01*
%TO.C,R5*%
X108203276Y-122061500D02*
X108712724Y-122061500D01*
X108203276Y-121016500D02*
X108712724Y-121016500D01*
%TO.C,R4*%
X131586500Y-100330724D02*
X131586500Y-99821276D01*
X130541500Y-100330724D02*
X130541500Y-99821276D01*
%TO.C,R3*%
X133716500Y-99821276D02*
X133716500Y-100330724D01*
X134761500Y-99821276D02*
X134761500Y-100330724D01*
%TO.C,D3*%
X131799000Y-98039000D02*
X131799000Y-95579000D01*
X130329000Y-98039000D02*
X131799000Y-98039000D01*
X130329000Y-95579000D02*
X130329000Y-98039000D01*
%TO.C,D2*%
X134847000Y-98039000D02*
X134847000Y-95579000D01*
X133377000Y-98039000D02*
X134847000Y-98039000D01*
X133377000Y-95579000D02*
X133377000Y-98039000D01*
%TO.C,C4*%
X111254000Y-107334267D02*
X111254000Y-107041733D01*
X110234000Y-107334267D02*
X110234000Y-107041733D01*
%TO.C,U3*%
X93143500Y-118450000D02*
X94943500Y-118450000D01*
X94943500Y-115230000D02*
X91993500Y-115230000D01*
%TO.C,J4*%
X142120000Y-120508000D02*
X134010000Y-120508000D01*
X142120000Y-120508000D02*
X142120000Y-121158000D01*
X127160000Y-120508000D02*
X127160000Y-107188000D01*
X127160000Y-120508000D02*
X130490000Y-120508000D01*
X127160000Y-107188000D02*
X130490000Y-107188000D01*
X142640000Y-106538000D02*
X142120000Y-106538000D01*
X142640000Y-121158000D02*
X142640000Y-106538000D01*
X134010000Y-107188000D02*
X142120000Y-107188000D01*
X142120000Y-121158000D02*
X142640000Y-121158000D01*
X142120000Y-106538000D02*
X142120000Y-107188000D01*
X126940000Y-118248000D02*
X126940000Y-116448000D01*
%TO.C,J1*%
X64171000Y-96430000D02*
X72281000Y-96430000D01*
X64171000Y-96430000D02*
X64171000Y-95780000D01*
X79131000Y-96430000D02*
X79131000Y-109750000D01*
X79131000Y-96430000D02*
X75801000Y-96430000D01*
X79131000Y-109750000D02*
X75801000Y-109750000D01*
X63651000Y-110400000D02*
X64171000Y-110400000D01*
X63651000Y-95780000D02*
X63651000Y-110400000D01*
X72281000Y-109750000D02*
X64171000Y-109750000D01*
X64171000Y-95780000D02*
X63651000Y-95780000D01*
X64171000Y-110400000D02*
X64171000Y-109750000D01*
X79351000Y-98690000D02*
X79351000Y-100490000D01*
%TO.C,U8*%
X93087500Y-98822000D02*
X93087500Y-97172000D01*
X93087500Y-97172000D02*
X82807500Y-97172000D01*
X82807500Y-97172000D02*
X82807500Y-102472000D01*
X82807500Y-102472000D02*
X93087500Y-102472000D01*
X93087500Y-102472000D02*
X93087500Y-100822000D01*
X93087500Y-100822000D02*
G75*
G02*
X93087500Y-98822000I0J1000000D01*
G01*
%TO.C,U7*%
X123408000Y-97672000D02*
X123408000Y-99432000D01*
X126478000Y-99432000D02*
X126478000Y-97002000D01*
%TO.C,U6*%
X113756000Y-97672000D02*
X113756000Y-99432000D01*
X116826000Y-99432000D02*
X116826000Y-97002000D01*
%TO.C,U4*%
X89609500Y-115230000D02*
X87809500Y-115230000D01*
X87809500Y-118450000D02*
X90759500Y-118450000D01*
%TO.C,R12*%
X127239500Y-98806724D02*
X127239500Y-98297276D01*
X128284500Y-98806724D02*
X128284500Y-98297276D01*
%TO.C,R11*%
X117841500Y-98806724D02*
X117841500Y-98297276D01*
X118886500Y-98806724D02*
X118886500Y-98297276D01*
%TO.C,R9*%
X89600300Y-106628476D02*
X89600300Y-107137924D01*
X88555300Y-106628476D02*
X88555300Y-107137924D01*
%TO.C,R8*%
X87695300Y-106628476D02*
X87695300Y-107137924D01*
X86650300Y-106628476D02*
X86650300Y-107137924D01*
%TO.C,R7*%
X84618300Y-107137924D02*
X84618300Y-106628476D01*
X85663300Y-107137924D02*
X85663300Y-106628476D01*
%TO.C,R6*%
X92202724Y-109590100D02*
X91693276Y-109590100D01*
X92202724Y-108545100D02*
X91693276Y-108545100D01*
%TO.C,R2*%
X99884776Y-119365500D02*
X100394224Y-119365500D01*
X99884776Y-120410500D02*
X100394224Y-120410500D01*
%TO.C,R1*%
X103710000Y-115672776D02*
X103710000Y-116182224D01*
X102665000Y-115672776D02*
X102665000Y-116182224D01*
%TO.C,Q3*%
X123010000Y-101474000D02*
X125410000Y-101474000D01*
X125410000Y-101474000D02*
X125410000Y-102524000D01*
X123610000Y-104774000D02*
X125410000Y-104774000D01*
X125410000Y-104774000D02*
X125410000Y-103724000D01*
%TO.C,Q2*%
X114882000Y-101474000D02*
X117282000Y-101474000D01*
X117282000Y-101474000D02*
X117282000Y-102524000D01*
X115482000Y-104774000D02*
X117282000Y-104774000D01*
X117282000Y-104774000D02*
X117282000Y-103724000D01*
%TO.C,C8*%
X125114267Y-96014000D02*
X124821733Y-96014000D01*
X125114267Y-94994000D02*
X124821733Y-94994000D01*
%TO.C,C7*%
X115462267Y-96014000D02*
X115169733Y-96014000D01*
X115462267Y-94994000D02*
X115169733Y-94994000D01*
%TO.C,C6*%
X121918000Y-99206267D02*
X121918000Y-98913733D01*
X122938000Y-99206267D02*
X122938000Y-98913733D01*
%TO.C,C2*%
X103697500Y-119487733D02*
X103697500Y-119780267D01*
X102677500Y-119487733D02*
X102677500Y-119780267D01*
%TD*%
M02*
