%TF.GenerationSoftware,KiCad,Pcbnew,(5.1.9)-1*%
%TF.CreationDate,2021-05-12T15:20:05-07:00*%
%TF.ProjectId,vive_ups,76697665-5f75-4707-932e-6b696361645f,rev?*%
%TF.SameCoordinates,Original*%
%TF.FileFunction,Soldermask,Bot*%
%TF.FilePolarity,Negative*%
%FSLAX46Y46*%
G04 Gerber Fmt 4.6, Leading zero omitted, Abs format (unit mm)*
G04 Created by KiCad (PCBNEW (5.1.9)-1) date 2021-05-12 15:20:05*
%MOMM*%
%LPD*%
G01*
G04 APERTURE LIST*
%ADD10C,0.300000*%
%ADD11C,1.600000*%
%ADD12O,1.700000X1.700000*%
%ADD13R,1.700000X1.700000*%
%ADD14C,3.200000*%
%ADD15R,1.600000X1.600000*%
%ADD16C,1.800000*%
%ADD17O,1.550000X0.890000*%
%ADD18O,0.950000X1.250000*%
%ADD19C,3.500000*%
%ADD20R,1.500000X1.600000*%
%ADD21C,3.000000*%
%ADD22O,1.600000X1.600000*%
%ADD23R,1.000000X1.500000*%
%ADD24O,1.000000X1.500000*%
G04 APERTURE END LIST*
D10*
X107500857Y-152062571D02*
X107500857Y-151062571D01*
X107500857Y-150562571D02*
X107572285Y-150634000D01*
X107500857Y-150705428D01*
X107429428Y-150634000D01*
X107500857Y-150562571D01*
X107500857Y-150705428D01*
X106786571Y-151062571D02*
X106786571Y-152062571D01*
X106786571Y-151205428D02*
X106715142Y-151134000D01*
X106572285Y-151062571D01*
X106358000Y-151062571D01*
X106215142Y-151134000D01*
X106143714Y-151276857D01*
X106143714Y-152062571D01*
X105500857Y-151991142D02*
X105358000Y-152062571D01*
X105072285Y-152062571D01*
X104929428Y-151991142D01*
X104858000Y-151848285D01*
X104858000Y-151776857D01*
X104929428Y-151634000D01*
X105072285Y-151562571D01*
X105286571Y-151562571D01*
X105429428Y-151491142D01*
X105500857Y-151348285D01*
X105500857Y-151276857D01*
X105429428Y-151134000D01*
X105286571Y-151062571D01*
X105072285Y-151062571D01*
X104929428Y-151134000D01*
X103643714Y-151991142D02*
X103786571Y-152062571D01*
X104072285Y-152062571D01*
X104215142Y-151991142D01*
X104286571Y-151848285D01*
X104286571Y-151276857D01*
X104215142Y-151134000D01*
X104072285Y-151062571D01*
X103786571Y-151062571D01*
X103643714Y-151134000D01*
X103572285Y-151276857D01*
X103572285Y-151419714D01*
X104286571Y-151562571D01*
X102929428Y-152062571D02*
X102929428Y-151062571D01*
X102929428Y-151348285D02*
X102858000Y-151205428D01*
X102786571Y-151134000D01*
X102643714Y-151062571D01*
X102500857Y-151062571D01*
X102215142Y-151062571D02*
X101643714Y-151062571D01*
X102000857Y-150562571D02*
X102000857Y-151848285D01*
X101929428Y-151991142D01*
X101786571Y-152062571D01*
X101643714Y-152062571D01*
X100000857Y-152062571D02*
X100000857Y-151062571D01*
X100000857Y-151205428D02*
X99929428Y-151134000D01*
X99786571Y-151062571D01*
X99572285Y-151062571D01*
X99429428Y-151134000D01*
X99358000Y-151276857D01*
X99358000Y-152062571D01*
X99358000Y-151276857D02*
X99286571Y-151134000D01*
X99143714Y-151062571D01*
X98929428Y-151062571D01*
X98786571Y-151134000D01*
X98715142Y-151276857D01*
X98715142Y-152062571D01*
X97429428Y-151991142D02*
X97572285Y-152062571D01*
X97858000Y-152062571D01*
X98000857Y-151991142D01*
X98072285Y-151848285D01*
X98072285Y-151276857D01*
X98000857Y-151134000D01*
X97858000Y-151062571D01*
X97572285Y-151062571D01*
X97429428Y-151134000D01*
X97358000Y-151276857D01*
X97358000Y-151419714D01*
X98072285Y-151562571D01*
X96715142Y-151919714D02*
X96643714Y-151991142D01*
X96715142Y-152062571D01*
X96786571Y-151991142D01*
X96715142Y-151919714D01*
X96715142Y-152062571D01*
X96715142Y-151491142D02*
X96786571Y-150634000D01*
X96715142Y-150562571D01*
X96643714Y-150634000D01*
X96715142Y-151491142D01*
X96715142Y-150562571D01*
%TO.C,R13*%
G36*
G01*
X78375046Y-117255085D02*
X78375046Y-117255085D01*
G75*
G02*
X79400416Y-117733223I273616J-751754D01*
G01*
X79400416Y-117733223D01*
G75*
G02*
X78922278Y-118758593I-751754J-273616D01*
G01*
X78922278Y-118758593D01*
G75*
G02*
X77896908Y-118280455I-273616J751754D01*
G01*
X77896908Y-118280455D01*
G75*
G02*
X78375046Y-117255085I751754J273616D01*
G01*
G37*
D11*
X76911200Y-113233200D03*
%TD*%
D12*
%TO.C,J3*%
X101447600Y-103835200D03*
X101447600Y-101295200D03*
X101447600Y-98755200D03*
D13*
X101447600Y-96215200D03*
%TD*%
D12*
%TO.C,BZ2*%
X71780400Y-120548400D03*
D13*
X71780400Y-118008400D03*
%TD*%
D14*
%TO.C,H1*%
X108712000Y-98806000D03*
%TD*%
D11*
%TO.C,C5*%
X121452000Y-109728000D03*
D15*
X123952000Y-109728000D03*
%TD*%
D11*
%TO.C,U9*%
X113294000Y-115062000D03*
X113294000Y-112522000D03*
X113294000Y-109982000D03*
X113294000Y-107442000D03*
X82794000Y-120142000D03*
X82794000Y-117602000D03*
X82794000Y-115062000D03*
X82794000Y-112522000D03*
X82794000Y-109982000D03*
%TD*%
D12*
%TO.C,BZ1*%
X75539600Y-120548400D03*
D13*
X75539600Y-118008400D03*
%TD*%
D16*
%TO.C,SW1*%
X65254400Y-113832000D03*
X65254400Y-116332000D03*
X65254400Y-118832000D03*
X68654400Y-113832000D03*
X68654400Y-116332000D03*
X68654400Y-118832000D03*
%TD*%
D17*
%TO.C,J2*%
X140771400Y-97058600D03*
X140771400Y-104058600D03*
D18*
X138071400Y-98058600D03*
X138071400Y-103058600D03*
%TD*%
D19*
%TO.C,BT1*%
X139624000Y-133096000D03*
X66624000Y-133096000D03*
%TD*%
D11*
%TO.C,C9*%
X121452000Y-117856000D03*
D15*
X123952000Y-117856000D03*
%TD*%
D11*
%TO.C,J4*%
X129540000Y-110348000D03*
X129540000Y-112848000D03*
X129540000Y-114848000D03*
D20*
X129540000Y-117348000D03*
D21*
X132250000Y-107278000D03*
X132250000Y-120418000D03*
%TD*%
D11*
%TO.C,J1*%
X76751000Y-106590000D03*
X76751000Y-104090000D03*
X76751000Y-102090000D03*
D20*
X76751000Y-99590000D03*
D21*
X74041000Y-109660000D03*
X74041000Y-96520000D03*
%TD*%
D22*
%TO.C,U8*%
X91757500Y-103632000D03*
X84137500Y-96012000D03*
X89217500Y-103632000D03*
X86677500Y-96012000D03*
X86677500Y-103632000D03*
X89217500Y-96012000D03*
X84137500Y-103632000D03*
D15*
X91757500Y-96012000D03*
%TD*%
D23*
%TO.C,Q1*%
X71729600Y-114198400D03*
D24*
X74269600Y-114198400D03*
X72999600Y-114198400D03*
%TD*%
M02*
