%TF.GenerationSoftware,KiCad,Pcbnew,(5.1.9)-1*%
%TF.CreationDate,2021-05-12T15:20:05-07:00*%
%TF.ProjectId,vive_ups,76697665-5f75-4707-932e-6b696361645f,rev?*%
%TF.SameCoordinates,Original*%
%TF.FileFunction,Soldermask,Top*%
%TF.FilePolarity,Negative*%
%FSLAX46Y46*%
G04 Gerber Fmt 4.6, Leading zero omitted, Abs format (unit mm)*
G04 Created by KiCad (PCBNEW (5.1.9)-1) date 2021-05-12 15:20:05*
%MOMM*%
%LPD*%
G01*
G04 APERTURE LIST*
%ADD10C,0.300000*%
%ADD11C,1.600000*%
%ADD12O,1.700000X1.700000*%
%ADD13R,1.700000X1.700000*%
%ADD14R,1.000000X1.000000*%
%ADD15C,3.200000*%
%ADD16R,4.450001X4.570001*%
%ADD17R,1.600000X1.600000*%
%ADD18C,1.800000*%
%ADD19O,1.550000X0.890000*%
%ADD20R,1.550000X1.200000*%
%ADD21R,1.550000X1.500000*%
%ADD22O,0.950000X1.250000*%
%ADD23R,1.350000X0.400000*%
%ADD24C,3.500000*%
%ADD25R,1.560000X0.650000*%
%ADD26R,1.500000X1.600000*%
%ADD27C,3.000000*%
%ADD28O,1.600000X1.600000*%
%ADD29R,0.650000X1.220000*%
%ADD30R,1.000000X1.500000*%
%ADD31O,1.000000X1.500000*%
%ADD32R,1.800000X0.800000*%
G04 APERTURE END LIST*
D10*
X96715142Y-152062571D02*
X96715142Y-151062571D01*
X96715142Y-150562571D02*
X96643714Y-150634000D01*
X96715142Y-150705428D01*
X96786571Y-150634000D01*
X96715142Y-150562571D01*
X96715142Y-150705428D01*
X97429428Y-151062571D02*
X97429428Y-152062571D01*
X97429428Y-151205428D02*
X97500857Y-151134000D01*
X97643714Y-151062571D01*
X97858000Y-151062571D01*
X98000857Y-151134000D01*
X98072285Y-151276857D01*
X98072285Y-152062571D01*
X98715142Y-151991142D02*
X98858000Y-152062571D01*
X99143714Y-152062571D01*
X99286571Y-151991142D01*
X99358000Y-151848285D01*
X99358000Y-151776857D01*
X99286571Y-151634000D01*
X99143714Y-151562571D01*
X98929428Y-151562571D01*
X98786571Y-151491142D01*
X98715142Y-151348285D01*
X98715142Y-151276857D01*
X98786571Y-151134000D01*
X98929428Y-151062571D01*
X99143714Y-151062571D01*
X99286571Y-151134000D01*
X100572285Y-151991142D02*
X100429428Y-152062571D01*
X100143714Y-152062571D01*
X100000857Y-151991142D01*
X99929428Y-151848285D01*
X99929428Y-151276857D01*
X100000857Y-151134000D01*
X100143714Y-151062571D01*
X100429428Y-151062571D01*
X100572285Y-151134000D01*
X100643714Y-151276857D01*
X100643714Y-151419714D01*
X99929428Y-151562571D01*
X101286571Y-152062571D02*
X101286571Y-151062571D01*
X101286571Y-151348285D02*
X101358000Y-151205428D01*
X101429428Y-151134000D01*
X101572285Y-151062571D01*
X101715142Y-151062571D01*
X102000857Y-151062571D02*
X102572285Y-151062571D01*
X102215142Y-150562571D02*
X102215142Y-151848285D01*
X102286571Y-151991142D01*
X102429428Y-152062571D01*
X102572285Y-152062571D01*
X104215142Y-152062571D02*
X104215142Y-151062571D01*
X104215142Y-151205428D02*
X104286571Y-151134000D01*
X104429428Y-151062571D01*
X104643714Y-151062571D01*
X104786571Y-151134000D01*
X104858000Y-151276857D01*
X104858000Y-152062571D01*
X104858000Y-151276857D02*
X104929428Y-151134000D01*
X105072285Y-151062571D01*
X105286571Y-151062571D01*
X105429428Y-151134000D01*
X105500857Y-151276857D01*
X105500857Y-152062571D01*
X106786571Y-151991142D02*
X106643714Y-152062571D01*
X106358000Y-152062571D01*
X106215142Y-151991142D01*
X106143714Y-151848285D01*
X106143714Y-151276857D01*
X106215142Y-151134000D01*
X106358000Y-151062571D01*
X106643714Y-151062571D01*
X106786571Y-151134000D01*
X106858000Y-151276857D01*
X106858000Y-151419714D01*
X106143714Y-151562571D01*
X107500857Y-151919714D02*
X107572285Y-151991142D01*
X107500857Y-152062571D01*
X107429428Y-151991142D01*
X107500857Y-151919714D01*
X107500857Y-152062571D01*
X107500857Y-151491142D02*
X107429428Y-150634000D01*
X107500857Y-150562571D01*
X107572285Y-150634000D01*
X107500857Y-151491142D01*
X107500857Y-150562571D01*
%TO.C,R13*%
G36*
G01*
X78375046Y-117255085D02*
X78375046Y-117255085D01*
G75*
G02*
X79400416Y-117733223I273616J-751754D01*
G01*
X79400416Y-117733223D01*
G75*
G02*
X78922278Y-118758593I-751754J-273616D01*
G01*
X78922278Y-118758593D01*
G75*
G02*
X77896908Y-118280455I-273616J751754D01*
G01*
X77896908Y-118280455D01*
G75*
G02*
X78375046Y-117255085I751754J273616D01*
G01*
G37*
D11*
X76911200Y-113233200D03*
%TD*%
%TO.C,C1*%
G36*
G01*
X94623900Y-104018200D02*
X94148900Y-104018200D01*
G75*
G02*
X93911400Y-103780700I0J237500D01*
G01*
X93911400Y-103180700D01*
G75*
G02*
X94148900Y-102943200I237500J0D01*
G01*
X94623900Y-102943200D01*
G75*
G02*
X94861400Y-103180700I0J-237500D01*
G01*
X94861400Y-103780700D01*
G75*
G02*
X94623900Y-104018200I-237500J0D01*
G01*
G37*
G36*
G01*
X94623900Y-105743200D02*
X94148900Y-105743200D01*
G75*
G02*
X93911400Y-105505700I0J237500D01*
G01*
X93911400Y-104905700D01*
G75*
G02*
X94148900Y-104668200I237500J0D01*
G01*
X94623900Y-104668200D01*
G75*
G02*
X94861400Y-104905700I0J-237500D01*
G01*
X94861400Y-105505700D01*
G75*
G02*
X94623900Y-105743200I-237500J0D01*
G01*
G37*
%TD*%
D12*
%TO.C,J3*%
X101447600Y-103835200D03*
X101447600Y-101295200D03*
X101447600Y-98755200D03*
D13*
X101447600Y-96215200D03*
%TD*%
D12*
%TO.C,BZ2*%
X71780400Y-120548400D03*
D13*
X71780400Y-118008400D03*
%TD*%
%TO.C,R14*%
G36*
G01*
X81296500Y-102787000D02*
X81771500Y-102787000D01*
G75*
G02*
X82009000Y-103024500I0J-237500D01*
G01*
X82009000Y-103524500D01*
G75*
G02*
X81771500Y-103762000I-237500J0D01*
G01*
X81296500Y-103762000D01*
G75*
G02*
X81059000Y-103524500I0J237500D01*
G01*
X81059000Y-103024500D01*
G75*
G02*
X81296500Y-102787000I237500J0D01*
G01*
G37*
G36*
G01*
X81296500Y-100962000D02*
X81771500Y-100962000D01*
G75*
G02*
X82009000Y-101199500I0J-237500D01*
G01*
X82009000Y-101699500D01*
G75*
G02*
X81771500Y-101937000I-237500J0D01*
G01*
X81296500Y-101937000D01*
G75*
G02*
X81059000Y-101699500I0J237500D01*
G01*
X81059000Y-101199500D01*
G75*
G02*
X81296500Y-100962000I237500J0D01*
G01*
G37*
%TD*%
D14*
%TO.C,D4*%
X134142800Y-103987600D03*
X131642800Y-103987600D03*
%TD*%
%TO.C,D1*%
G36*
G01*
X81771500Y-96170000D02*
X81296500Y-96170000D01*
G75*
G02*
X81059000Y-95932500I0J237500D01*
G01*
X81059000Y-95357500D01*
G75*
G02*
X81296500Y-95120000I237500J0D01*
G01*
X81771500Y-95120000D01*
G75*
G02*
X82009000Y-95357500I0J-237500D01*
G01*
X82009000Y-95932500D01*
G75*
G02*
X81771500Y-96170000I-237500J0D01*
G01*
G37*
G36*
G01*
X81771500Y-97920000D02*
X81296500Y-97920000D01*
G75*
G02*
X81059000Y-97682500I0J237500D01*
G01*
X81059000Y-97107500D01*
G75*
G02*
X81296500Y-96870000I237500J0D01*
G01*
X81771500Y-96870000D01*
G75*
G02*
X82009000Y-97107500I0J-237500D01*
G01*
X82009000Y-97682500D01*
G75*
G02*
X81771500Y-97920000I-237500J0D01*
G01*
G37*
%TD*%
D15*
%TO.C,H1*%
X108712000Y-98806000D03*
%TD*%
D16*
%TO.C,U5*%
X107823000Y-114681000D03*
G36*
G01*
X106093000Y-111956000D02*
X105743000Y-111956000D01*
G75*
G02*
X105568000Y-111781000I0J175000D01*
G01*
X105568000Y-109281000D01*
G75*
G02*
X105743000Y-109106000I175000J0D01*
G01*
X106093000Y-109106000D01*
G75*
G02*
X106268000Y-109281000I0J-175000D01*
G01*
X106268000Y-111781000D01*
G75*
G02*
X106093000Y-111956000I-175000J0D01*
G01*
G37*
G36*
G01*
X107363000Y-111956000D02*
X107013000Y-111956000D01*
G75*
G02*
X106838000Y-111781000I0J175000D01*
G01*
X106838000Y-109281000D01*
G75*
G02*
X107013000Y-109106000I175000J0D01*
G01*
X107363000Y-109106000D01*
G75*
G02*
X107538000Y-109281000I0J-175000D01*
G01*
X107538000Y-111781000D01*
G75*
G02*
X107363000Y-111956000I-175000J0D01*
G01*
G37*
G36*
G01*
X108633000Y-111956000D02*
X108283000Y-111956000D01*
G75*
G02*
X108108000Y-111781000I0J175000D01*
G01*
X108108000Y-109281000D01*
G75*
G02*
X108283000Y-109106000I175000J0D01*
G01*
X108633000Y-109106000D01*
G75*
G02*
X108808000Y-109281000I0J-175000D01*
G01*
X108808000Y-111781000D01*
G75*
G02*
X108633000Y-111956000I-175000J0D01*
G01*
G37*
G36*
G01*
X109903000Y-111956000D02*
X109553000Y-111956000D01*
G75*
G02*
X109378000Y-111781000I0J175000D01*
G01*
X109378000Y-109281000D01*
G75*
G02*
X109553000Y-109106000I175000J0D01*
G01*
X109903000Y-109106000D01*
G75*
G02*
X110078000Y-109281000I0J-175000D01*
G01*
X110078000Y-111781000D01*
G75*
G02*
X109903000Y-111956000I-175000J0D01*
G01*
G37*
G36*
G01*
X109903000Y-120256000D02*
X109553000Y-120256000D01*
G75*
G02*
X109378000Y-120081000I0J175000D01*
G01*
X109378000Y-117581000D01*
G75*
G02*
X109553000Y-117406000I175000J0D01*
G01*
X109903000Y-117406000D01*
G75*
G02*
X110078000Y-117581000I0J-175000D01*
G01*
X110078000Y-120081000D01*
G75*
G02*
X109903000Y-120256000I-175000J0D01*
G01*
G37*
G36*
G01*
X108633000Y-120256000D02*
X108283000Y-120256000D01*
G75*
G02*
X108108000Y-120081000I0J175000D01*
G01*
X108108000Y-117581000D01*
G75*
G02*
X108283000Y-117406000I175000J0D01*
G01*
X108633000Y-117406000D01*
G75*
G02*
X108808000Y-117581000I0J-175000D01*
G01*
X108808000Y-120081000D01*
G75*
G02*
X108633000Y-120256000I-175000J0D01*
G01*
G37*
G36*
G01*
X107363000Y-120256000D02*
X107013000Y-120256000D01*
G75*
G02*
X106838000Y-120081000I0J175000D01*
G01*
X106838000Y-117581000D01*
G75*
G02*
X107013000Y-117406000I175000J0D01*
G01*
X107363000Y-117406000D01*
G75*
G02*
X107538000Y-117581000I0J-175000D01*
G01*
X107538000Y-120081000D01*
G75*
G02*
X107363000Y-120256000I-175000J0D01*
G01*
G37*
G36*
G01*
X106093000Y-120256000D02*
X105743000Y-120256000D01*
G75*
G02*
X105568000Y-120081000I0J175000D01*
G01*
X105568000Y-117581000D01*
G75*
G02*
X105743000Y-117406000I175000J0D01*
G01*
X106093000Y-117406000D01*
G75*
G02*
X106268000Y-117581000I0J-175000D01*
G01*
X106268000Y-120081000D01*
G75*
G02*
X106093000Y-120256000I-175000J0D01*
G01*
G37*
%TD*%
D11*
%TO.C,C5*%
X121452000Y-109728000D03*
D17*
X123952000Y-109728000D03*
%TD*%
D11*
%TO.C,U9*%
X113294000Y-115062000D03*
X113294000Y-112522000D03*
X113294000Y-109982000D03*
X113294000Y-107442000D03*
X82794000Y-120142000D03*
X82794000Y-117602000D03*
X82794000Y-115062000D03*
X82794000Y-112522000D03*
X82794000Y-109982000D03*
%TD*%
D12*
%TO.C,BZ1*%
X75539600Y-120548400D03*
D13*
X75539600Y-118008400D03*
%TD*%
D18*
%TO.C,SW1*%
X65254400Y-113832000D03*
X65254400Y-116332000D03*
X65254400Y-118832000D03*
X68654400Y-113832000D03*
X68654400Y-116332000D03*
X68654400Y-118832000D03*
%TD*%
%TO.C,R10*%
G36*
G01*
X92233300Y-106104700D02*
X92233300Y-105629700D01*
G75*
G02*
X92470800Y-105392200I237500J0D01*
G01*
X92970800Y-105392200D01*
G75*
G02*
X93208300Y-105629700I0J-237500D01*
G01*
X93208300Y-106104700D01*
G75*
G02*
X92970800Y-106342200I-237500J0D01*
G01*
X92470800Y-106342200D01*
G75*
G02*
X92233300Y-106104700I0J237500D01*
G01*
G37*
G36*
G01*
X90408300Y-106104700D02*
X90408300Y-105629700D01*
G75*
G02*
X90645800Y-105392200I237500J0D01*
G01*
X91145800Y-105392200D01*
G75*
G02*
X91383300Y-105629700I0J-237500D01*
G01*
X91383300Y-106104700D01*
G75*
G02*
X91145800Y-106342200I-237500J0D01*
G01*
X90645800Y-106342200D01*
G75*
G02*
X90408300Y-106104700I0J237500D01*
G01*
G37*
%TD*%
D19*
%TO.C,J2*%
X140771400Y-97058600D03*
X140771400Y-104058600D03*
D20*
X140771400Y-97658600D03*
X140771400Y-103458600D03*
D21*
X140771400Y-99558600D03*
X140771400Y-101558600D03*
D22*
X138071400Y-98058600D03*
X138071400Y-103058600D03*
D23*
X138071400Y-99258600D03*
X138071400Y-99908600D03*
X138071400Y-100558600D03*
X138071400Y-101208600D03*
X138071400Y-101858600D03*
%TD*%
D24*
%TO.C,BT1*%
X139624000Y-133096000D03*
X66624000Y-133096000D03*
%TD*%
D11*
%TO.C,C9*%
X121452000Y-117856000D03*
D17*
X123952000Y-117856000D03*
%TD*%
D25*
%TO.C,U2*%
X100600500Y-116840000D03*
X100600500Y-115890000D03*
X100600500Y-117790000D03*
X97900500Y-117790000D03*
X97900500Y-116840000D03*
X97900500Y-115890000D03*
%TD*%
%TO.C,R5*%
G36*
G01*
X108883000Y-121776500D02*
X108883000Y-121301500D01*
G75*
G02*
X109120500Y-121064000I237500J0D01*
G01*
X109620500Y-121064000D01*
G75*
G02*
X109858000Y-121301500I0J-237500D01*
G01*
X109858000Y-121776500D01*
G75*
G02*
X109620500Y-122014000I-237500J0D01*
G01*
X109120500Y-122014000D01*
G75*
G02*
X108883000Y-121776500I0J237500D01*
G01*
G37*
G36*
G01*
X107058000Y-121776500D02*
X107058000Y-121301500D01*
G75*
G02*
X107295500Y-121064000I237500J0D01*
G01*
X107795500Y-121064000D01*
G75*
G02*
X108033000Y-121301500I0J-237500D01*
G01*
X108033000Y-121776500D01*
G75*
G02*
X107795500Y-122014000I-237500J0D01*
G01*
X107295500Y-122014000D01*
G75*
G02*
X107058000Y-121776500I0J237500D01*
G01*
G37*
%TD*%
%TO.C,R4*%
G36*
G01*
X131301500Y-99651000D02*
X130826500Y-99651000D01*
G75*
G02*
X130589000Y-99413500I0J237500D01*
G01*
X130589000Y-98913500D01*
G75*
G02*
X130826500Y-98676000I237500J0D01*
G01*
X131301500Y-98676000D01*
G75*
G02*
X131539000Y-98913500I0J-237500D01*
G01*
X131539000Y-99413500D01*
G75*
G02*
X131301500Y-99651000I-237500J0D01*
G01*
G37*
G36*
G01*
X131301500Y-101476000D02*
X130826500Y-101476000D01*
G75*
G02*
X130589000Y-101238500I0J237500D01*
G01*
X130589000Y-100738500D01*
G75*
G02*
X130826500Y-100501000I237500J0D01*
G01*
X131301500Y-100501000D01*
G75*
G02*
X131539000Y-100738500I0J-237500D01*
G01*
X131539000Y-101238500D01*
G75*
G02*
X131301500Y-101476000I-237500J0D01*
G01*
G37*
%TD*%
%TO.C,R3*%
G36*
G01*
X134001500Y-100501000D02*
X134476500Y-100501000D01*
G75*
G02*
X134714000Y-100738500I0J-237500D01*
G01*
X134714000Y-101238500D01*
G75*
G02*
X134476500Y-101476000I-237500J0D01*
G01*
X134001500Y-101476000D01*
G75*
G02*
X133764000Y-101238500I0J237500D01*
G01*
X133764000Y-100738500D01*
G75*
G02*
X134001500Y-100501000I237500J0D01*
G01*
G37*
G36*
G01*
X134001500Y-98676000D02*
X134476500Y-98676000D01*
G75*
G02*
X134714000Y-98913500I0J-237500D01*
G01*
X134714000Y-99413500D01*
G75*
G02*
X134476500Y-99651000I-237500J0D01*
G01*
X134001500Y-99651000D01*
G75*
G02*
X133764000Y-99413500I0J237500D01*
G01*
X133764000Y-98913500D01*
G75*
G02*
X134001500Y-98676000I237500J0D01*
G01*
G37*
%TD*%
%TO.C,D3*%
G36*
G01*
X131301500Y-96029000D02*
X130826500Y-96029000D01*
G75*
G02*
X130589000Y-95791500I0J237500D01*
G01*
X130589000Y-95216500D01*
G75*
G02*
X130826500Y-94979000I237500J0D01*
G01*
X131301500Y-94979000D01*
G75*
G02*
X131539000Y-95216500I0J-237500D01*
G01*
X131539000Y-95791500D01*
G75*
G02*
X131301500Y-96029000I-237500J0D01*
G01*
G37*
G36*
G01*
X131301500Y-97779000D02*
X130826500Y-97779000D01*
G75*
G02*
X130589000Y-97541500I0J237500D01*
G01*
X130589000Y-96966500D01*
G75*
G02*
X130826500Y-96729000I237500J0D01*
G01*
X131301500Y-96729000D01*
G75*
G02*
X131539000Y-96966500I0J-237500D01*
G01*
X131539000Y-97541500D01*
G75*
G02*
X131301500Y-97779000I-237500J0D01*
G01*
G37*
%TD*%
%TO.C,D2*%
G36*
G01*
X134349500Y-96029000D02*
X133874500Y-96029000D01*
G75*
G02*
X133637000Y-95791500I0J237500D01*
G01*
X133637000Y-95216500D01*
G75*
G02*
X133874500Y-94979000I237500J0D01*
G01*
X134349500Y-94979000D01*
G75*
G02*
X134587000Y-95216500I0J-237500D01*
G01*
X134587000Y-95791500D01*
G75*
G02*
X134349500Y-96029000I-237500J0D01*
G01*
G37*
G36*
G01*
X134349500Y-97779000D02*
X133874500Y-97779000D01*
G75*
G02*
X133637000Y-97541500I0J237500D01*
G01*
X133637000Y-96966500D01*
G75*
G02*
X133874500Y-96729000I237500J0D01*
G01*
X134349500Y-96729000D01*
G75*
G02*
X134587000Y-96966500I0J-237500D01*
G01*
X134587000Y-97541500D01*
G75*
G02*
X134349500Y-97779000I-237500J0D01*
G01*
G37*
%TD*%
%TO.C,C4*%
G36*
G01*
X110981500Y-106863000D02*
X110506500Y-106863000D01*
G75*
G02*
X110269000Y-106625500I0J237500D01*
G01*
X110269000Y-106025500D01*
G75*
G02*
X110506500Y-105788000I237500J0D01*
G01*
X110981500Y-105788000D01*
G75*
G02*
X111219000Y-106025500I0J-237500D01*
G01*
X111219000Y-106625500D01*
G75*
G02*
X110981500Y-106863000I-237500J0D01*
G01*
G37*
G36*
G01*
X110981500Y-108588000D02*
X110506500Y-108588000D01*
G75*
G02*
X110269000Y-108350500I0J237500D01*
G01*
X110269000Y-107750500D01*
G75*
G02*
X110506500Y-107513000I237500J0D01*
G01*
X110981500Y-107513000D01*
G75*
G02*
X111219000Y-107750500I0J-237500D01*
G01*
X111219000Y-108350500D01*
G75*
G02*
X110981500Y-108588000I-237500J0D01*
G01*
G37*
%TD*%
%TO.C,U3*%
X95393500Y-116840000D03*
X95393500Y-115890000D03*
X95393500Y-117790000D03*
X92693500Y-117790000D03*
X92693500Y-116840000D03*
X92693500Y-115890000D03*
%TD*%
D11*
%TO.C,J4*%
X129540000Y-110348000D03*
X129540000Y-112848000D03*
X129540000Y-114848000D03*
D26*
X129540000Y-117348000D03*
D27*
X132250000Y-107278000D03*
X132250000Y-120418000D03*
%TD*%
D11*
%TO.C,J1*%
X76751000Y-106590000D03*
X76751000Y-104090000D03*
X76751000Y-102090000D03*
D26*
X76751000Y-99590000D03*
D27*
X74041000Y-109660000D03*
X74041000Y-96520000D03*
%TD*%
D28*
%TO.C,U8*%
X91757500Y-103632000D03*
X84137500Y-96012000D03*
X89217500Y-103632000D03*
X86677500Y-96012000D03*
X86677500Y-103632000D03*
X89217500Y-96012000D03*
X84137500Y-103632000D03*
D17*
X91757500Y-96012000D03*
%TD*%
D29*
%TO.C,U7*%
X125918000Y-99862000D03*
X124968000Y-99862000D03*
X124018000Y-99862000D03*
X124018000Y-97242000D03*
X124968000Y-97242000D03*
X125918000Y-97242000D03*
%TD*%
%TO.C,U6*%
X116266000Y-99862000D03*
X115316000Y-99862000D03*
X114366000Y-99862000D03*
X114366000Y-97242000D03*
X115316000Y-97242000D03*
X116266000Y-97242000D03*
%TD*%
D25*
%TO.C,U4*%
X87359500Y-116840000D03*
X87359500Y-117790000D03*
X87359500Y-115890000D03*
X90059500Y-115890000D03*
X90059500Y-116840000D03*
X90059500Y-117790000D03*
%TD*%
%TO.C,R12*%
G36*
G01*
X127999500Y-98127000D02*
X127524500Y-98127000D01*
G75*
G02*
X127287000Y-97889500I0J237500D01*
G01*
X127287000Y-97389500D01*
G75*
G02*
X127524500Y-97152000I237500J0D01*
G01*
X127999500Y-97152000D01*
G75*
G02*
X128237000Y-97389500I0J-237500D01*
G01*
X128237000Y-97889500D01*
G75*
G02*
X127999500Y-98127000I-237500J0D01*
G01*
G37*
G36*
G01*
X127999500Y-99952000D02*
X127524500Y-99952000D01*
G75*
G02*
X127287000Y-99714500I0J237500D01*
G01*
X127287000Y-99214500D01*
G75*
G02*
X127524500Y-98977000I237500J0D01*
G01*
X127999500Y-98977000D01*
G75*
G02*
X128237000Y-99214500I0J-237500D01*
G01*
X128237000Y-99714500D01*
G75*
G02*
X127999500Y-99952000I-237500J0D01*
G01*
G37*
%TD*%
%TO.C,R11*%
G36*
G01*
X118601500Y-98127000D02*
X118126500Y-98127000D01*
G75*
G02*
X117889000Y-97889500I0J237500D01*
G01*
X117889000Y-97389500D01*
G75*
G02*
X118126500Y-97152000I237500J0D01*
G01*
X118601500Y-97152000D01*
G75*
G02*
X118839000Y-97389500I0J-237500D01*
G01*
X118839000Y-97889500D01*
G75*
G02*
X118601500Y-98127000I-237500J0D01*
G01*
G37*
G36*
G01*
X118601500Y-99952000D02*
X118126500Y-99952000D01*
G75*
G02*
X117889000Y-99714500I0J237500D01*
G01*
X117889000Y-99214500D01*
G75*
G02*
X118126500Y-98977000I237500J0D01*
G01*
X118601500Y-98977000D01*
G75*
G02*
X118839000Y-99214500I0J-237500D01*
G01*
X118839000Y-99714500D01*
G75*
G02*
X118601500Y-99952000I-237500J0D01*
G01*
G37*
%TD*%
%TO.C,R9*%
G36*
G01*
X88840300Y-107308200D02*
X89315300Y-107308200D01*
G75*
G02*
X89552800Y-107545700I0J-237500D01*
G01*
X89552800Y-108045700D01*
G75*
G02*
X89315300Y-108283200I-237500J0D01*
G01*
X88840300Y-108283200D01*
G75*
G02*
X88602800Y-108045700I0J237500D01*
G01*
X88602800Y-107545700D01*
G75*
G02*
X88840300Y-107308200I237500J0D01*
G01*
G37*
G36*
G01*
X88840300Y-105483200D02*
X89315300Y-105483200D01*
G75*
G02*
X89552800Y-105720700I0J-237500D01*
G01*
X89552800Y-106220700D01*
G75*
G02*
X89315300Y-106458200I-237500J0D01*
G01*
X88840300Y-106458200D01*
G75*
G02*
X88602800Y-106220700I0J237500D01*
G01*
X88602800Y-105720700D01*
G75*
G02*
X88840300Y-105483200I237500J0D01*
G01*
G37*
%TD*%
%TO.C,R8*%
G36*
G01*
X86935300Y-107308200D02*
X87410300Y-107308200D01*
G75*
G02*
X87647800Y-107545700I0J-237500D01*
G01*
X87647800Y-108045700D01*
G75*
G02*
X87410300Y-108283200I-237500J0D01*
G01*
X86935300Y-108283200D01*
G75*
G02*
X86697800Y-108045700I0J237500D01*
G01*
X86697800Y-107545700D01*
G75*
G02*
X86935300Y-107308200I237500J0D01*
G01*
G37*
G36*
G01*
X86935300Y-105483200D02*
X87410300Y-105483200D01*
G75*
G02*
X87647800Y-105720700I0J-237500D01*
G01*
X87647800Y-106220700D01*
G75*
G02*
X87410300Y-106458200I-237500J0D01*
G01*
X86935300Y-106458200D01*
G75*
G02*
X86697800Y-106220700I0J237500D01*
G01*
X86697800Y-105720700D01*
G75*
G02*
X86935300Y-105483200I237500J0D01*
G01*
G37*
%TD*%
%TO.C,R7*%
G36*
G01*
X85378300Y-106458200D02*
X84903300Y-106458200D01*
G75*
G02*
X84665800Y-106220700I0J237500D01*
G01*
X84665800Y-105720700D01*
G75*
G02*
X84903300Y-105483200I237500J0D01*
G01*
X85378300Y-105483200D01*
G75*
G02*
X85615800Y-105720700I0J-237500D01*
G01*
X85615800Y-106220700D01*
G75*
G02*
X85378300Y-106458200I-237500J0D01*
G01*
G37*
G36*
G01*
X85378300Y-108283200D02*
X84903300Y-108283200D01*
G75*
G02*
X84665800Y-108045700I0J237500D01*
G01*
X84665800Y-107545700D01*
G75*
G02*
X84903300Y-107308200I237500J0D01*
G01*
X85378300Y-107308200D01*
G75*
G02*
X85615800Y-107545700I0J-237500D01*
G01*
X85615800Y-108045700D01*
G75*
G02*
X85378300Y-108283200I-237500J0D01*
G01*
G37*
%TD*%
%TO.C,R6*%
G36*
G01*
X91523000Y-108830100D02*
X91523000Y-109305100D01*
G75*
G02*
X91285500Y-109542600I-237500J0D01*
G01*
X90785500Y-109542600D01*
G75*
G02*
X90548000Y-109305100I0J237500D01*
G01*
X90548000Y-108830100D01*
G75*
G02*
X90785500Y-108592600I237500J0D01*
G01*
X91285500Y-108592600D01*
G75*
G02*
X91523000Y-108830100I0J-237500D01*
G01*
G37*
G36*
G01*
X93348000Y-108830100D02*
X93348000Y-109305100D01*
G75*
G02*
X93110500Y-109542600I-237500J0D01*
G01*
X92610500Y-109542600D01*
G75*
G02*
X92373000Y-109305100I0J237500D01*
G01*
X92373000Y-108830100D01*
G75*
G02*
X92610500Y-108592600I237500J0D01*
G01*
X93110500Y-108592600D01*
G75*
G02*
X93348000Y-108830100I0J-237500D01*
G01*
G37*
%TD*%
%TO.C,R2*%
G36*
G01*
X100564500Y-120125500D02*
X100564500Y-119650500D01*
G75*
G02*
X100802000Y-119413000I237500J0D01*
G01*
X101302000Y-119413000D01*
G75*
G02*
X101539500Y-119650500I0J-237500D01*
G01*
X101539500Y-120125500D01*
G75*
G02*
X101302000Y-120363000I-237500J0D01*
G01*
X100802000Y-120363000D01*
G75*
G02*
X100564500Y-120125500I0J237500D01*
G01*
G37*
G36*
G01*
X98739500Y-120125500D02*
X98739500Y-119650500D01*
G75*
G02*
X98977000Y-119413000I237500J0D01*
G01*
X99477000Y-119413000D01*
G75*
G02*
X99714500Y-119650500I0J-237500D01*
G01*
X99714500Y-120125500D01*
G75*
G02*
X99477000Y-120363000I-237500J0D01*
G01*
X98977000Y-120363000D01*
G75*
G02*
X98739500Y-120125500I0J237500D01*
G01*
G37*
%TD*%
%TO.C,R1*%
G36*
G01*
X102950000Y-116352500D02*
X103425000Y-116352500D01*
G75*
G02*
X103662500Y-116590000I0J-237500D01*
G01*
X103662500Y-117090000D01*
G75*
G02*
X103425000Y-117327500I-237500J0D01*
G01*
X102950000Y-117327500D01*
G75*
G02*
X102712500Y-117090000I0J237500D01*
G01*
X102712500Y-116590000D01*
G75*
G02*
X102950000Y-116352500I237500J0D01*
G01*
G37*
G36*
G01*
X102950000Y-114527500D02*
X103425000Y-114527500D01*
G75*
G02*
X103662500Y-114765000I0J-237500D01*
G01*
X103662500Y-115265000D01*
G75*
G02*
X103425000Y-115502500I-237500J0D01*
G01*
X102950000Y-115502500D01*
G75*
G02*
X102712500Y-115265000I0J237500D01*
G01*
X102712500Y-114765000D01*
G75*
G02*
X102950000Y-114527500I237500J0D01*
G01*
G37*
%TD*%
D30*
%TO.C,Q1*%
X71729600Y-114198400D03*
D31*
X74269600Y-114198400D03*
X72999600Y-114198400D03*
%TD*%
D32*
%TO.C,Q3*%
X126110000Y-103124000D03*
X122810000Y-104074000D03*
X122810000Y-102174000D03*
%TD*%
%TO.C,Q2*%
X117982000Y-103124000D03*
X114682000Y-104074000D03*
X114682000Y-102174000D03*
%TD*%
%TO.C,C8*%
G36*
G01*
X124643000Y-95266500D02*
X124643000Y-95741500D01*
G75*
G02*
X124405500Y-95979000I-237500J0D01*
G01*
X123805500Y-95979000D01*
G75*
G02*
X123568000Y-95741500I0J237500D01*
G01*
X123568000Y-95266500D01*
G75*
G02*
X123805500Y-95029000I237500J0D01*
G01*
X124405500Y-95029000D01*
G75*
G02*
X124643000Y-95266500I0J-237500D01*
G01*
G37*
G36*
G01*
X126368000Y-95266500D02*
X126368000Y-95741500D01*
G75*
G02*
X126130500Y-95979000I-237500J0D01*
G01*
X125530500Y-95979000D01*
G75*
G02*
X125293000Y-95741500I0J237500D01*
G01*
X125293000Y-95266500D01*
G75*
G02*
X125530500Y-95029000I237500J0D01*
G01*
X126130500Y-95029000D01*
G75*
G02*
X126368000Y-95266500I0J-237500D01*
G01*
G37*
%TD*%
%TO.C,C7*%
G36*
G01*
X114991000Y-95266500D02*
X114991000Y-95741500D01*
G75*
G02*
X114753500Y-95979000I-237500J0D01*
G01*
X114153500Y-95979000D01*
G75*
G02*
X113916000Y-95741500I0J237500D01*
G01*
X113916000Y-95266500D01*
G75*
G02*
X114153500Y-95029000I237500J0D01*
G01*
X114753500Y-95029000D01*
G75*
G02*
X114991000Y-95266500I0J-237500D01*
G01*
G37*
G36*
G01*
X116716000Y-95266500D02*
X116716000Y-95741500D01*
G75*
G02*
X116478500Y-95979000I-237500J0D01*
G01*
X115878500Y-95979000D01*
G75*
G02*
X115641000Y-95741500I0J237500D01*
G01*
X115641000Y-95266500D01*
G75*
G02*
X115878500Y-95029000I237500J0D01*
G01*
X116478500Y-95029000D01*
G75*
G02*
X116716000Y-95266500I0J-237500D01*
G01*
G37*
%TD*%
%TO.C,C6*%
G36*
G01*
X122665500Y-98735000D02*
X122190500Y-98735000D01*
G75*
G02*
X121953000Y-98497500I0J237500D01*
G01*
X121953000Y-97897500D01*
G75*
G02*
X122190500Y-97660000I237500J0D01*
G01*
X122665500Y-97660000D01*
G75*
G02*
X122903000Y-97897500I0J-237500D01*
G01*
X122903000Y-98497500D01*
G75*
G02*
X122665500Y-98735000I-237500J0D01*
G01*
G37*
G36*
G01*
X122665500Y-100460000D02*
X122190500Y-100460000D01*
G75*
G02*
X121953000Y-100222500I0J237500D01*
G01*
X121953000Y-99622500D01*
G75*
G02*
X122190500Y-99385000I237500J0D01*
G01*
X122665500Y-99385000D01*
G75*
G02*
X122903000Y-99622500I0J-237500D01*
G01*
X122903000Y-100222500D01*
G75*
G02*
X122665500Y-100460000I-237500J0D01*
G01*
G37*
%TD*%
%TO.C,C2*%
G36*
G01*
X102950000Y-119959000D02*
X103425000Y-119959000D01*
G75*
G02*
X103662500Y-120196500I0J-237500D01*
G01*
X103662500Y-120796500D01*
G75*
G02*
X103425000Y-121034000I-237500J0D01*
G01*
X102950000Y-121034000D01*
G75*
G02*
X102712500Y-120796500I0J237500D01*
G01*
X102712500Y-120196500D01*
G75*
G02*
X102950000Y-119959000I237500J0D01*
G01*
G37*
G36*
G01*
X102950000Y-118234000D02*
X103425000Y-118234000D01*
G75*
G02*
X103662500Y-118471500I0J-237500D01*
G01*
X103662500Y-119071500D01*
G75*
G02*
X103425000Y-119309000I-237500J0D01*
G01*
X102950000Y-119309000D01*
G75*
G02*
X102712500Y-119071500I0J237500D01*
G01*
X102712500Y-118471500D01*
G75*
G02*
X102950000Y-118234000I237500J0D01*
G01*
G37*
%TD*%
M02*
