%TF.GenerationSoftware,KiCad,Pcbnew,(5.1.9)-1*%
%TF.CreationDate,2021-05-12T15:20:05-07:00*%
%TF.ProjectId,vive_ups,76697665-5f75-4707-932e-6b696361645f,rev?*%
%TF.SameCoordinates,Original*%
%TF.FileFunction,Legend,Bot*%
%TF.FilePolarity,Positive*%
%FSLAX46Y46*%
G04 Gerber Fmt 4.6, Leading zero omitted, Abs format (unit mm)*
G04 Created by KiCad (PCBNEW (5.1.9)-1) date 2021-05-12 15:20:05*
%MOMM*%
%LPD*%
G01*
G04 APERTURE LIST*
%ADD10C,0.150000*%
%ADD11C,0.010000*%
G04 APERTURE END LIST*
D10*
X88464571Y-128309714D02*
X88464571Y-129309714D01*
X88464571Y-128357333D02*
X88271047Y-128309714D01*
X87884000Y-128309714D01*
X87690476Y-128357333D01*
X87593714Y-128404952D01*
X87496952Y-128500190D01*
X87496952Y-128785904D01*
X87593714Y-128881142D01*
X87690476Y-128928761D01*
X87884000Y-128976380D01*
X88271047Y-128976380D01*
X88464571Y-128928761D01*
X86335809Y-128976380D02*
X86529333Y-128928761D01*
X86626095Y-128881142D01*
X86722857Y-128785904D01*
X86722857Y-128500190D01*
X86626095Y-128404952D01*
X86529333Y-128357333D01*
X86335809Y-128309714D01*
X86045523Y-128309714D01*
X85852000Y-128357333D01*
X85755238Y-128404952D01*
X85658476Y-128500190D01*
X85658476Y-128785904D01*
X85755238Y-128881142D01*
X85852000Y-128928761D01*
X86045523Y-128976380D01*
X86335809Y-128976380D01*
X84981142Y-128309714D02*
X84594095Y-128976380D01*
X84207047Y-128500190D01*
X83820000Y-128976380D01*
X83432952Y-128309714D01*
X81884761Y-128928761D02*
X82078285Y-128976380D01*
X82465333Y-128976380D01*
X82658857Y-128928761D01*
X82755619Y-128833523D01*
X82755619Y-128452571D01*
X82658857Y-128357333D01*
X82465333Y-128309714D01*
X82078285Y-128309714D01*
X81884761Y-128357333D01*
X81788000Y-128452571D01*
X81788000Y-128547809D01*
X82755619Y-128643047D01*
X80917142Y-128976380D02*
X80917142Y-128309714D01*
X80917142Y-128500190D02*
X80820380Y-128404952D01*
X80723619Y-128357333D01*
X80530095Y-128309714D01*
X80336571Y-128309714D01*
X77240190Y-128309714D02*
X77240190Y-129119238D01*
X77336952Y-129214476D01*
X77433714Y-129262095D01*
X77627238Y-129309714D01*
X77917523Y-129309714D01*
X78111047Y-129262095D01*
X77240190Y-128928761D02*
X77433714Y-128976380D01*
X77820761Y-128976380D01*
X78014285Y-128928761D01*
X78111047Y-128881142D01*
X78207809Y-128785904D01*
X78207809Y-128500190D01*
X78111047Y-128404952D01*
X78014285Y-128357333D01*
X77820761Y-128309714D01*
X77433714Y-128309714D01*
X77240190Y-128357333D01*
X75982285Y-128976380D02*
X76175809Y-128928761D01*
X76272571Y-128881142D01*
X76369333Y-128785904D01*
X76369333Y-128500190D01*
X76272571Y-128404952D01*
X76175809Y-128357333D01*
X75982285Y-128309714D01*
X75692000Y-128309714D01*
X75498476Y-128357333D01*
X75401714Y-128404952D01*
X75304952Y-128500190D01*
X75304952Y-128785904D01*
X75401714Y-128881142D01*
X75498476Y-128928761D01*
X75692000Y-128976380D01*
X75982285Y-128976380D01*
X72885904Y-128976380D02*
X72885904Y-127976380D01*
X72885904Y-128357333D02*
X72692380Y-128309714D01*
X72305333Y-128309714D01*
X72111809Y-128357333D01*
X72015047Y-128404952D01*
X71918285Y-128500190D01*
X71918285Y-128785904D01*
X72015047Y-128881142D01*
X72111809Y-128928761D01*
X72305333Y-128976380D01*
X72692380Y-128976380D01*
X72885904Y-128928761D01*
X71047428Y-128976380D02*
X71047428Y-128309714D01*
X71047428Y-128500190D02*
X70950666Y-128404952D01*
X70853904Y-128357333D01*
X70660380Y-128309714D01*
X70466857Y-128309714D01*
X69789523Y-128976380D02*
X69789523Y-128309714D01*
X69789523Y-128500190D02*
X69692761Y-128404952D01*
X69596000Y-128357333D01*
X69402476Y-128309714D01*
X69208952Y-128309714D01*
X68531619Y-128976380D02*
X68531619Y-128309714D01*
X68531619Y-128500190D02*
X68434857Y-128404952D01*
X68338095Y-128357333D01*
X68144571Y-128309714D01*
X67951047Y-128309714D01*
X67273714Y-128976380D02*
X67273714Y-128309714D01*
X67273714Y-128500190D02*
X67176952Y-128404952D01*
X67080190Y-128357333D01*
X66886666Y-128309714D01*
X66693142Y-128309714D01*
X89866809Y-141311380D02*
X89533476Y-142311380D01*
X89200142Y-141311380D01*
X88866809Y-142311380D02*
X88866809Y-141311380D01*
X88533476Y-141311380D02*
X88200142Y-142311380D01*
X87866809Y-141311380D01*
X87533476Y-141787571D02*
X87200142Y-141787571D01*
X87057285Y-142311380D02*
X87533476Y-142311380D01*
X87533476Y-141311380D01*
X87057285Y-141311380D01*
X85962047Y-141311380D02*
X85723952Y-142311380D01*
X85533476Y-141597095D01*
X85343000Y-142311380D01*
X85104904Y-141311380D01*
X84723952Y-142311380D02*
X84723952Y-141311380D01*
X83676333Y-142311380D02*
X84009666Y-141835190D01*
X84247761Y-142311380D02*
X84247761Y-141311380D01*
X83866809Y-141311380D01*
X83771571Y-141359000D01*
X83723952Y-141406619D01*
X83676333Y-141501857D01*
X83676333Y-141644714D01*
X83723952Y-141739952D01*
X83771571Y-141787571D01*
X83866809Y-141835190D01*
X84247761Y-141835190D01*
X83247761Y-141787571D02*
X82914428Y-141787571D01*
X82771571Y-142311380D02*
X83247761Y-142311380D01*
X83247761Y-141311380D01*
X82771571Y-141311380D01*
X81866809Y-142311380D02*
X82343000Y-142311380D01*
X82343000Y-141311380D01*
X81533476Y-141787571D02*
X81200142Y-141787571D01*
X81057285Y-142311380D02*
X81533476Y-142311380D01*
X81533476Y-141311380D01*
X81057285Y-141311380D01*
X80676333Y-142263761D02*
X80533476Y-142311380D01*
X80295380Y-142311380D01*
X80200142Y-142263761D01*
X80152523Y-142216142D01*
X80104904Y-142120904D01*
X80104904Y-142025666D01*
X80152523Y-141930428D01*
X80200142Y-141882809D01*
X80295380Y-141835190D01*
X80485857Y-141787571D01*
X80581095Y-141739952D01*
X80628714Y-141692333D01*
X80676333Y-141597095D01*
X80676333Y-141501857D01*
X80628714Y-141406619D01*
X80581095Y-141359000D01*
X80485857Y-141311380D01*
X80247761Y-141311380D01*
X80104904Y-141359000D01*
X79723952Y-142263761D02*
X79581095Y-142311380D01*
X79343000Y-142311380D01*
X79247761Y-142263761D01*
X79200142Y-142216142D01*
X79152523Y-142120904D01*
X79152523Y-142025666D01*
X79200142Y-141930428D01*
X79247761Y-141882809D01*
X79343000Y-141835190D01*
X79533476Y-141787571D01*
X79628714Y-141739952D01*
X79676333Y-141692333D01*
X79723952Y-141597095D01*
X79723952Y-141501857D01*
X79676333Y-141406619D01*
X79628714Y-141359000D01*
X79533476Y-141311380D01*
X79295380Y-141311380D01*
X79152523Y-141359000D01*
X77962047Y-141311380D02*
X77962047Y-142120904D01*
X77914428Y-142216142D01*
X77866809Y-142263761D01*
X77771571Y-142311380D01*
X77581095Y-142311380D01*
X77485857Y-142263761D01*
X77438238Y-142216142D01*
X77390619Y-142120904D01*
X77390619Y-141311380D01*
X76914428Y-142311380D02*
X76914428Y-141311380D01*
X76533476Y-141311380D01*
X76438238Y-141359000D01*
X76390619Y-141406619D01*
X76343000Y-141501857D01*
X76343000Y-141644714D01*
X76390619Y-141739952D01*
X76438238Y-141787571D01*
X76533476Y-141835190D01*
X76914428Y-141835190D01*
X75962047Y-142263761D02*
X75819190Y-142311380D01*
X75581095Y-142311380D01*
X75485857Y-142263761D01*
X75438238Y-142216142D01*
X75390619Y-142120904D01*
X75390619Y-142025666D01*
X75438238Y-141930428D01*
X75485857Y-141882809D01*
X75581095Y-141835190D01*
X75771571Y-141787571D01*
X75866809Y-141739952D01*
X75914428Y-141692333D01*
X75962047Y-141597095D01*
X75962047Y-141501857D01*
X75914428Y-141406619D01*
X75866809Y-141359000D01*
X75771571Y-141311380D01*
X75533476Y-141311380D01*
X75390619Y-141359000D01*
X73866809Y-141787571D02*
X73723952Y-141835190D01*
X73676333Y-141882809D01*
X73628714Y-141978047D01*
X73628714Y-142120904D01*
X73676333Y-142216142D01*
X73723952Y-142263761D01*
X73819190Y-142311380D01*
X74200142Y-142311380D01*
X74200142Y-141311380D01*
X73866809Y-141311380D01*
X73771571Y-141359000D01*
X73723952Y-141406619D01*
X73676333Y-141501857D01*
X73676333Y-141597095D01*
X73723952Y-141692333D01*
X73771571Y-141739952D01*
X73866809Y-141787571D01*
X74200142Y-141787571D01*
X73009666Y-141311380D02*
X72819190Y-141311380D01*
X72723952Y-141359000D01*
X72628714Y-141454238D01*
X72581095Y-141644714D01*
X72581095Y-141978047D01*
X72628714Y-142168523D01*
X72723952Y-142263761D01*
X72819190Y-142311380D01*
X73009666Y-142311380D01*
X73104904Y-142263761D01*
X73200142Y-142168523D01*
X73247761Y-141978047D01*
X73247761Y-141644714D01*
X73200142Y-141454238D01*
X73104904Y-141359000D01*
X73009666Y-141311380D01*
X72200142Y-142025666D02*
X71723952Y-142025666D01*
X72295380Y-142311380D02*
X71962047Y-141311380D01*
X71628714Y-142311380D01*
X70723952Y-142311380D02*
X71057285Y-141835190D01*
X71295380Y-142311380D02*
X71295380Y-141311380D01*
X70914428Y-141311380D01*
X70819190Y-141359000D01*
X70771571Y-141406619D01*
X70723952Y-141501857D01*
X70723952Y-141644714D01*
X70771571Y-141739952D01*
X70819190Y-141787571D01*
X70914428Y-141835190D01*
X71295380Y-141835190D01*
X70295380Y-142311380D02*
X70295380Y-141311380D01*
X70057285Y-141311380D01*
X69914428Y-141359000D01*
X69819190Y-141454238D01*
X69771571Y-141549476D01*
X69723952Y-141739952D01*
X69723952Y-141882809D01*
X69771571Y-142073285D01*
X69819190Y-142168523D01*
X69914428Y-142263761D01*
X70057285Y-142311380D01*
X70295380Y-142311380D01*
X68628714Y-141644714D02*
X68390619Y-142311380D01*
X68152523Y-141644714D01*
X67581095Y-141311380D02*
X67485857Y-141311380D01*
X67390619Y-141359000D01*
X67343000Y-141406619D01*
X67295380Y-141501857D01*
X67247761Y-141692333D01*
X67247761Y-141930428D01*
X67295380Y-142120904D01*
X67343000Y-142216142D01*
X67390619Y-142263761D01*
X67485857Y-142311380D01*
X67581095Y-142311380D01*
X67676333Y-142263761D01*
X67723952Y-142216142D01*
X67771571Y-142120904D01*
X67819190Y-141930428D01*
X67819190Y-141692333D01*
X67771571Y-141501857D01*
X67723952Y-141406619D01*
X67676333Y-141359000D01*
X67581095Y-141311380D01*
X66819190Y-142216142D02*
X66771571Y-142263761D01*
X66819190Y-142311380D01*
X66866809Y-142263761D01*
X66819190Y-142216142D01*
X66819190Y-142311380D01*
X66390619Y-141406619D02*
X66343000Y-141359000D01*
X66247761Y-141311380D01*
X66009666Y-141311380D01*
X65914428Y-141359000D01*
X65866809Y-141406619D01*
X65819190Y-141501857D01*
X65819190Y-141597095D01*
X65866809Y-141739952D01*
X66438238Y-142311380D01*
X65819190Y-142311380D01*
X64962047Y-142311380D02*
X64962047Y-141787571D01*
X65009666Y-141692333D01*
X65104904Y-141644714D01*
X65295380Y-141644714D01*
X65390619Y-141692333D01*
X64962047Y-142263761D02*
X65057285Y-142311380D01*
X65295380Y-142311380D01*
X65390619Y-142263761D01*
X65438238Y-142168523D01*
X65438238Y-142073285D01*
X65390619Y-141978047D01*
X65295380Y-141930428D01*
X65057285Y-141930428D01*
X64962047Y-141882809D01*
D11*
%TO.C,G\u002A\u002A\u002A*%
G36*
X101528777Y-140491973D02*
G01*
X101416555Y-140648267D01*
X101103786Y-141393408D01*
X101162264Y-141931105D01*
X101416555Y-142059378D01*
X101670834Y-141755113D01*
X101763931Y-141089239D01*
X101711254Y-140473350D01*
X101528777Y-140491973D01*
G37*
X101528777Y-140491973D02*
X101416555Y-140648267D01*
X101103786Y-141393408D01*
X101162264Y-141931105D01*
X101416555Y-142059378D01*
X101670834Y-141755113D01*
X101763931Y-141089239D01*
X101711254Y-140473350D01*
X101528777Y-140491973D01*
G36*
X90392250Y-120441781D02*
G01*
X93302666Y-120568468D01*
X93302666Y-123171181D01*
X93324793Y-124508302D01*
X93383073Y-125596533D01*
X93465357Y-126217642D01*
X93473723Y-126243720D01*
X93302121Y-126709469D01*
X92589537Y-127205567D01*
X92512211Y-127242711D01*
X91325292Y-128127497D01*
X90457440Y-129549648D01*
X89880386Y-131561357D01*
X89752577Y-132337797D01*
X89599889Y-133748322D01*
X89644063Y-134811871D01*
X89917457Y-135867577D01*
X90149341Y-136496198D01*
X90828755Y-137957024D01*
X91543413Y-138822392D01*
X92399411Y-139198830D01*
X92879170Y-139237156D01*
X93489704Y-139342591D01*
X93580646Y-139800297D01*
X93520709Y-140078735D01*
X93459347Y-140702142D01*
X93704833Y-141147338D01*
X94354073Y-141457989D01*
X95503976Y-141677766D01*
X97251448Y-141850338D01*
X97493595Y-141869017D01*
X100802580Y-142119510D01*
X100531210Y-141119305D01*
X100389779Y-140326808D01*
X99256271Y-140326808D01*
X99134136Y-140884372D01*
X98440615Y-141210288D01*
X97124552Y-141344635D01*
X96488738Y-141353823D01*
X95158706Y-141326175D01*
X94395242Y-141222467D01*
X94060790Y-141011547D01*
X94008222Y-140792105D01*
X94215354Y-140132166D01*
X94713397Y-139333902D01*
X94713777Y-139333419D01*
X95336853Y-138058827D01*
X95280793Y-136650610D01*
X95005569Y-135892797D01*
X94768376Y-135107123D01*
X94979998Y-134597214D01*
X95005569Y-134570920D01*
X95369602Y-133872798D01*
X95419333Y-133522156D01*
X95641820Y-132987502D01*
X96241061Y-132969778D01*
X97114730Y-133467948D01*
X97206028Y-133540241D01*
X97687053Y-134076564D01*
X97977424Y-134853345D01*
X98146465Y-136078542D01*
X98175726Y-136449157D01*
X98342428Y-137770257D01*
X98609148Y-138905124D01*
X98858182Y-139497515D01*
X99256271Y-140326808D01*
X100389779Y-140326808D01*
X100309189Y-139875235D01*
X100495744Y-138899323D01*
X101165793Y-137888342D01*
X101396003Y-137619166D01*
X102243868Y-136334034D01*
X102474889Y-135208986D01*
X102613488Y-134324975D01*
X103120185Y-133513806D01*
X103856934Y-132778994D01*
X104846572Y-131928032D01*
X105783372Y-131191049D01*
X106133574Y-130944238D01*
X106707210Y-130618803D01*
X107173891Y-130605626D01*
X107780002Y-130955265D01*
X108367500Y-131402637D01*
X109724626Y-132302501D01*
X110901999Y-132657227D01*
X112117144Y-132504754D01*
X112927163Y-132197894D01*
X114328487Y-131296702D01*
X115166951Y-130045881D01*
X115479128Y-128375302D01*
X115449347Y-127361396D01*
X115411598Y-126738082D01*
X114469333Y-126738082D01*
X114415050Y-127111073D01*
X114127850Y-127077497D01*
X113571178Y-126735364D01*
X112944140Y-126384928D01*
X112428864Y-126378951D01*
X111715592Y-126740067D01*
X111472725Y-126888695D01*
X110403539Y-127783176D01*
X109967233Y-128833197D01*
X110061352Y-130072861D01*
X110129931Y-130871056D01*
X109847186Y-131068840D01*
X109204318Y-130666989D01*
X108696606Y-130193216D01*
X107955353Y-128991453D01*
X107768739Y-127570768D01*
X108155014Y-126170597D01*
X108363468Y-125821901D01*
X109011462Y-124996063D01*
X109669453Y-124580623D01*
X110619440Y-124437873D01*
X111222174Y-124425891D01*
X112503742Y-124651192D01*
X113593373Y-125246576D01*
X114301711Y-126077211D01*
X114469333Y-126738082D01*
X115411598Y-126738082D01*
X115386203Y-126318773D01*
X115389519Y-125635129D01*
X115431612Y-125478822D01*
X115763524Y-125675254D01*
X116479439Y-126183532D01*
X117187187Y-126713642D01*
X118460685Y-127573455D01*
X119731944Y-128143816D01*
X121172509Y-128461823D01*
X122953925Y-128564569D01*
X125247737Y-128489152D01*
X125365551Y-128482176D01*
X127573527Y-128399961D01*
X129273688Y-128462445D01*
X130650616Y-128678683D01*
X130961694Y-128756672D01*
X132046316Y-129020131D01*
X132611301Y-129060312D01*
X132805538Y-128879514D01*
X132813777Y-128785255D01*
X132514544Y-128351787D01*
X132020027Y-128139671D01*
X130460020Y-127829509D01*
X129011693Y-127600113D01*
X127847398Y-127473452D01*
X127139486Y-127471491D01*
X127032078Y-127503928D01*
X126554686Y-127586862D01*
X125556212Y-127638343D01*
X124220728Y-127650692D01*
X123678742Y-127643819D01*
X121963012Y-127549677D01*
X120614607Y-127278788D01*
X119403895Y-126738404D01*
X118101246Y-125835782D01*
X117039215Y-124962191D01*
X116387179Y-124411285D01*
X116097612Y-124168654D01*
X115492331Y-123910309D01*
X114428586Y-123665367D01*
X113312532Y-123507636D01*
X111045579Y-123474383D01*
X109290493Y-123908186D01*
X108012216Y-124830363D01*
X107175693Y-126262232D01*
X106860577Y-127431012D01*
X106562149Y-128362029D01*
X105954243Y-129309673D01*
X104919658Y-130444901D01*
X104537225Y-130819977D01*
X103572832Y-131816779D01*
X102849611Y-132690664D01*
X102492405Y-133286808D01*
X102474889Y-133377616D01*
X102340425Y-133941274D01*
X102010942Y-133957355D01*
X101597300Y-133514089D01*
X101210360Y-132699701D01*
X101082869Y-132269795D01*
X100283680Y-130422210D01*
X99381894Y-129271184D01*
X98282837Y-128315801D01*
X97409958Y-127982862D01*
X96694887Y-128253679D01*
X96477666Y-128477434D01*
X95892025Y-128960332D01*
X95461376Y-128759884D01*
X95224990Y-128212850D01*
X94786054Y-127292419D01*
X94407467Y-126766414D01*
X94028578Y-125968355D01*
X93767706Y-124545046D01*
X93655444Y-123238636D01*
X93479055Y-120363545D01*
X87481833Y-120315095D01*
X90392250Y-120441781D01*
G37*
X90392250Y-120441781D02*
X93302666Y-120568468D01*
X93302666Y-123171181D01*
X93324793Y-124508302D01*
X93383073Y-125596533D01*
X93465357Y-126217642D01*
X93473723Y-126243720D01*
X93302121Y-126709469D01*
X92589537Y-127205567D01*
X92512211Y-127242711D01*
X91325292Y-128127497D01*
X90457440Y-129549648D01*
X89880386Y-131561357D01*
X89752577Y-132337797D01*
X89599889Y-133748322D01*
X89644063Y-134811871D01*
X89917457Y-135867577D01*
X90149341Y-136496198D01*
X90828755Y-137957024D01*
X91543413Y-138822392D01*
X92399411Y-139198830D01*
X92879170Y-139237156D01*
X93489704Y-139342591D01*
X93580646Y-139800297D01*
X93520709Y-140078735D01*
X93459347Y-140702142D01*
X93704833Y-141147338D01*
X94354073Y-141457989D01*
X95503976Y-141677766D01*
X97251448Y-141850338D01*
X97493595Y-141869017D01*
X100802580Y-142119510D01*
X100531210Y-141119305D01*
X100389779Y-140326808D01*
X99256271Y-140326808D01*
X99134136Y-140884372D01*
X98440615Y-141210288D01*
X97124552Y-141344635D01*
X96488738Y-141353823D01*
X95158706Y-141326175D01*
X94395242Y-141222467D01*
X94060790Y-141011547D01*
X94008222Y-140792105D01*
X94215354Y-140132166D01*
X94713397Y-139333902D01*
X94713777Y-139333419D01*
X95336853Y-138058827D01*
X95280793Y-136650610D01*
X95005569Y-135892797D01*
X94768376Y-135107123D01*
X94979998Y-134597214D01*
X95005569Y-134570920D01*
X95369602Y-133872798D01*
X95419333Y-133522156D01*
X95641820Y-132987502D01*
X96241061Y-132969778D01*
X97114730Y-133467948D01*
X97206028Y-133540241D01*
X97687053Y-134076564D01*
X97977424Y-134853345D01*
X98146465Y-136078542D01*
X98175726Y-136449157D01*
X98342428Y-137770257D01*
X98609148Y-138905124D01*
X98858182Y-139497515D01*
X99256271Y-140326808D01*
X100389779Y-140326808D01*
X100309189Y-139875235D01*
X100495744Y-138899323D01*
X101165793Y-137888342D01*
X101396003Y-137619166D01*
X102243868Y-136334034D01*
X102474889Y-135208986D01*
X102613488Y-134324975D01*
X103120185Y-133513806D01*
X103856934Y-132778994D01*
X104846572Y-131928032D01*
X105783372Y-131191049D01*
X106133574Y-130944238D01*
X106707210Y-130618803D01*
X107173891Y-130605626D01*
X107780002Y-130955265D01*
X108367500Y-131402637D01*
X109724626Y-132302501D01*
X110901999Y-132657227D01*
X112117144Y-132504754D01*
X112927163Y-132197894D01*
X114328487Y-131296702D01*
X115166951Y-130045881D01*
X115479128Y-128375302D01*
X115449347Y-127361396D01*
X115411598Y-126738082D01*
X114469333Y-126738082D01*
X114415050Y-127111073D01*
X114127850Y-127077497D01*
X113571178Y-126735364D01*
X112944140Y-126384928D01*
X112428864Y-126378951D01*
X111715592Y-126740067D01*
X111472725Y-126888695D01*
X110403539Y-127783176D01*
X109967233Y-128833197D01*
X110061352Y-130072861D01*
X110129931Y-130871056D01*
X109847186Y-131068840D01*
X109204318Y-130666989D01*
X108696606Y-130193216D01*
X107955353Y-128991453D01*
X107768739Y-127570768D01*
X108155014Y-126170597D01*
X108363468Y-125821901D01*
X109011462Y-124996063D01*
X109669453Y-124580623D01*
X110619440Y-124437873D01*
X111222174Y-124425891D01*
X112503742Y-124651192D01*
X113593373Y-125246576D01*
X114301711Y-126077211D01*
X114469333Y-126738082D01*
X115411598Y-126738082D01*
X115386203Y-126318773D01*
X115389519Y-125635129D01*
X115431612Y-125478822D01*
X115763524Y-125675254D01*
X116479439Y-126183532D01*
X117187187Y-126713642D01*
X118460685Y-127573455D01*
X119731944Y-128143816D01*
X121172509Y-128461823D01*
X122953925Y-128564569D01*
X125247737Y-128489152D01*
X125365551Y-128482176D01*
X127573527Y-128399961D01*
X129273688Y-128462445D01*
X130650616Y-128678683D01*
X130961694Y-128756672D01*
X132046316Y-129020131D01*
X132611301Y-129060312D01*
X132805538Y-128879514D01*
X132813777Y-128785255D01*
X132514544Y-128351787D01*
X132020027Y-128139671D01*
X130460020Y-127829509D01*
X129011693Y-127600113D01*
X127847398Y-127473452D01*
X127139486Y-127471491D01*
X127032078Y-127503928D01*
X126554686Y-127586862D01*
X125556212Y-127638343D01*
X124220728Y-127650692D01*
X123678742Y-127643819D01*
X121963012Y-127549677D01*
X120614607Y-127278788D01*
X119403895Y-126738404D01*
X118101246Y-125835782D01*
X117039215Y-124962191D01*
X116387179Y-124411285D01*
X116097612Y-124168654D01*
X115492331Y-123910309D01*
X114428586Y-123665367D01*
X113312532Y-123507636D01*
X111045579Y-123474383D01*
X109290493Y-123908186D01*
X108012216Y-124830363D01*
X107175693Y-126262232D01*
X106860577Y-127431012D01*
X106562149Y-128362029D01*
X105954243Y-129309673D01*
X104919658Y-130444901D01*
X104537225Y-130819977D01*
X103572832Y-131816779D01*
X102849611Y-132690664D01*
X102492405Y-133286808D01*
X102474889Y-133377616D01*
X102340425Y-133941274D01*
X102010942Y-133957355D01*
X101597300Y-133514089D01*
X101210360Y-132699701D01*
X101082869Y-132269795D01*
X100283680Y-130422210D01*
X99381894Y-129271184D01*
X98282837Y-128315801D01*
X97409958Y-127982862D01*
X96694887Y-128253679D01*
X96477666Y-128477434D01*
X95892025Y-128960332D01*
X95461376Y-128759884D01*
X95224990Y-128212850D01*
X94786054Y-127292419D01*
X94407467Y-126766414D01*
X94028578Y-125968355D01*
X93767706Y-124545046D01*
X93655444Y-123238636D01*
X93479055Y-120363545D01*
X87481833Y-120315095D01*
X90392250Y-120441781D01*
G36*
X126634634Y-130112906D02*
G01*
X125781226Y-130527183D01*
X124762407Y-131278139D01*
X124188173Y-131810951D01*
X123371709Y-132729112D01*
X122929130Y-133546368D01*
X122718835Y-134584636D01*
X122656047Y-135294105D01*
X122603934Y-136511428D01*
X122721902Y-137315142D01*
X123091662Y-137991639D01*
X123601746Y-138608751D01*
X125067779Y-139773908D01*
X126816003Y-140329871D01*
X128575368Y-140256156D01*
X130033830Y-139607299D01*
X131139499Y-138359626D01*
X131875909Y-136534557D01*
X132047682Y-135739000D01*
X132167143Y-134771043D01*
X131402666Y-134771043D01*
X131341098Y-135862630D01*
X131065327Y-136652947D01*
X130438753Y-137450827D01*
X130033059Y-137867548D01*
X128796176Y-138863148D01*
X127624296Y-139223091D01*
X126353535Y-138979119D01*
X125740703Y-138698930D01*
X124926413Y-138154574D01*
X124760984Y-137736922D01*
X125245821Y-137503255D01*
X125710647Y-137473267D01*
X126832863Y-137218871D01*
X127821147Y-136572954D01*
X128457783Y-135711419D01*
X128580444Y-135154607D01*
X128456403Y-134503979D01*
X128227666Y-134298267D01*
X127982890Y-133990978D01*
X127875131Y-133247438D01*
X127874889Y-133206907D01*
X127720563Y-132332013D01*
X127195855Y-131938246D01*
X127169333Y-131931040D01*
X126548294Y-131612386D01*
X126611761Y-131230876D01*
X127174872Y-130945120D01*
X128200675Y-130910327D01*
X129402233Y-131253567D01*
X130453777Y-131856604D01*
X130872406Y-132287093D01*
X131198534Y-133110284D01*
X131384351Y-134286187D01*
X131402666Y-134771043D01*
X132167143Y-134771043D01*
X132220225Y-134340939D01*
X132220142Y-133224299D01*
X132130840Y-132782970D01*
X131305424Y-131545717D01*
X130018218Y-130607486D01*
X128485853Y-130073518D01*
X126924960Y-130049052D01*
X126634634Y-130112906D01*
G37*
X126634634Y-130112906D02*
X125781226Y-130527183D01*
X124762407Y-131278139D01*
X124188173Y-131810951D01*
X123371709Y-132729112D01*
X122929130Y-133546368D01*
X122718835Y-134584636D01*
X122656047Y-135294105D01*
X122603934Y-136511428D01*
X122721902Y-137315142D01*
X123091662Y-137991639D01*
X123601746Y-138608751D01*
X125067779Y-139773908D01*
X126816003Y-140329871D01*
X128575368Y-140256156D01*
X130033830Y-139607299D01*
X131139499Y-138359626D01*
X131875909Y-136534557D01*
X132047682Y-135739000D01*
X132167143Y-134771043D01*
X131402666Y-134771043D01*
X131341098Y-135862630D01*
X131065327Y-136652947D01*
X130438753Y-137450827D01*
X130033059Y-137867548D01*
X128796176Y-138863148D01*
X127624296Y-139223091D01*
X126353535Y-138979119D01*
X125740703Y-138698930D01*
X124926413Y-138154574D01*
X124760984Y-137736922D01*
X125245821Y-137503255D01*
X125710647Y-137473267D01*
X126832863Y-137218871D01*
X127821147Y-136572954D01*
X128457783Y-135711419D01*
X128580444Y-135154607D01*
X128456403Y-134503979D01*
X128227666Y-134298267D01*
X127982890Y-133990978D01*
X127875131Y-133247438D01*
X127874889Y-133206907D01*
X127720563Y-132332013D01*
X127195855Y-131938246D01*
X127169333Y-131931040D01*
X126548294Y-131612386D01*
X126611761Y-131230876D01*
X127174872Y-130945120D01*
X128200675Y-130910327D01*
X129402233Y-131253567D01*
X130453777Y-131856604D01*
X130872406Y-132287093D01*
X131198534Y-133110284D01*
X131384351Y-134286187D01*
X131402666Y-134771043D01*
X132167143Y-134771043D01*
X132220225Y-134340939D01*
X132220142Y-133224299D01*
X132130840Y-132782970D01*
X131305424Y-131545717D01*
X130018218Y-130607486D01*
X128485853Y-130073518D01*
X126924960Y-130049052D01*
X126634634Y-130112906D01*
G36*
X99299889Y-128477434D02*
G01*
X99476278Y-128653822D01*
X99652666Y-128477434D01*
X99476278Y-128301045D01*
X99299889Y-128477434D01*
G37*
X99299889Y-128477434D02*
X99476278Y-128653822D01*
X99652666Y-128477434D01*
X99476278Y-128301045D01*
X99299889Y-128477434D01*
G36*
X96091812Y-103477170D02*
G01*
X94908729Y-103568271D01*
X94005224Y-103711357D01*
X93598283Y-103875428D01*
X93492215Y-104310517D01*
X93390436Y-105315278D01*
X93302689Y-106753848D01*
X93238715Y-108490364D01*
X93224955Y-109081812D01*
X93126277Y-114013545D01*
X87481833Y-114429009D01*
X93479055Y-114366323D01*
X93788422Y-109148299D01*
X94097789Y-103930276D01*
X96610645Y-104033021D01*
X99123500Y-104135767D01*
X99317278Y-108986211D01*
X99411765Y-110780688D01*
X99536042Y-112326915D01*
X99675702Y-113485325D01*
X99816339Y-114116351D01*
X99853277Y-114178878D01*
X100315941Y-114312004D01*
X101342885Y-114436365D01*
X102792845Y-114539733D01*
X104524554Y-114609881D01*
X104951166Y-114620100D01*
X109706833Y-114719100D01*
X109706833Y-120010767D01*
X99714421Y-120206151D01*
X99464117Y-123211023D01*
X99365515Y-124706534D01*
X99345019Y-125765679D01*
X99392078Y-126331666D01*
X99496138Y-126347705D01*
X99646648Y-125757003D01*
X99779797Y-124909956D01*
X99923122Y-123555041D01*
X100000842Y-122218531D01*
X100005444Y-121913909D01*
X100005444Y-120564138D01*
X105120722Y-120704506D01*
X110236000Y-120844875D01*
X110291895Y-118311154D01*
X110314887Y-116465151D01*
X110284431Y-115232350D01*
X110195843Y-114522084D01*
X110083255Y-114272374D01*
X109699850Y-114213450D01*
X108742777Y-114146732D01*
X107343766Y-114079319D01*
X105634547Y-114018312D01*
X105063778Y-114001851D01*
X100181833Y-113868859D01*
X99960293Y-109002313D01*
X99876469Y-107198232D01*
X99800660Y-105635095D01*
X99739966Y-104454464D01*
X99701488Y-103797897D01*
X99695709Y-103727694D01*
X99356423Y-103563316D01*
X98511870Y-103469938D01*
X97358263Y-103442807D01*
X96091812Y-103477170D01*
G37*
X96091812Y-103477170D02*
X94908729Y-103568271D01*
X94005224Y-103711357D01*
X93598283Y-103875428D01*
X93492215Y-104310517D01*
X93390436Y-105315278D01*
X93302689Y-106753848D01*
X93238715Y-108490364D01*
X93224955Y-109081812D01*
X93126277Y-114013545D01*
X87481833Y-114429009D01*
X93479055Y-114366323D01*
X93788422Y-109148299D01*
X94097789Y-103930276D01*
X96610645Y-104033021D01*
X99123500Y-104135767D01*
X99317278Y-108986211D01*
X99411765Y-110780688D01*
X99536042Y-112326915D01*
X99675702Y-113485325D01*
X99816339Y-114116351D01*
X99853277Y-114178878D01*
X100315941Y-114312004D01*
X101342885Y-114436365D01*
X102792845Y-114539733D01*
X104524554Y-114609881D01*
X104951166Y-114620100D01*
X109706833Y-114719100D01*
X109706833Y-120010767D01*
X99714421Y-120206151D01*
X99464117Y-123211023D01*
X99365515Y-124706534D01*
X99345019Y-125765679D01*
X99392078Y-126331666D01*
X99496138Y-126347705D01*
X99646648Y-125757003D01*
X99779797Y-124909956D01*
X99923122Y-123555041D01*
X100000842Y-122218531D01*
X100005444Y-121913909D01*
X100005444Y-120564138D01*
X105120722Y-120704506D01*
X110236000Y-120844875D01*
X110291895Y-118311154D01*
X110314887Y-116465151D01*
X110284431Y-115232350D01*
X110195843Y-114522084D01*
X110083255Y-114272374D01*
X109699850Y-114213450D01*
X108742777Y-114146732D01*
X107343766Y-114079319D01*
X105634547Y-114018312D01*
X105063778Y-114001851D01*
X100181833Y-113868859D01*
X99960293Y-109002313D01*
X99876469Y-107198232D01*
X99800660Y-105635095D01*
X99739966Y-104454464D01*
X99701488Y-103797897D01*
X99695709Y-103727694D01*
X99356423Y-103563316D01*
X98511870Y-103469938D01*
X97358263Y-103442807D01*
X96091812Y-103477170D01*
%TD*%
M02*
