M48
; DRILL file {KiCad (5.1.9)-1} date 05/12/21 15:20:07
; FORMAT={-:-/ absolute / inch / decimal}
; #@! TF.CreationDate,2021-05-12T15:20:07-07:00
; #@! TF.GenerationSoftware,Kicad,Pcbnew,(5.1.9)-1
; #@! TF.FileFunction,Plated,1,2,PTH
FMAT,2
INCH
T1C0.0157
T2C0.0197
T3C0.0201
T4C0.0217
T5C0.0315
T6C0.0354
T7C0.0374
T8C0.0394
T9C0.0787
T10C0.0906
%
G90
G05
T1
X3.024Y-4.564
X3.084Y-3.778
X3.098Y-4.018
X3.17Y-3.854
X3.17Y-3.98
X3.252Y-4.13
X3.468Y-3.925
X3.5831Y-4.5251
X3.588Y-3.918
X3.61Y-4.238
X3.6325Y-4.69
X3.774Y-3.802
X3.794Y-4.154
X3.795Y-4.79
X3.875Y-4.78
X3.912Y-4.488
X4.112Y-3.752
X4.122Y-4.032
X4.17Y-4.3516
X4.17Y-4.775
X4.22Y-4.35
X4.27Y-4.3516
X4.3059Y-4.785
X4.36Y-4.67
X4.38Y-4.02
X4.44Y-3.76
X4.528Y-4.164
X4.692Y-3.76
X4.82Y-3.745
X5.055Y-3.77
X5.1Y-3.9794
X5.232Y-4.004
T3
X4.195Y-4.465
X4.195Y-4.565
X4.245Y-4.465
X4.245Y-4.565
X4.295Y-4.465
X4.295Y-4.565
T4
X2.824Y-4.496
X2.874Y-4.496
X2.924Y-4.496
T5
X3.028Y-4.458
X3.0964Y-4.6459
X3.2596Y-4.33
X3.2596Y-4.43
X3.2596Y-4.53
X3.2596Y-4.63
X3.2596Y-4.73
X3.3125Y-3.78
X3.3125Y-4.08
X3.4125Y-3.78
X3.4125Y-4.08
X3.5125Y-3.78
X3.5125Y-4.08
X3.6125Y-3.78
X3.6125Y-4.08
X4.4604Y-4.23
X4.4604Y-4.33
X4.4604Y-4.43
X4.4604Y-4.53
X4.7816Y-4.32
X4.7816Y-4.64
X4.88Y-4.32
X4.88Y-4.64
T6
X2.5691Y-4.4816
X2.5691Y-4.58
X2.5691Y-4.6784
X2.7029Y-4.4816
X2.7029Y-4.58
X2.7029Y-4.6784
T7
X3.0217Y-3.9209
X3.0217Y-4.0193
X3.0217Y-4.098
X3.0217Y-4.1965
X5.1Y-4.3444
X5.1Y-4.4428
X5.1Y-4.5216
X5.1Y-4.62
T8
X2.826Y-4.646
X2.826Y-4.746
X2.974Y-4.646
X2.974Y-4.746
X3.6Y-4.775
X3.994Y-3.788
X3.994Y-3.888
X3.994Y-3.988
X3.994Y-4.088
X4.774Y-4.158
T9
X2.623Y-5.24
X5.497Y-5.24
T10
X2.915Y-3.8
X2.915Y-4.3173
X5.2067Y-4.2235
X5.2067Y-4.7409
T2
G00X5.5294Y-3.8212
M15
G01X5.555Y-3.8212
M16
G05
G00X5.5294Y-4.0968
M15
G01X5.555Y-4.0968
M16
G05
T4
G00X5.4359Y-3.8665
M15
G01X5.4359Y-3.8547
M16
G05
G00X5.4359Y-4.0633
M15
G01X5.4359Y-4.0515
M16
G05
T0
M30
